M48
;DRILL file {KiCad 5.0.1-33cea8e~68~ubuntu16.04.1} date Sun 14 Apr 2019 14:52:51 EDT
;FORMAT={3:3/ absolute / metric / suppress leading zeros}
FMAT,2
METRIC,TZ
T1C0.500
T2C0.600
T3C1.000
T4C1.199
T5C1.400
T6C1.500
T7C2.000
T8C3.200
%
G90
G05
M71
T1
X178300Y-104200
X179003Y-102503
X179003Y-105897
X180700Y-101800
X180700Y-106600
X182397Y-102503
X182397Y-105897
X183100Y-104200
T2
X83700Y-128450
X84700Y-128450
T3
X62200Y-105950
X62200Y-108490
X84700Y-114950
X84700Y-117490
X78700Y-114950
X78700Y-117490
X67700Y-105950
X67700Y-108490
X67700Y-114950
X67700Y-117490
X73200Y-114950
X73200Y-117490
X78700Y-105950
X78700Y-108490
X84700Y-105950
X84700Y-108490
X73200Y-105950
X73200Y-108490
T4
X73910Y-123700
X76450Y-123700
X67160Y-123700
X69700Y-123700
X67160Y-131200
X69700Y-131200
X60410Y-123700
X62950Y-123700
X170200Y-127700
X170200Y-130240
X60410Y-131200
X62950Y-131200
X80660Y-123700
X83200Y-123700
T5
X169700Y-111580
X169700Y-118950
T6
X180200Y-111100
X180200Y-133700
T7
X107700Y-113200
X107700Y-123200
X145950Y-113200
X145950Y-123200
T8
X180700Y-104200
T0
M30
