G04 #@! TF.GenerationSoftware,KiCad,Pcbnew,5.0.1-33cea8e~68~ubuntu16.04.1*
G04 #@! TF.CreationDate,2019-04-13T16:41:16-04:00*
G04 #@! TF.ProjectId,filterbuffer,66696C7465726275666665722E6B6963,rev?*
G04 #@! TF.SameCoordinates,Original*
G04 #@! TF.FileFunction,Copper,L1,Top,Signal*
G04 #@! TF.FilePolarity,Positive*
%FSLAX46Y46*%
G04 Gerber Fmt 4.6, Leading zero omitted, Abs format (unit mm)*
G04 Created by KiCad (PCBNEW 5.0.1-33cea8e~68~ubuntu16.04.1) date Sat 13 Apr 2019 16:41:16 EDT*
%MOMM*%
%LPD*%
G01*
G04 APERTURE LIST*
G04 #@! TA.AperFunction,ComponentPad*
%ADD10C,6.400000*%
G04 #@! TD*
G04 #@! TA.AperFunction,ComponentPad*
%ADD11C,0.800000*%
G04 #@! TD*
G04 #@! TA.AperFunction,ComponentPad*
%ADD12C,2.800000*%
G04 #@! TD*
G04 #@! TA.AperFunction,ComponentPad*
%ADD13C,3.000000*%
G04 #@! TD*
G04 #@! TA.AperFunction,ComponentPad*
%ADD14C,4.000000*%
G04 #@! TD*
G04 #@! TA.AperFunction,ComponentPad*
%ADD15R,4.000000X4.000000*%
G04 #@! TD*
G04 #@! TA.AperFunction,Conductor*
%ADD16C,0.100000*%
G04 #@! TD*
G04 #@! TA.AperFunction,SMDPad,CuDef*
%ADD17C,1.250000*%
G04 #@! TD*
G04 #@! TA.AperFunction,SMDPad,CuDef*
%ADD18C,1.425000*%
G04 #@! TD*
G04 #@! TA.AperFunction,ComponentPad*
%ADD19O,1.800860X3.500120*%
G04 #@! TD*
G04 #@! TA.AperFunction,ViaPad*
%ADD20C,0.800000*%
G04 #@! TD*
G04 #@! TA.AperFunction,Conductor*
%ADD21C,1.000000*%
G04 #@! TD*
G04 #@! TA.AperFunction,Conductor*
%ADD22C,0.254000*%
G04 #@! TD*
G04 APERTURE END LIST*
D10*
G04 #@! TO.P,H3,1*
G04 #@! TO.N,Net-(H3-Pad1)*
X181450000Y-114200000D03*
D11*
X183850000Y-114200000D03*
X183147056Y-115897056D03*
X181450000Y-116600000D03*
X179752944Y-115897056D03*
X179050000Y-114200000D03*
X179752944Y-112502944D03*
X181450000Y-111800000D03*
X183147056Y-112502944D03*
G04 #@! TD*
D12*
G04 #@! TO.P,TH1,1*
G04 #@! TO.N,Net-(F1-Pad2)*
X175700000Y-105200000D03*
G04 #@! TO.P,TH1,2*
G04 #@! TO.N,VCC*
X168330000Y-105200000D03*
G04 #@! TD*
D13*
G04 #@! TO.P,F1,1*
G04 #@! TO.N,Net-(F1-Pad1)*
X170950000Y-136700000D03*
G04 #@! TO.P,F1,2*
G04 #@! TO.N,Net-(F1-Pad2)*
X170950000Y-114100000D03*
G04 #@! TD*
D14*
G04 #@! TO.P,C1,2*
G04 #@! TO.N,GND*
X105950000Y-123200000D03*
D15*
G04 #@! TO.P,C1,1*
G04 #@! TO.N,VCC*
X105950000Y-113200000D03*
G04 #@! TD*
G04 #@! TO.P,C2,1*
G04 #@! TO.N,VCC*
X145950000Y-113200000D03*
D14*
G04 #@! TO.P,C2,2*
G04 #@! TO.N,GND*
X145950000Y-123200000D03*
G04 #@! TD*
D16*
G04 #@! TO.N,VCC*
G04 #@! TO.C,D1*
G36*
X52149504Y-130576204D02*
X52173773Y-130579804D01*
X52197571Y-130585765D01*
X52220671Y-130594030D01*
X52242849Y-130604520D01*
X52263893Y-130617133D01*
X52283598Y-130631747D01*
X52301777Y-130648223D01*
X52318253Y-130666402D01*
X52332867Y-130686107D01*
X52345480Y-130707151D01*
X52355970Y-130729329D01*
X52364235Y-130752429D01*
X52370196Y-130776227D01*
X52373796Y-130800496D01*
X52375000Y-130825000D01*
X52375000Y-132075000D01*
X52373796Y-132099504D01*
X52370196Y-132123773D01*
X52364235Y-132147571D01*
X52355970Y-132170671D01*
X52345480Y-132192849D01*
X52332867Y-132213893D01*
X52318253Y-132233598D01*
X52301777Y-132251777D01*
X52283598Y-132268253D01*
X52263893Y-132282867D01*
X52242849Y-132295480D01*
X52220671Y-132305970D01*
X52197571Y-132314235D01*
X52173773Y-132320196D01*
X52149504Y-132323796D01*
X52125000Y-132325000D01*
X51375000Y-132325000D01*
X51350496Y-132323796D01*
X51326227Y-132320196D01*
X51302429Y-132314235D01*
X51279329Y-132305970D01*
X51257151Y-132295480D01*
X51236107Y-132282867D01*
X51216402Y-132268253D01*
X51198223Y-132251777D01*
X51181747Y-132233598D01*
X51167133Y-132213893D01*
X51154520Y-132192849D01*
X51144030Y-132170671D01*
X51135765Y-132147571D01*
X51129804Y-132123773D01*
X51126204Y-132099504D01*
X51125000Y-132075000D01*
X51125000Y-130825000D01*
X51126204Y-130800496D01*
X51129804Y-130776227D01*
X51135765Y-130752429D01*
X51144030Y-130729329D01*
X51154520Y-130707151D01*
X51167133Y-130686107D01*
X51181747Y-130666402D01*
X51198223Y-130648223D01*
X51216402Y-130631747D01*
X51236107Y-130617133D01*
X51257151Y-130604520D01*
X51279329Y-130594030D01*
X51302429Y-130585765D01*
X51326227Y-130579804D01*
X51350496Y-130576204D01*
X51375000Y-130575000D01*
X52125000Y-130575000D01*
X52149504Y-130576204D01*
X52149504Y-130576204D01*
G37*
D17*
G04 #@! TD*
G04 #@! TO.P,D1,1*
G04 #@! TO.N,VCC*
X51750000Y-131450000D03*
D16*
G04 #@! TO.N,Net-(D1-Pad2)*
G04 #@! TO.C,D1*
G36*
X49349504Y-130576204D02*
X49373773Y-130579804D01*
X49397571Y-130585765D01*
X49420671Y-130594030D01*
X49442849Y-130604520D01*
X49463893Y-130617133D01*
X49483598Y-130631747D01*
X49501777Y-130648223D01*
X49518253Y-130666402D01*
X49532867Y-130686107D01*
X49545480Y-130707151D01*
X49555970Y-130729329D01*
X49564235Y-130752429D01*
X49570196Y-130776227D01*
X49573796Y-130800496D01*
X49575000Y-130825000D01*
X49575000Y-132075000D01*
X49573796Y-132099504D01*
X49570196Y-132123773D01*
X49564235Y-132147571D01*
X49555970Y-132170671D01*
X49545480Y-132192849D01*
X49532867Y-132213893D01*
X49518253Y-132233598D01*
X49501777Y-132251777D01*
X49483598Y-132268253D01*
X49463893Y-132282867D01*
X49442849Y-132295480D01*
X49420671Y-132305970D01*
X49397571Y-132314235D01*
X49373773Y-132320196D01*
X49349504Y-132323796D01*
X49325000Y-132325000D01*
X48575000Y-132325000D01*
X48550496Y-132323796D01*
X48526227Y-132320196D01*
X48502429Y-132314235D01*
X48479329Y-132305970D01*
X48457151Y-132295480D01*
X48436107Y-132282867D01*
X48416402Y-132268253D01*
X48398223Y-132251777D01*
X48381747Y-132233598D01*
X48367133Y-132213893D01*
X48354520Y-132192849D01*
X48344030Y-132170671D01*
X48335765Y-132147571D01*
X48329804Y-132123773D01*
X48326204Y-132099504D01*
X48325000Y-132075000D01*
X48325000Y-130825000D01*
X48326204Y-130800496D01*
X48329804Y-130776227D01*
X48335765Y-130752429D01*
X48344030Y-130729329D01*
X48354520Y-130707151D01*
X48367133Y-130686107D01*
X48381747Y-130666402D01*
X48398223Y-130648223D01*
X48416402Y-130631747D01*
X48436107Y-130617133D01*
X48457151Y-130604520D01*
X48479329Y-130594030D01*
X48502429Y-130585765D01*
X48526227Y-130579804D01*
X48550496Y-130576204D01*
X48575000Y-130575000D01*
X49325000Y-130575000D01*
X49349504Y-130576204D01*
X49349504Y-130576204D01*
G37*
D17*
G04 #@! TD*
G04 #@! TO.P,D1,2*
G04 #@! TO.N,Net-(D1-Pad2)*
X48950000Y-131450000D03*
D16*
G04 #@! TO.N,GND*
G04 #@! TO.C,R3*
G36*
X56099504Y-124238704D02*
X56123773Y-124242304D01*
X56147571Y-124248265D01*
X56170671Y-124256530D01*
X56192849Y-124267020D01*
X56213893Y-124279633D01*
X56233598Y-124294247D01*
X56251777Y-124310723D01*
X56268253Y-124328902D01*
X56282867Y-124348607D01*
X56295480Y-124369651D01*
X56305970Y-124391829D01*
X56314235Y-124414929D01*
X56320196Y-124438727D01*
X56323796Y-124462996D01*
X56325000Y-124487500D01*
X56325000Y-125412500D01*
X56323796Y-125437004D01*
X56320196Y-125461273D01*
X56314235Y-125485071D01*
X56305970Y-125508171D01*
X56295480Y-125530349D01*
X56282867Y-125551393D01*
X56268253Y-125571098D01*
X56251777Y-125589277D01*
X56233598Y-125605753D01*
X56213893Y-125620367D01*
X56192849Y-125632980D01*
X56170671Y-125643470D01*
X56147571Y-125651735D01*
X56123773Y-125657696D01*
X56099504Y-125661296D01*
X56075000Y-125662500D01*
X54825000Y-125662500D01*
X54800496Y-125661296D01*
X54776227Y-125657696D01*
X54752429Y-125651735D01*
X54729329Y-125643470D01*
X54707151Y-125632980D01*
X54686107Y-125620367D01*
X54666402Y-125605753D01*
X54648223Y-125589277D01*
X54631747Y-125571098D01*
X54617133Y-125551393D01*
X54604520Y-125530349D01*
X54594030Y-125508171D01*
X54585765Y-125485071D01*
X54579804Y-125461273D01*
X54576204Y-125437004D01*
X54575000Y-125412500D01*
X54575000Y-124487500D01*
X54576204Y-124462996D01*
X54579804Y-124438727D01*
X54585765Y-124414929D01*
X54594030Y-124391829D01*
X54604520Y-124369651D01*
X54617133Y-124348607D01*
X54631747Y-124328902D01*
X54648223Y-124310723D01*
X54666402Y-124294247D01*
X54686107Y-124279633D01*
X54707151Y-124267020D01*
X54729329Y-124256530D01*
X54752429Y-124248265D01*
X54776227Y-124242304D01*
X54800496Y-124238704D01*
X54825000Y-124237500D01*
X56075000Y-124237500D01*
X56099504Y-124238704D01*
X56099504Y-124238704D01*
G37*
D18*
G04 #@! TD*
G04 #@! TO.P,R3,1*
G04 #@! TO.N,GND*
X55450000Y-124950000D03*
D16*
G04 #@! TO.N,Net-(R2-Pad1)*
G04 #@! TO.C,R3*
G36*
X56099504Y-127213704D02*
X56123773Y-127217304D01*
X56147571Y-127223265D01*
X56170671Y-127231530D01*
X56192849Y-127242020D01*
X56213893Y-127254633D01*
X56233598Y-127269247D01*
X56251777Y-127285723D01*
X56268253Y-127303902D01*
X56282867Y-127323607D01*
X56295480Y-127344651D01*
X56305970Y-127366829D01*
X56314235Y-127389929D01*
X56320196Y-127413727D01*
X56323796Y-127437996D01*
X56325000Y-127462500D01*
X56325000Y-128387500D01*
X56323796Y-128412004D01*
X56320196Y-128436273D01*
X56314235Y-128460071D01*
X56305970Y-128483171D01*
X56295480Y-128505349D01*
X56282867Y-128526393D01*
X56268253Y-128546098D01*
X56251777Y-128564277D01*
X56233598Y-128580753D01*
X56213893Y-128595367D01*
X56192849Y-128607980D01*
X56170671Y-128618470D01*
X56147571Y-128626735D01*
X56123773Y-128632696D01*
X56099504Y-128636296D01*
X56075000Y-128637500D01*
X54825000Y-128637500D01*
X54800496Y-128636296D01*
X54776227Y-128632696D01*
X54752429Y-128626735D01*
X54729329Y-128618470D01*
X54707151Y-128607980D01*
X54686107Y-128595367D01*
X54666402Y-128580753D01*
X54648223Y-128564277D01*
X54631747Y-128546098D01*
X54617133Y-128526393D01*
X54604520Y-128505349D01*
X54594030Y-128483171D01*
X54585765Y-128460071D01*
X54579804Y-128436273D01*
X54576204Y-128412004D01*
X54575000Y-128387500D01*
X54575000Y-127462500D01*
X54576204Y-127437996D01*
X54579804Y-127413727D01*
X54585765Y-127389929D01*
X54594030Y-127366829D01*
X54604520Y-127344651D01*
X54617133Y-127323607D01*
X54631747Y-127303902D01*
X54648223Y-127285723D01*
X54666402Y-127269247D01*
X54686107Y-127254633D01*
X54707151Y-127242020D01*
X54729329Y-127231530D01*
X54752429Y-127223265D01*
X54776227Y-127217304D01*
X54800496Y-127213704D01*
X54825000Y-127212500D01*
X56075000Y-127212500D01*
X56099504Y-127213704D01*
X56099504Y-127213704D01*
G37*
D18*
G04 #@! TD*
G04 #@! TO.P,R3,2*
G04 #@! TO.N,Net-(R2-Pad1)*
X55450000Y-127925000D03*
D16*
G04 #@! TO.N,Net-(R1-Pad1)*
G04 #@! TO.C,R2*
G36*
X52849504Y-124238704D02*
X52873773Y-124242304D01*
X52897571Y-124248265D01*
X52920671Y-124256530D01*
X52942849Y-124267020D01*
X52963893Y-124279633D01*
X52983598Y-124294247D01*
X53001777Y-124310723D01*
X53018253Y-124328902D01*
X53032867Y-124348607D01*
X53045480Y-124369651D01*
X53055970Y-124391829D01*
X53064235Y-124414929D01*
X53070196Y-124438727D01*
X53073796Y-124462996D01*
X53075000Y-124487500D01*
X53075000Y-125412500D01*
X53073796Y-125437004D01*
X53070196Y-125461273D01*
X53064235Y-125485071D01*
X53055970Y-125508171D01*
X53045480Y-125530349D01*
X53032867Y-125551393D01*
X53018253Y-125571098D01*
X53001777Y-125589277D01*
X52983598Y-125605753D01*
X52963893Y-125620367D01*
X52942849Y-125632980D01*
X52920671Y-125643470D01*
X52897571Y-125651735D01*
X52873773Y-125657696D01*
X52849504Y-125661296D01*
X52825000Y-125662500D01*
X51575000Y-125662500D01*
X51550496Y-125661296D01*
X51526227Y-125657696D01*
X51502429Y-125651735D01*
X51479329Y-125643470D01*
X51457151Y-125632980D01*
X51436107Y-125620367D01*
X51416402Y-125605753D01*
X51398223Y-125589277D01*
X51381747Y-125571098D01*
X51367133Y-125551393D01*
X51354520Y-125530349D01*
X51344030Y-125508171D01*
X51335765Y-125485071D01*
X51329804Y-125461273D01*
X51326204Y-125437004D01*
X51325000Y-125412500D01*
X51325000Y-124487500D01*
X51326204Y-124462996D01*
X51329804Y-124438727D01*
X51335765Y-124414929D01*
X51344030Y-124391829D01*
X51354520Y-124369651D01*
X51367133Y-124348607D01*
X51381747Y-124328902D01*
X51398223Y-124310723D01*
X51416402Y-124294247D01*
X51436107Y-124279633D01*
X51457151Y-124267020D01*
X51479329Y-124256530D01*
X51502429Y-124248265D01*
X51526227Y-124242304D01*
X51550496Y-124238704D01*
X51575000Y-124237500D01*
X52825000Y-124237500D01*
X52849504Y-124238704D01*
X52849504Y-124238704D01*
G37*
D18*
G04 #@! TD*
G04 #@! TO.P,R2,2*
G04 #@! TO.N,Net-(R1-Pad1)*
X52200000Y-124950000D03*
D16*
G04 #@! TO.N,Net-(R2-Pad1)*
G04 #@! TO.C,R2*
G36*
X52849504Y-127213704D02*
X52873773Y-127217304D01*
X52897571Y-127223265D01*
X52920671Y-127231530D01*
X52942849Y-127242020D01*
X52963893Y-127254633D01*
X52983598Y-127269247D01*
X53001777Y-127285723D01*
X53018253Y-127303902D01*
X53032867Y-127323607D01*
X53045480Y-127344651D01*
X53055970Y-127366829D01*
X53064235Y-127389929D01*
X53070196Y-127413727D01*
X53073796Y-127437996D01*
X53075000Y-127462500D01*
X53075000Y-128387500D01*
X53073796Y-128412004D01*
X53070196Y-128436273D01*
X53064235Y-128460071D01*
X53055970Y-128483171D01*
X53045480Y-128505349D01*
X53032867Y-128526393D01*
X53018253Y-128546098D01*
X53001777Y-128564277D01*
X52983598Y-128580753D01*
X52963893Y-128595367D01*
X52942849Y-128607980D01*
X52920671Y-128618470D01*
X52897571Y-128626735D01*
X52873773Y-128632696D01*
X52849504Y-128636296D01*
X52825000Y-128637500D01*
X51575000Y-128637500D01*
X51550496Y-128636296D01*
X51526227Y-128632696D01*
X51502429Y-128626735D01*
X51479329Y-128618470D01*
X51457151Y-128607980D01*
X51436107Y-128595367D01*
X51416402Y-128580753D01*
X51398223Y-128564277D01*
X51381747Y-128546098D01*
X51367133Y-128526393D01*
X51354520Y-128505349D01*
X51344030Y-128483171D01*
X51335765Y-128460071D01*
X51329804Y-128436273D01*
X51326204Y-128412004D01*
X51325000Y-128387500D01*
X51325000Y-127462500D01*
X51326204Y-127437996D01*
X51329804Y-127413727D01*
X51335765Y-127389929D01*
X51344030Y-127366829D01*
X51354520Y-127344651D01*
X51367133Y-127323607D01*
X51381747Y-127303902D01*
X51398223Y-127285723D01*
X51416402Y-127269247D01*
X51436107Y-127254633D01*
X51457151Y-127242020D01*
X51479329Y-127231530D01*
X51502429Y-127223265D01*
X51526227Y-127217304D01*
X51550496Y-127213704D01*
X51575000Y-127212500D01*
X52825000Y-127212500D01*
X52849504Y-127213704D01*
X52849504Y-127213704D01*
G37*
D18*
G04 #@! TD*
G04 #@! TO.P,R2,1*
G04 #@! TO.N,Net-(R2-Pad1)*
X52200000Y-127925000D03*
D16*
G04 #@! TO.N,Net-(R1-Pad1)*
G04 #@! TO.C,R1*
G36*
X49599504Y-124238704D02*
X49623773Y-124242304D01*
X49647571Y-124248265D01*
X49670671Y-124256530D01*
X49692849Y-124267020D01*
X49713893Y-124279633D01*
X49733598Y-124294247D01*
X49751777Y-124310723D01*
X49768253Y-124328902D01*
X49782867Y-124348607D01*
X49795480Y-124369651D01*
X49805970Y-124391829D01*
X49814235Y-124414929D01*
X49820196Y-124438727D01*
X49823796Y-124462996D01*
X49825000Y-124487500D01*
X49825000Y-125412500D01*
X49823796Y-125437004D01*
X49820196Y-125461273D01*
X49814235Y-125485071D01*
X49805970Y-125508171D01*
X49795480Y-125530349D01*
X49782867Y-125551393D01*
X49768253Y-125571098D01*
X49751777Y-125589277D01*
X49733598Y-125605753D01*
X49713893Y-125620367D01*
X49692849Y-125632980D01*
X49670671Y-125643470D01*
X49647571Y-125651735D01*
X49623773Y-125657696D01*
X49599504Y-125661296D01*
X49575000Y-125662500D01*
X48325000Y-125662500D01*
X48300496Y-125661296D01*
X48276227Y-125657696D01*
X48252429Y-125651735D01*
X48229329Y-125643470D01*
X48207151Y-125632980D01*
X48186107Y-125620367D01*
X48166402Y-125605753D01*
X48148223Y-125589277D01*
X48131747Y-125571098D01*
X48117133Y-125551393D01*
X48104520Y-125530349D01*
X48094030Y-125508171D01*
X48085765Y-125485071D01*
X48079804Y-125461273D01*
X48076204Y-125437004D01*
X48075000Y-125412500D01*
X48075000Y-124487500D01*
X48076204Y-124462996D01*
X48079804Y-124438727D01*
X48085765Y-124414929D01*
X48094030Y-124391829D01*
X48104520Y-124369651D01*
X48117133Y-124348607D01*
X48131747Y-124328902D01*
X48148223Y-124310723D01*
X48166402Y-124294247D01*
X48186107Y-124279633D01*
X48207151Y-124267020D01*
X48229329Y-124256530D01*
X48252429Y-124248265D01*
X48276227Y-124242304D01*
X48300496Y-124238704D01*
X48325000Y-124237500D01*
X49575000Y-124237500D01*
X49599504Y-124238704D01*
X49599504Y-124238704D01*
G37*
D18*
G04 #@! TD*
G04 #@! TO.P,R1,1*
G04 #@! TO.N,Net-(R1-Pad1)*
X48950000Y-124950000D03*
D16*
G04 #@! TO.N,Net-(D1-Pad2)*
G04 #@! TO.C,R1*
G36*
X49599504Y-127213704D02*
X49623773Y-127217304D01*
X49647571Y-127223265D01*
X49670671Y-127231530D01*
X49692849Y-127242020D01*
X49713893Y-127254633D01*
X49733598Y-127269247D01*
X49751777Y-127285723D01*
X49768253Y-127303902D01*
X49782867Y-127323607D01*
X49795480Y-127344651D01*
X49805970Y-127366829D01*
X49814235Y-127389929D01*
X49820196Y-127413727D01*
X49823796Y-127437996D01*
X49825000Y-127462500D01*
X49825000Y-128387500D01*
X49823796Y-128412004D01*
X49820196Y-128436273D01*
X49814235Y-128460071D01*
X49805970Y-128483171D01*
X49795480Y-128505349D01*
X49782867Y-128526393D01*
X49768253Y-128546098D01*
X49751777Y-128564277D01*
X49733598Y-128580753D01*
X49713893Y-128595367D01*
X49692849Y-128607980D01*
X49670671Y-128618470D01*
X49647571Y-128626735D01*
X49623773Y-128632696D01*
X49599504Y-128636296D01*
X49575000Y-128637500D01*
X48325000Y-128637500D01*
X48300496Y-128636296D01*
X48276227Y-128632696D01*
X48252429Y-128626735D01*
X48229329Y-128618470D01*
X48207151Y-128607980D01*
X48186107Y-128595367D01*
X48166402Y-128580753D01*
X48148223Y-128564277D01*
X48131747Y-128546098D01*
X48117133Y-128526393D01*
X48104520Y-128505349D01*
X48094030Y-128483171D01*
X48085765Y-128460071D01*
X48079804Y-128436273D01*
X48076204Y-128412004D01*
X48075000Y-128387500D01*
X48075000Y-127462500D01*
X48076204Y-127437996D01*
X48079804Y-127413727D01*
X48085765Y-127389929D01*
X48094030Y-127366829D01*
X48104520Y-127344651D01*
X48117133Y-127323607D01*
X48131747Y-127303902D01*
X48148223Y-127285723D01*
X48166402Y-127269247D01*
X48186107Y-127254633D01*
X48207151Y-127242020D01*
X48229329Y-127231530D01*
X48252429Y-127223265D01*
X48276227Y-127217304D01*
X48300496Y-127213704D01*
X48325000Y-127212500D01*
X49575000Y-127212500D01*
X49599504Y-127213704D01*
X49599504Y-127213704D01*
G37*
D18*
G04 #@! TD*
G04 #@! TO.P,R1,2*
G04 #@! TO.N,Net-(D1-Pad2)*
X48950000Y-127925000D03*
D19*
G04 #@! TO.P,J5,2*
G04 #@! TO.N,GND*
X73450000Y-133200000D03*
G04 #@! TO.P,J5,1*
G04 #@! TO.N,VCC*
X70910000Y-133200000D03*
G04 #@! TD*
G04 #@! TO.P,J12,1*
G04 #@! TO.N,+12V*
X80430000Y-115200000D03*
G04 #@! TO.P,J12,2*
G04 #@! TO.N,GND*
X82970000Y-115200000D03*
G04 #@! TD*
G04 #@! TO.P,J11,2*
G04 #@! TO.N,GND*
X81740000Y-133200000D03*
G04 #@! TO.P,J11,1*
G04 #@! TO.N,VCC*
X79200000Y-133200000D03*
G04 #@! TD*
G04 #@! TO.P,J10,1*
G04 #@! TO.N,+5V*
X48360000Y-105850000D03*
G04 #@! TO.P,J10,2*
G04 #@! TO.N,GND*
X50900000Y-105850000D03*
G04 #@! TD*
G04 #@! TO.P,J9,2*
G04 #@! TO.N,GND*
X72720000Y-115200000D03*
G04 #@! TO.P,J9,1*
G04 #@! TO.N,+12V*
X70180000Y-115200000D03*
G04 #@! TD*
G04 #@! TO.P,J8,1*
G04 #@! TO.N,VCC*
X79200000Y-124950000D03*
G04 #@! TO.P,J8,2*
G04 #@! TO.N,GND*
X81740000Y-124950000D03*
G04 #@! TD*
G04 #@! TO.P,J7,2*
G04 #@! TO.N,GND*
X57400000Y-105850000D03*
G04 #@! TO.P,J7,1*
G04 #@! TO.N,+5V*
X54860000Y-105850000D03*
G04 #@! TD*
G04 #@! TO.P,J6,1*
G04 #@! TO.N,+12V*
X57180000Y-115200000D03*
G04 #@! TO.P,J6,2*
G04 #@! TO.N,GND*
X59720000Y-115200000D03*
G04 #@! TD*
G04 #@! TO.P,J4,2*
G04 #@! TO.N,GND*
X63940000Y-105850000D03*
G04 #@! TO.P,J4,1*
G04 #@! TO.N,+5V*
X61400000Y-105850000D03*
G04 #@! TD*
G04 #@! TO.P,J3,1*
G04 #@! TO.N,+12V*
X63680000Y-115200000D03*
G04 #@! TO.P,J3,2*
G04 #@! TO.N,GND*
X66220000Y-115200000D03*
G04 #@! TD*
G04 #@! TO.P,J2,2*
G04 #@! TO.N,GND*
X65200000Y-124950000D03*
G04 #@! TO.P,J2,1*
G04 #@! TO.N,VCC*
X62660000Y-124950000D03*
G04 #@! TD*
G04 #@! TO.P,J1,1*
G04 #@! TO.N,VCC*
X62700000Y-133200000D03*
G04 #@! TO.P,J1,2*
G04 #@! TO.N,GND*
X65240000Y-133200000D03*
G04 #@! TD*
G04 #@! TO.P,J14,2*
G04 #@! TO.N,GND*
X73470000Y-124950000D03*
G04 #@! TO.P,J14,1*
G04 #@! TO.N,VCC*
X70930000Y-124950000D03*
G04 #@! TD*
G04 #@! TO.P,J15,1*
G04 #@! TO.N,+5V*
X80410000Y-106200000D03*
G04 #@! TO.P,J15,2*
G04 #@! TO.N,GND*
X82950000Y-106200000D03*
G04 #@! TD*
G04 #@! TO.P,J16,2*
G04 #@! TO.N,GND*
X181700000Y-133950000D03*
G04 #@! TO.P,J16,1*
G04 #@! TO.N,Net-(F1-Pad1)*
X179160000Y-133950000D03*
G04 #@! TD*
G04 #@! TO.P,J13,1*
G04 #@! TO.N,+5V*
X67880000Y-105850000D03*
G04 #@! TO.P,J13,2*
G04 #@! TO.N,GND*
X70420000Y-105850000D03*
G04 #@! TD*
D20*
G04 #@! TO.N,GND*
X58950000Y-124950000D03*
X57950000Y-124950000D03*
G04 #@! TD*
D21*
G04 #@! TO.N,GND*
X55450000Y-124950000D02*
X57950000Y-124950000D01*
X58950000Y-124950000D02*
X58950000Y-124950000D01*
X57950000Y-124950000D02*
X58950000Y-124950000D01*
G04 #@! TO.N,Net-(R1-Pad1)*
X48950000Y-124950000D02*
X52200000Y-124950000D01*
G04 #@! TO.N,Net-(D1-Pad2)*
X48950000Y-127925000D02*
X48950000Y-131450000D01*
G04 #@! TO.N,Net-(R2-Pad1)*
X52200000Y-127925000D02*
X55450000Y-127925000D01*
G04 #@! TD*
D22*
G04 #@! TO.N,Net-(F1-Pad2)*
G36*
X176184485Y-102891880D02*
X176635952Y-103078884D01*
X177023636Y-103376364D01*
X177321116Y-103764048D01*
X177508120Y-104215515D01*
X177510050Y-104230172D01*
X177450106Y-104085455D01*
X177141724Y-103937882D01*
X175879605Y-105200000D01*
X177141724Y-106462118D01*
X177450106Y-106314545D01*
X177573000Y-105998373D01*
X177573000Y-114691672D01*
X177508120Y-115184485D01*
X177321116Y-115635952D01*
X177023636Y-116023636D01*
X176635952Y-116321116D01*
X176184485Y-116508120D01*
X175691672Y-116573000D01*
X167458328Y-116573000D01*
X166965515Y-116508120D01*
X166514048Y-116321116D01*
X166126364Y-116023636D01*
X165828884Y-115635952D01*
X165819779Y-115613970D01*
X169615635Y-115613970D01*
X169775418Y-115932739D01*
X170566187Y-116242723D01*
X171415387Y-116226497D01*
X172124582Y-115932739D01*
X172284365Y-115613970D01*
X170950000Y-114279605D01*
X169615635Y-115613970D01*
X165819779Y-115613970D01*
X165641880Y-115184485D01*
X165577000Y-114691672D01*
X165577000Y-113716187D01*
X168807277Y-113716187D01*
X168823503Y-114565387D01*
X169117261Y-115274582D01*
X169436030Y-115434365D01*
X170770395Y-114100000D01*
X171129605Y-114100000D01*
X172463970Y-115434365D01*
X172782739Y-115274582D01*
X173092723Y-114483813D01*
X173076497Y-113634613D01*
X172782739Y-112925418D01*
X172463970Y-112765635D01*
X171129605Y-114100000D01*
X170770395Y-114100000D01*
X169436030Y-112765635D01*
X169117261Y-112925418D01*
X168807277Y-113716187D01*
X165577000Y-113716187D01*
X165577000Y-113208328D01*
X165641880Y-112715515D01*
X165695514Y-112586030D01*
X169615635Y-112586030D01*
X170950000Y-113920395D01*
X172284365Y-112586030D01*
X172124582Y-112267261D01*
X171333813Y-111957277D01*
X170484613Y-111973503D01*
X169775418Y-112267261D01*
X169615635Y-112586030D01*
X165695514Y-112586030D01*
X165828884Y-112264048D01*
X166126364Y-111876364D01*
X166514048Y-111578884D01*
X166965515Y-111391880D01*
X167458328Y-111327000D01*
X171094449Y-111327000D01*
X171113051Y-111325630D01*
X171692619Y-111239814D01*
X171728226Y-111229033D01*
X172258058Y-110978950D01*
X172274296Y-110969771D01*
X172520447Y-110805670D01*
X172536735Y-110792768D01*
X172937973Y-110417623D01*
X172963211Y-110384781D01*
X173222401Y-109900481D01*
X173235728Y-109861265D01*
X173325300Y-109319322D01*
X173327000Y-109298612D01*
X173327000Y-106641724D01*
X174437882Y-106641724D01*
X174585455Y-106950106D01*
X175340031Y-107243405D01*
X176149409Y-107225614D01*
X176814545Y-106950106D01*
X176962118Y-106641724D01*
X175700000Y-105379605D01*
X174437882Y-106641724D01*
X173327000Y-106641724D01*
X173327000Y-104840031D01*
X173656595Y-104840031D01*
X173674386Y-105649409D01*
X173949894Y-106314545D01*
X174258276Y-106462118D01*
X175520395Y-105200000D01*
X174258276Y-103937882D01*
X173949894Y-104085455D01*
X173656595Y-104840031D01*
X173327000Y-104840031D01*
X173327000Y-104708328D01*
X173391880Y-104215515D01*
X173578884Y-103764048D01*
X173583313Y-103758276D01*
X174437882Y-103758276D01*
X175700000Y-105020395D01*
X176962118Y-103758276D01*
X176814545Y-103449894D01*
X176059969Y-103156595D01*
X175250591Y-103174386D01*
X174585455Y-103449894D01*
X174437882Y-103758276D01*
X173583313Y-103758276D01*
X173876364Y-103376364D01*
X174264048Y-103078884D01*
X174715515Y-102891880D01*
X175208328Y-102827000D01*
X175691672Y-102827000D01*
X176184485Y-102891880D01*
X176184485Y-102891880D01*
G37*
X176184485Y-102891880D02*
X176635952Y-103078884D01*
X177023636Y-103376364D01*
X177321116Y-103764048D01*
X177508120Y-104215515D01*
X177510050Y-104230172D01*
X177450106Y-104085455D01*
X177141724Y-103937882D01*
X175879605Y-105200000D01*
X177141724Y-106462118D01*
X177450106Y-106314545D01*
X177573000Y-105998373D01*
X177573000Y-114691672D01*
X177508120Y-115184485D01*
X177321116Y-115635952D01*
X177023636Y-116023636D01*
X176635952Y-116321116D01*
X176184485Y-116508120D01*
X175691672Y-116573000D01*
X167458328Y-116573000D01*
X166965515Y-116508120D01*
X166514048Y-116321116D01*
X166126364Y-116023636D01*
X165828884Y-115635952D01*
X165819779Y-115613970D01*
X169615635Y-115613970D01*
X169775418Y-115932739D01*
X170566187Y-116242723D01*
X171415387Y-116226497D01*
X172124582Y-115932739D01*
X172284365Y-115613970D01*
X170950000Y-114279605D01*
X169615635Y-115613970D01*
X165819779Y-115613970D01*
X165641880Y-115184485D01*
X165577000Y-114691672D01*
X165577000Y-113716187D01*
X168807277Y-113716187D01*
X168823503Y-114565387D01*
X169117261Y-115274582D01*
X169436030Y-115434365D01*
X170770395Y-114100000D01*
X171129605Y-114100000D01*
X172463970Y-115434365D01*
X172782739Y-115274582D01*
X173092723Y-114483813D01*
X173076497Y-113634613D01*
X172782739Y-112925418D01*
X172463970Y-112765635D01*
X171129605Y-114100000D01*
X170770395Y-114100000D01*
X169436030Y-112765635D01*
X169117261Y-112925418D01*
X168807277Y-113716187D01*
X165577000Y-113716187D01*
X165577000Y-113208328D01*
X165641880Y-112715515D01*
X165695514Y-112586030D01*
X169615635Y-112586030D01*
X170950000Y-113920395D01*
X172284365Y-112586030D01*
X172124582Y-112267261D01*
X171333813Y-111957277D01*
X170484613Y-111973503D01*
X169775418Y-112267261D01*
X169615635Y-112586030D01*
X165695514Y-112586030D01*
X165828884Y-112264048D01*
X166126364Y-111876364D01*
X166514048Y-111578884D01*
X166965515Y-111391880D01*
X167458328Y-111327000D01*
X171094449Y-111327000D01*
X171113051Y-111325630D01*
X171692619Y-111239814D01*
X171728226Y-111229033D01*
X172258058Y-110978950D01*
X172274296Y-110969771D01*
X172520447Y-110805670D01*
X172536735Y-110792768D01*
X172937973Y-110417623D01*
X172963211Y-110384781D01*
X173222401Y-109900481D01*
X173235728Y-109861265D01*
X173325300Y-109319322D01*
X173327000Y-109298612D01*
X173327000Y-106641724D01*
X174437882Y-106641724D01*
X174585455Y-106950106D01*
X175340031Y-107243405D01*
X176149409Y-107225614D01*
X176814545Y-106950106D01*
X176962118Y-106641724D01*
X175700000Y-105379605D01*
X174437882Y-106641724D01*
X173327000Y-106641724D01*
X173327000Y-104840031D01*
X173656595Y-104840031D01*
X173674386Y-105649409D01*
X173949894Y-106314545D01*
X174258276Y-106462118D01*
X175520395Y-105200000D01*
X174258276Y-103937882D01*
X173949894Y-104085455D01*
X173656595Y-104840031D01*
X173327000Y-104840031D01*
X173327000Y-104708328D01*
X173391880Y-104215515D01*
X173578884Y-103764048D01*
X173583313Y-103758276D01*
X174437882Y-103758276D01*
X175700000Y-105020395D01*
X176962118Y-103758276D01*
X176814545Y-103449894D01*
X176059969Y-103156595D01*
X175250591Y-103174386D01*
X174585455Y-103449894D01*
X174437882Y-103758276D01*
X173583313Y-103758276D01*
X173876364Y-103376364D01*
X174264048Y-103078884D01*
X174715515Y-102891880D01*
X175208328Y-102827000D01*
X175691672Y-102827000D01*
X176184485Y-102891880D01*
G04 #@! TO.N,VCC*
G36*
X169684485Y-100141880D02*
X170135952Y-100328884D01*
X170523636Y-100626364D01*
X170821116Y-101014048D01*
X171008120Y-101465515D01*
X171073000Y-101958328D01*
X171073000Y-108441672D01*
X171008120Y-108934485D01*
X170821116Y-109385952D01*
X170523636Y-109773636D01*
X170135952Y-110071116D01*
X169684485Y-110258120D01*
X169191672Y-110323000D01*
X158950000Y-110323000D01*
X158933423Y-110324086D01*
X158415785Y-110392234D01*
X158383761Y-110400815D01*
X157901399Y-110600616D01*
X157872687Y-110617193D01*
X157458473Y-110935030D01*
X157435030Y-110958473D01*
X157117193Y-111372687D01*
X157100616Y-111401399D01*
X156900815Y-111883761D01*
X156892234Y-111915785D01*
X156824086Y-112433423D01*
X156823000Y-112450000D01*
X156823000Y-115941672D01*
X156758120Y-116434485D01*
X156571116Y-116885952D01*
X156273636Y-117273636D01*
X155885952Y-117571116D01*
X155434485Y-117758120D01*
X154941672Y-117823000D01*
X99450000Y-117823000D01*
X99433423Y-117824086D01*
X98915785Y-117892234D01*
X98883761Y-117900815D01*
X98401399Y-118100616D01*
X98372687Y-118117193D01*
X97958473Y-118435030D01*
X97935030Y-118458473D01*
X97617193Y-118872687D01*
X97600616Y-118901399D01*
X97400815Y-119383761D01*
X97392234Y-119415785D01*
X97324086Y-119933423D01*
X97323000Y-119950000D01*
X97323000Y-135941672D01*
X97258120Y-136434485D01*
X97071116Y-136885952D01*
X96773636Y-137273636D01*
X96385952Y-137571116D01*
X95934485Y-137758120D01*
X95441672Y-137823000D01*
X90987767Y-137823000D01*
X91594741Y-137216026D01*
X91935000Y-136394569D01*
X91935000Y-135505431D01*
X91594741Y-134683974D01*
X90966026Y-134055259D01*
X90144569Y-133715000D01*
X89255431Y-133715000D01*
X88433974Y-134055259D01*
X87805259Y-134683974D01*
X87465000Y-135505431D01*
X87465000Y-136394569D01*
X87805259Y-137216026D01*
X88412233Y-137823000D01*
X47458328Y-137823000D01*
X46965515Y-137758120D01*
X46514048Y-137571116D01*
X46126364Y-137273636D01*
X45828884Y-136885952D01*
X45641880Y-136434485D01*
X45577000Y-135941672D01*
X45577000Y-133327000D01*
X61164570Y-133327000D01*
X61164570Y-134176630D01*
X61330048Y-134754546D01*
X61704089Y-135225145D01*
X62229748Y-135516783D01*
X62335192Y-135541093D01*
X62573000Y-135420440D01*
X62573000Y-133327000D01*
X61164570Y-133327000D01*
X45577000Y-133327000D01*
X45577000Y-127462500D01*
X47427560Y-127462500D01*
X47427560Y-128387500D01*
X47495874Y-128730935D01*
X47690414Y-129022086D01*
X47815000Y-129105332D01*
X47815001Y-130378109D01*
X47745874Y-130481565D01*
X47677560Y-130825000D01*
X47677560Y-132075000D01*
X47745874Y-132418435D01*
X47940414Y-132709586D01*
X48231565Y-132904126D01*
X48575000Y-132972440D01*
X49325000Y-132972440D01*
X49668435Y-132904126D01*
X49959586Y-132709586D01*
X50154126Y-132418435D01*
X50222440Y-132075000D01*
X50222440Y-131735750D01*
X50490000Y-131735750D01*
X50490000Y-132451310D01*
X50586673Y-132684699D01*
X50765302Y-132863327D01*
X50998691Y-132960000D01*
X51464250Y-132960000D01*
X51623000Y-132801250D01*
X51623000Y-131577000D01*
X51877000Y-131577000D01*
X51877000Y-132801250D01*
X52035750Y-132960000D01*
X52501309Y-132960000D01*
X52734698Y-132863327D01*
X52913327Y-132684699D01*
X53010000Y-132451310D01*
X53010000Y-132223370D01*
X61164570Y-132223370D01*
X61164570Y-133073000D01*
X62573000Y-133073000D01*
X62573000Y-130979560D01*
X62827000Y-130979560D01*
X62827000Y-133073000D01*
X62847000Y-133073000D01*
X62847000Y-133327000D01*
X62827000Y-133327000D01*
X62827000Y-135420440D01*
X63064808Y-135541093D01*
X63170252Y-135516783D01*
X63695911Y-135225145D01*
X63958261Y-134895070D01*
X64133018Y-135156613D01*
X64640906Y-135495973D01*
X65240000Y-135615140D01*
X65839095Y-135495973D01*
X66346983Y-135156613D01*
X66686343Y-134648725D01*
X66775430Y-134200853D01*
X66775430Y-133327000D01*
X69374570Y-133327000D01*
X69374570Y-134176630D01*
X69540048Y-134754546D01*
X69914089Y-135225145D01*
X70439748Y-135516783D01*
X70545192Y-135541093D01*
X70783000Y-135420440D01*
X70783000Y-133327000D01*
X69374570Y-133327000D01*
X66775430Y-133327000D01*
X66775430Y-132223370D01*
X69374570Y-132223370D01*
X69374570Y-133073000D01*
X70783000Y-133073000D01*
X70783000Y-130979560D01*
X71037000Y-130979560D01*
X71037000Y-133073000D01*
X71057000Y-133073000D01*
X71057000Y-133327000D01*
X71037000Y-133327000D01*
X71037000Y-135420440D01*
X71274808Y-135541093D01*
X71380252Y-135516783D01*
X71905911Y-135225145D01*
X72168261Y-134895070D01*
X72343018Y-135156613D01*
X72850906Y-135495973D01*
X73450000Y-135615140D01*
X74049095Y-135495973D01*
X74556983Y-135156613D01*
X74896343Y-134648725D01*
X74985430Y-134200853D01*
X74985430Y-133327000D01*
X77664570Y-133327000D01*
X77664570Y-134176630D01*
X77830048Y-134754546D01*
X78204089Y-135225145D01*
X78729748Y-135516783D01*
X78835192Y-135541093D01*
X79073000Y-135420440D01*
X79073000Y-133327000D01*
X77664570Y-133327000D01*
X74985430Y-133327000D01*
X74985430Y-132223370D01*
X77664570Y-132223370D01*
X77664570Y-133073000D01*
X79073000Y-133073000D01*
X79073000Y-130979560D01*
X79327000Y-130979560D01*
X79327000Y-133073000D01*
X79347000Y-133073000D01*
X79347000Y-133327000D01*
X79327000Y-133327000D01*
X79327000Y-135420440D01*
X79564808Y-135541093D01*
X79670252Y-135516783D01*
X80195911Y-135225145D01*
X80458261Y-134895070D01*
X80633018Y-135156613D01*
X81140906Y-135495973D01*
X81740000Y-135615140D01*
X82339095Y-135495973D01*
X82846983Y-135156613D01*
X83186343Y-134648725D01*
X83275430Y-134200853D01*
X83275430Y-132199147D01*
X83186343Y-131751275D01*
X82846983Y-131243387D01*
X82339094Y-130904027D01*
X81740000Y-130784860D01*
X81140905Y-130904027D01*
X80633017Y-131243387D01*
X80458260Y-131504929D01*
X80195911Y-131174855D01*
X79670252Y-130883217D01*
X79564808Y-130858907D01*
X79327000Y-130979560D01*
X79073000Y-130979560D01*
X78835192Y-130858907D01*
X78729748Y-130883217D01*
X78204089Y-131174855D01*
X77830048Y-131645454D01*
X77664570Y-132223370D01*
X74985430Y-132223370D01*
X74985430Y-132199147D01*
X74896343Y-131751275D01*
X74556983Y-131243387D01*
X74049094Y-130904027D01*
X73450000Y-130784860D01*
X72850905Y-130904027D01*
X72343017Y-131243387D01*
X72168260Y-131504929D01*
X71905911Y-131174855D01*
X71380252Y-130883217D01*
X71274808Y-130858907D01*
X71037000Y-130979560D01*
X70783000Y-130979560D01*
X70545192Y-130858907D01*
X70439748Y-130883217D01*
X69914089Y-131174855D01*
X69540048Y-131645454D01*
X69374570Y-132223370D01*
X66775430Y-132223370D01*
X66775430Y-132199147D01*
X66686343Y-131751275D01*
X66346983Y-131243387D01*
X65839094Y-130904027D01*
X65240000Y-130784860D01*
X64640905Y-130904027D01*
X64133017Y-131243387D01*
X63958260Y-131504929D01*
X63695911Y-131174855D01*
X63170252Y-130883217D01*
X63064808Y-130858907D01*
X62827000Y-130979560D01*
X62573000Y-130979560D01*
X62335192Y-130858907D01*
X62229748Y-130883217D01*
X61704089Y-131174855D01*
X61330048Y-131645454D01*
X61164570Y-132223370D01*
X53010000Y-132223370D01*
X53010000Y-131735750D01*
X52851250Y-131577000D01*
X51877000Y-131577000D01*
X51623000Y-131577000D01*
X50648750Y-131577000D01*
X50490000Y-131735750D01*
X50222440Y-131735750D01*
X50222440Y-130825000D01*
X50154126Y-130481565D01*
X50132160Y-130448690D01*
X50490000Y-130448690D01*
X50490000Y-131164250D01*
X50648750Y-131323000D01*
X51623000Y-131323000D01*
X51623000Y-130098750D01*
X51877000Y-130098750D01*
X51877000Y-131323000D01*
X52851250Y-131323000D01*
X53010000Y-131164250D01*
X53010000Y-130448690D01*
X52913327Y-130215301D01*
X52734698Y-130036673D01*
X52501309Y-129940000D01*
X52035750Y-129940000D01*
X51877000Y-130098750D01*
X51623000Y-130098750D01*
X51464250Y-129940000D01*
X50998691Y-129940000D01*
X50765302Y-130036673D01*
X50586673Y-130215301D01*
X50490000Y-130448690D01*
X50132160Y-130448690D01*
X50085000Y-130378110D01*
X50085000Y-129105331D01*
X50209586Y-129022086D01*
X50404126Y-128730935D01*
X50472440Y-128387500D01*
X50472440Y-127462500D01*
X50677560Y-127462500D01*
X50677560Y-128387500D01*
X50745874Y-128730935D01*
X50940414Y-129022086D01*
X51231565Y-129216626D01*
X51575000Y-129284940D01*
X52825000Y-129284940D01*
X53168435Y-129216626D01*
X53402843Y-129060000D01*
X54247157Y-129060000D01*
X54481565Y-129216626D01*
X54825000Y-129284940D01*
X56075000Y-129284940D01*
X56418435Y-129216626D01*
X56709586Y-129022086D01*
X56904126Y-128730935D01*
X56972440Y-128387500D01*
X56972440Y-127462500D01*
X56904126Y-127119065D01*
X56709586Y-126827914D01*
X56418435Y-126633374D01*
X56075000Y-126565060D01*
X54825000Y-126565060D01*
X54481565Y-126633374D01*
X54247157Y-126790000D01*
X53402843Y-126790000D01*
X53168435Y-126633374D01*
X52825000Y-126565060D01*
X51575000Y-126565060D01*
X51231565Y-126633374D01*
X50940414Y-126827914D01*
X50745874Y-127119065D01*
X50677560Y-127462500D01*
X50472440Y-127462500D01*
X50404126Y-127119065D01*
X50209586Y-126827914D01*
X49918435Y-126633374D01*
X49575000Y-126565060D01*
X48325000Y-126565060D01*
X47981565Y-126633374D01*
X47690414Y-126827914D01*
X47495874Y-127119065D01*
X47427560Y-127462500D01*
X45577000Y-127462500D01*
X45577000Y-124487500D01*
X47427560Y-124487500D01*
X47427560Y-125412500D01*
X47495874Y-125755935D01*
X47690414Y-126047086D01*
X47981565Y-126241626D01*
X48325000Y-126309940D01*
X49575000Y-126309940D01*
X49918435Y-126241626D01*
X50152843Y-126085000D01*
X50997157Y-126085000D01*
X51231565Y-126241626D01*
X51575000Y-126309940D01*
X52825000Y-126309940D01*
X53168435Y-126241626D01*
X53459586Y-126047086D01*
X53654126Y-125755935D01*
X53722440Y-125412500D01*
X53722440Y-124487500D01*
X53927560Y-124487500D01*
X53927560Y-125412500D01*
X53995874Y-125755935D01*
X54190414Y-126047086D01*
X54481565Y-126241626D01*
X54825000Y-126309940D01*
X56075000Y-126309940D01*
X56418435Y-126241626D01*
X56652843Y-126085000D01*
X59061783Y-126085000D01*
X59392855Y-126019146D01*
X59768289Y-125768289D01*
X60019146Y-125392855D01*
X60081973Y-125077000D01*
X61124570Y-125077000D01*
X61124570Y-125926630D01*
X61290048Y-126504546D01*
X61664089Y-126975145D01*
X62189748Y-127266783D01*
X62295192Y-127291093D01*
X62533000Y-127170440D01*
X62533000Y-125077000D01*
X61124570Y-125077000D01*
X60081973Y-125077000D01*
X60107235Y-124950000D01*
X60019146Y-124507145D01*
X59768289Y-124131711D01*
X59531315Y-123973370D01*
X61124570Y-123973370D01*
X61124570Y-124823000D01*
X62533000Y-124823000D01*
X62533000Y-122729560D01*
X62787000Y-122729560D01*
X62787000Y-124823000D01*
X62807000Y-124823000D01*
X62807000Y-125077000D01*
X62787000Y-125077000D01*
X62787000Y-127170440D01*
X63024808Y-127291093D01*
X63130252Y-127266783D01*
X63655911Y-126975145D01*
X63918261Y-126645070D01*
X64093018Y-126906613D01*
X64600906Y-127245973D01*
X65200000Y-127365140D01*
X65799095Y-127245973D01*
X66306983Y-126906613D01*
X66646343Y-126398725D01*
X66735430Y-125950853D01*
X66735430Y-125077000D01*
X69394570Y-125077000D01*
X69394570Y-125926630D01*
X69560048Y-126504546D01*
X69934089Y-126975145D01*
X70459748Y-127266783D01*
X70565192Y-127291093D01*
X70803000Y-127170440D01*
X70803000Y-125077000D01*
X69394570Y-125077000D01*
X66735430Y-125077000D01*
X66735430Y-123973370D01*
X69394570Y-123973370D01*
X69394570Y-124823000D01*
X70803000Y-124823000D01*
X70803000Y-122729560D01*
X71057000Y-122729560D01*
X71057000Y-124823000D01*
X71077000Y-124823000D01*
X71077000Y-125077000D01*
X71057000Y-125077000D01*
X71057000Y-127170440D01*
X71294808Y-127291093D01*
X71400252Y-127266783D01*
X71925911Y-126975145D01*
X72188261Y-126645070D01*
X72363018Y-126906613D01*
X72870906Y-127245973D01*
X73470000Y-127365140D01*
X74069095Y-127245973D01*
X74576983Y-126906613D01*
X74916343Y-126398725D01*
X75005430Y-125950853D01*
X75005430Y-125077000D01*
X77664570Y-125077000D01*
X77664570Y-125926630D01*
X77830048Y-126504546D01*
X78204089Y-126975145D01*
X78729748Y-127266783D01*
X78835192Y-127291093D01*
X79073000Y-127170440D01*
X79073000Y-125077000D01*
X77664570Y-125077000D01*
X75005430Y-125077000D01*
X75005430Y-123973370D01*
X77664570Y-123973370D01*
X77664570Y-124823000D01*
X79073000Y-124823000D01*
X79073000Y-122729560D01*
X79327000Y-122729560D01*
X79327000Y-124823000D01*
X79347000Y-124823000D01*
X79347000Y-125077000D01*
X79327000Y-125077000D01*
X79327000Y-127170440D01*
X79564808Y-127291093D01*
X79670252Y-127266783D01*
X80195911Y-126975145D01*
X80458261Y-126645070D01*
X80633018Y-126906613D01*
X81140906Y-127245973D01*
X81740000Y-127365140D01*
X82339095Y-127245973D01*
X82846983Y-126906613D01*
X83186343Y-126398725D01*
X83275430Y-125950853D01*
X83275430Y-123949147D01*
X83186343Y-123501275D01*
X82846983Y-122993387D01*
X82339094Y-122654027D01*
X81740000Y-122534860D01*
X81140905Y-122654027D01*
X80633017Y-122993387D01*
X80458260Y-123254929D01*
X80195911Y-122924855D01*
X79670252Y-122633217D01*
X79564808Y-122608907D01*
X79327000Y-122729560D01*
X79073000Y-122729560D01*
X78835192Y-122608907D01*
X78729748Y-122633217D01*
X78204089Y-122924855D01*
X77830048Y-123395454D01*
X77664570Y-123973370D01*
X75005430Y-123973370D01*
X75005430Y-123949147D01*
X74916343Y-123501275D01*
X74576983Y-122993387D01*
X74069094Y-122654027D01*
X73470000Y-122534860D01*
X72870905Y-122654027D01*
X72363017Y-122993387D01*
X72188260Y-123254929D01*
X71925911Y-122924855D01*
X71400252Y-122633217D01*
X71294808Y-122608907D01*
X71057000Y-122729560D01*
X70803000Y-122729560D01*
X70565192Y-122608907D01*
X70459748Y-122633217D01*
X69934089Y-122924855D01*
X69560048Y-123395454D01*
X69394570Y-123973370D01*
X66735430Y-123973370D01*
X66735430Y-123949147D01*
X66646343Y-123501275D01*
X66306983Y-122993387D01*
X65799094Y-122654027D01*
X65200000Y-122534860D01*
X64600905Y-122654027D01*
X64093017Y-122993387D01*
X63918260Y-123254929D01*
X63655911Y-122924855D01*
X63130252Y-122633217D01*
X63024808Y-122608907D01*
X62787000Y-122729560D01*
X62533000Y-122729560D01*
X62295192Y-122608907D01*
X62189748Y-122633217D01*
X61664089Y-122924855D01*
X61290048Y-123395454D01*
X61124570Y-123973370D01*
X59531315Y-123973370D01*
X59392855Y-123880854D01*
X59061783Y-123815000D01*
X56652843Y-123815000D01*
X56418435Y-123658374D01*
X56075000Y-123590060D01*
X54825000Y-123590060D01*
X54481565Y-123658374D01*
X54190414Y-123852914D01*
X53995874Y-124144065D01*
X53927560Y-124487500D01*
X53722440Y-124487500D01*
X53654126Y-124144065D01*
X53459586Y-123852914D01*
X53168435Y-123658374D01*
X52825000Y-123590060D01*
X51575000Y-123590060D01*
X51231565Y-123658374D01*
X50997157Y-123815000D01*
X50152843Y-123815000D01*
X49918435Y-123658374D01*
X49575000Y-123590060D01*
X48325000Y-123590060D01*
X47981565Y-123658374D01*
X47690414Y-123852914D01*
X47495874Y-124144065D01*
X47427560Y-124487500D01*
X45577000Y-124487500D01*
X45577000Y-122708328D01*
X45641880Y-122215515D01*
X45828884Y-121764048D01*
X46126364Y-121376364D01*
X46514048Y-121078884D01*
X46965515Y-120891880D01*
X47458328Y-120827000D01*
X85450000Y-120827000D01*
X85466577Y-120825914D01*
X85984215Y-120757766D01*
X86016239Y-120749185D01*
X86498601Y-120549384D01*
X86527313Y-120532807D01*
X86941527Y-120214970D01*
X86964970Y-120191527D01*
X87282807Y-119777313D01*
X87299384Y-119748601D01*
X87499185Y-119266239D01*
X87507766Y-119234215D01*
X87575914Y-118716577D01*
X87577000Y-118700000D01*
X87577000Y-113485750D01*
X103315000Y-113485750D01*
X103315000Y-115326309D01*
X103411673Y-115559698D01*
X103590301Y-115738327D01*
X103823690Y-115835000D01*
X105664250Y-115835000D01*
X105823000Y-115676250D01*
X105823000Y-113327000D01*
X106077000Y-113327000D01*
X106077000Y-115676250D01*
X106235750Y-115835000D01*
X108076310Y-115835000D01*
X108309699Y-115738327D01*
X108488327Y-115559698D01*
X108585000Y-115326309D01*
X108585000Y-113485750D01*
X143315000Y-113485750D01*
X143315000Y-115326309D01*
X143411673Y-115559698D01*
X143590301Y-115738327D01*
X143823690Y-115835000D01*
X145664250Y-115835000D01*
X145823000Y-115676250D01*
X145823000Y-113327000D01*
X146077000Y-113327000D01*
X146077000Y-115676250D01*
X146235750Y-115835000D01*
X148076310Y-115835000D01*
X148309699Y-115738327D01*
X148488327Y-115559698D01*
X148585000Y-115326309D01*
X148585000Y-113485750D01*
X148426250Y-113327000D01*
X146077000Y-113327000D01*
X145823000Y-113327000D01*
X143473750Y-113327000D01*
X143315000Y-113485750D01*
X108585000Y-113485750D01*
X108426250Y-113327000D01*
X106077000Y-113327000D01*
X105823000Y-113327000D01*
X103473750Y-113327000D01*
X103315000Y-113485750D01*
X87577000Y-113485750D01*
X87577000Y-111073691D01*
X103315000Y-111073691D01*
X103315000Y-112914250D01*
X103473750Y-113073000D01*
X105823000Y-113073000D01*
X105823000Y-110723750D01*
X106077000Y-110723750D01*
X106077000Y-113073000D01*
X108426250Y-113073000D01*
X108585000Y-112914250D01*
X108585000Y-111073691D01*
X143315000Y-111073691D01*
X143315000Y-112914250D01*
X143473750Y-113073000D01*
X145823000Y-113073000D01*
X145823000Y-110723750D01*
X146077000Y-110723750D01*
X146077000Y-113073000D01*
X148426250Y-113073000D01*
X148585000Y-112914250D01*
X148585000Y-111073691D01*
X148488327Y-110840302D01*
X148309699Y-110661673D01*
X148076310Y-110565000D01*
X146235750Y-110565000D01*
X146077000Y-110723750D01*
X145823000Y-110723750D01*
X145664250Y-110565000D01*
X143823690Y-110565000D01*
X143590301Y-110661673D01*
X143411673Y-110840302D01*
X143315000Y-111073691D01*
X108585000Y-111073691D01*
X108488327Y-110840302D01*
X108309699Y-110661673D01*
X108076310Y-110565000D01*
X106235750Y-110565000D01*
X106077000Y-110723750D01*
X105823000Y-110723750D01*
X105664250Y-110565000D01*
X103823690Y-110565000D01*
X103590301Y-110661673D01*
X103411673Y-110840302D01*
X103315000Y-111073691D01*
X87577000Y-111073691D01*
X87577000Y-106641724D01*
X167067882Y-106641724D01*
X167215455Y-106950106D01*
X167970031Y-107243405D01*
X168779409Y-107225614D01*
X169444545Y-106950106D01*
X169592118Y-106641724D01*
X168330000Y-105379605D01*
X167067882Y-106641724D01*
X87577000Y-106641724D01*
X87577000Y-104840031D01*
X166286595Y-104840031D01*
X166304386Y-105649409D01*
X166579894Y-106314545D01*
X166888276Y-106462118D01*
X168150395Y-105200000D01*
X168509605Y-105200000D01*
X169771724Y-106462118D01*
X170080106Y-106314545D01*
X170373405Y-105559969D01*
X170355614Y-104750591D01*
X170080106Y-104085455D01*
X169771724Y-103937882D01*
X168509605Y-105200000D01*
X168150395Y-105200000D01*
X166888276Y-103937882D01*
X166579894Y-104085455D01*
X166286595Y-104840031D01*
X87577000Y-104840031D01*
X87577000Y-103758276D01*
X167067882Y-103758276D01*
X168330000Y-105020395D01*
X169592118Y-103758276D01*
X169444545Y-103449894D01*
X168689969Y-103156595D01*
X167880591Y-103174386D01*
X167215455Y-103449894D01*
X167067882Y-103758276D01*
X87577000Y-103758276D01*
X87577000Y-101958328D01*
X87641880Y-101465515D01*
X87828884Y-101014048D01*
X88126364Y-100626364D01*
X88514048Y-100328884D01*
X88965515Y-100141880D01*
X89458328Y-100077000D01*
X169191672Y-100077000D01*
X169684485Y-100141880D01*
X169684485Y-100141880D01*
G37*
X169684485Y-100141880D02*
X170135952Y-100328884D01*
X170523636Y-100626364D01*
X170821116Y-101014048D01*
X171008120Y-101465515D01*
X171073000Y-101958328D01*
X171073000Y-108441672D01*
X171008120Y-108934485D01*
X170821116Y-109385952D01*
X170523636Y-109773636D01*
X170135952Y-110071116D01*
X169684485Y-110258120D01*
X169191672Y-110323000D01*
X158950000Y-110323000D01*
X158933423Y-110324086D01*
X158415785Y-110392234D01*
X158383761Y-110400815D01*
X157901399Y-110600616D01*
X157872687Y-110617193D01*
X157458473Y-110935030D01*
X157435030Y-110958473D01*
X157117193Y-111372687D01*
X157100616Y-111401399D01*
X156900815Y-111883761D01*
X156892234Y-111915785D01*
X156824086Y-112433423D01*
X156823000Y-112450000D01*
X156823000Y-115941672D01*
X156758120Y-116434485D01*
X156571116Y-116885952D01*
X156273636Y-117273636D01*
X155885952Y-117571116D01*
X155434485Y-117758120D01*
X154941672Y-117823000D01*
X99450000Y-117823000D01*
X99433423Y-117824086D01*
X98915785Y-117892234D01*
X98883761Y-117900815D01*
X98401399Y-118100616D01*
X98372687Y-118117193D01*
X97958473Y-118435030D01*
X97935030Y-118458473D01*
X97617193Y-118872687D01*
X97600616Y-118901399D01*
X97400815Y-119383761D01*
X97392234Y-119415785D01*
X97324086Y-119933423D01*
X97323000Y-119950000D01*
X97323000Y-135941672D01*
X97258120Y-136434485D01*
X97071116Y-136885952D01*
X96773636Y-137273636D01*
X96385952Y-137571116D01*
X95934485Y-137758120D01*
X95441672Y-137823000D01*
X90987767Y-137823000D01*
X91594741Y-137216026D01*
X91935000Y-136394569D01*
X91935000Y-135505431D01*
X91594741Y-134683974D01*
X90966026Y-134055259D01*
X90144569Y-133715000D01*
X89255431Y-133715000D01*
X88433974Y-134055259D01*
X87805259Y-134683974D01*
X87465000Y-135505431D01*
X87465000Y-136394569D01*
X87805259Y-137216026D01*
X88412233Y-137823000D01*
X47458328Y-137823000D01*
X46965515Y-137758120D01*
X46514048Y-137571116D01*
X46126364Y-137273636D01*
X45828884Y-136885952D01*
X45641880Y-136434485D01*
X45577000Y-135941672D01*
X45577000Y-133327000D01*
X61164570Y-133327000D01*
X61164570Y-134176630D01*
X61330048Y-134754546D01*
X61704089Y-135225145D01*
X62229748Y-135516783D01*
X62335192Y-135541093D01*
X62573000Y-135420440D01*
X62573000Y-133327000D01*
X61164570Y-133327000D01*
X45577000Y-133327000D01*
X45577000Y-127462500D01*
X47427560Y-127462500D01*
X47427560Y-128387500D01*
X47495874Y-128730935D01*
X47690414Y-129022086D01*
X47815000Y-129105332D01*
X47815001Y-130378109D01*
X47745874Y-130481565D01*
X47677560Y-130825000D01*
X47677560Y-132075000D01*
X47745874Y-132418435D01*
X47940414Y-132709586D01*
X48231565Y-132904126D01*
X48575000Y-132972440D01*
X49325000Y-132972440D01*
X49668435Y-132904126D01*
X49959586Y-132709586D01*
X50154126Y-132418435D01*
X50222440Y-132075000D01*
X50222440Y-131735750D01*
X50490000Y-131735750D01*
X50490000Y-132451310D01*
X50586673Y-132684699D01*
X50765302Y-132863327D01*
X50998691Y-132960000D01*
X51464250Y-132960000D01*
X51623000Y-132801250D01*
X51623000Y-131577000D01*
X51877000Y-131577000D01*
X51877000Y-132801250D01*
X52035750Y-132960000D01*
X52501309Y-132960000D01*
X52734698Y-132863327D01*
X52913327Y-132684699D01*
X53010000Y-132451310D01*
X53010000Y-132223370D01*
X61164570Y-132223370D01*
X61164570Y-133073000D01*
X62573000Y-133073000D01*
X62573000Y-130979560D01*
X62827000Y-130979560D01*
X62827000Y-133073000D01*
X62847000Y-133073000D01*
X62847000Y-133327000D01*
X62827000Y-133327000D01*
X62827000Y-135420440D01*
X63064808Y-135541093D01*
X63170252Y-135516783D01*
X63695911Y-135225145D01*
X63958261Y-134895070D01*
X64133018Y-135156613D01*
X64640906Y-135495973D01*
X65240000Y-135615140D01*
X65839095Y-135495973D01*
X66346983Y-135156613D01*
X66686343Y-134648725D01*
X66775430Y-134200853D01*
X66775430Y-133327000D01*
X69374570Y-133327000D01*
X69374570Y-134176630D01*
X69540048Y-134754546D01*
X69914089Y-135225145D01*
X70439748Y-135516783D01*
X70545192Y-135541093D01*
X70783000Y-135420440D01*
X70783000Y-133327000D01*
X69374570Y-133327000D01*
X66775430Y-133327000D01*
X66775430Y-132223370D01*
X69374570Y-132223370D01*
X69374570Y-133073000D01*
X70783000Y-133073000D01*
X70783000Y-130979560D01*
X71037000Y-130979560D01*
X71037000Y-133073000D01*
X71057000Y-133073000D01*
X71057000Y-133327000D01*
X71037000Y-133327000D01*
X71037000Y-135420440D01*
X71274808Y-135541093D01*
X71380252Y-135516783D01*
X71905911Y-135225145D01*
X72168261Y-134895070D01*
X72343018Y-135156613D01*
X72850906Y-135495973D01*
X73450000Y-135615140D01*
X74049095Y-135495973D01*
X74556983Y-135156613D01*
X74896343Y-134648725D01*
X74985430Y-134200853D01*
X74985430Y-133327000D01*
X77664570Y-133327000D01*
X77664570Y-134176630D01*
X77830048Y-134754546D01*
X78204089Y-135225145D01*
X78729748Y-135516783D01*
X78835192Y-135541093D01*
X79073000Y-135420440D01*
X79073000Y-133327000D01*
X77664570Y-133327000D01*
X74985430Y-133327000D01*
X74985430Y-132223370D01*
X77664570Y-132223370D01*
X77664570Y-133073000D01*
X79073000Y-133073000D01*
X79073000Y-130979560D01*
X79327000Y-130979560D01*
X79327000Y-133073000D01*
X79347000Y-133073000D01*
X79347000Y-133327000D01*
X79327000Y-133327000D01*
X79327000Y-135420440D01*
X79564808Y-135541093D01*
X79670252Y-135516783D01*
X80195911Y-135225145D01*
X80458261Y-134895070D01*
X80633018Y-135156613D01*
X81140906Y-135495973D01*
X81740000Y-135615140D01*
X82339095Y-135495973D01*
X82846983Y-135156613D01*
X83186343Y-134648725D01*
X83275430Y-134200853D01*
X83275430Y-132199147D01*
X83186343Y-131751275D01*
X82846983Y-131243387D01*
X82339094Y-130904027D01*
X81740000Y-130784860D01*
X81140905Y-130904027D01*
X80633017Y-131243387D01*
X80458260Y-131504929D01*
X80195911Y-131174855D01*
X79670252Y-130883217D01*
X79564808Y-130858907D01*
X79327000Y-130979560D01*
X79073000Y-130979560D01*
X78835192Y-130858907D01*
X78729748Y-130883217D01*
X78204089Y-131174855D01*
X77830048Y-131645454D01*
X77664570Y-132223370D01*
X74985430Y-132223370D01*
X74985430Y-132199147D01*
X74896343Y-131751275D01*
X74556983Y-131243387D01*
X74049094Y-130904027D01*
X73450000Y-130784860D01*
X72850905Y-130904027D01*
X72343017Y-131243387D01*
X72168260Y-131504929D01*
X71905911Y-131174855D01*
X71380252Y-130883217D01*
X71274808Y-130858907D01*
X71037000Y-130979560D01*
X70783000Y-130979560D01*
X70545192Y-130858907D01*
X70439748Y-130883217D01*
X69914089Y-131174855D01*
X69540048Y-131645454D01*
X69374570Y-132223370D01*
X66775430Y-132223370D01*
X66775430Y-132199147D01*
X66686343Y-131751275D01*
X66346983Y-131243387D01*
X65839094Y-130904027D01*
X65240000Y-130784860D01*
X64640905Y-130904027D01*
X64133017Y-131243387D01*
X63958260Y-131504929D01*
X63695911Y-131174855D01*
X63170252Y-130883217D01*
X63064808Y-130858907D01*
X62827000Y-130979560D01*
X62573000Y-130979560D01*
X62335192Y-130858907D01*
X62229748Y-130883217D01*
X61704089Y-131174855D01*
X61330048Y-131645454D01*
X61164570Y-132223370D01*
X53010000Y-132223370D01*
X53010000Y-131735750D01*
X52851250Y-131577000D01*
X51877000Y-131577000D01*
X51623000Y-131577000D01*
X50648750Y-131577000D01*
X50490000Y-131735750D01*
X50222440Y-131735750D01*
X50222440Y-130825000D01*
X50154126Y-130481565D01*
X50132160Y-130448690D01*
X50490000Y-130448690D01*
X50490000Y-131164250D01*
X50648750Y-131323000D01*
X51623000Y-131323000D01*
X51623000Y-130098750D01*
X51877000Y-130098750D01*
X51877000Y-131323000D01*
X52851250Y-131323000D01*
X53010000Y-131164250D01*
X53010000Y-130448690D01*
X52913327Y-130215301D01*
X52734698Y-130036673D01*
X52501309Y-129940000D01*
X52035750Y-129940000D01*
X51877000Y-130098750D01*
X51623000Y-130098750D01*
X51464250Y-129940000D01*
X50998691Y-129940000D01*
X50765302Y-130036673D01*
X50586673Y-130215301D01*
X50490000Y-130448690D01*
X50132160Y-130448690D01*
X50085000Y-130378110D01*
X50085000Y-129105331D01*
X50209586Y-129022086D01*
X50404126Y-128730935D01*
X50472440Y-128387500D01*
X50472440Y-127462500D01*
X50677560Y-127462500D01*
X50677560Y-128387500D01*
X50745874Y-128730935D01*
X50940414Y-129022086D01*
X51231565Y-129216626D01*
X51575000Y-129284940D01*
X52825000Y-129284940D01*
X53168435Y-129216626D01*
X53402843Y-129060000D01*
X54247157Y-129060000D01*
X54481565Y-129216626D01*
X54825000Y-129284940D01*
X56075000Y-129284940D01*
X56418435Y-129216626D01*
X56709586Y-129022086D01*
X56904126Y-128730935D01*
X56972440Y-128387500D01*
X56972440Y-127462500D01*
X56904126Y-127119065D01*
X56709586Y-126827914D01*
X56418435Y-126633374D01*
X56075000Y-126565060D01*
X54825000Y-126565060D01*
X54481565Y-126633374D01*
X54247157Y-126790000D01*
X53402843Y-126790000D01*
X53168435Y-126633374D01*
X52825000Y-126565060D01*
X51575000Y-126565060D01*
X51231565Y-126633374D01*
X50940414Y-126827914D01*
X50745874Y-127119065D01*
X50677560Y-127462500D01*
X50472440Y-127462500D01*
X50404126Y-127119065D01*
X50209586Y-126827914D01*
X49918435Y-126633374D01*
X49575000Y-126565060D01*
X48325000Y-126565060D01*
X47981565Y-126633374D01*
X47690414Y-126827914D01*
X47495874Y-127119065D01*
X47427560Y-127462500D01*
X45577000Y-127462500D01*
X45577000Y-124487500D01*
X47427560Y-124487500D01*
X47427560Y-125412500D01*
X47495874Y-125755935D01*
X47690414Y-126047086D01*
X47981565Y-126241626D01*
X48325000Y-126309940D01*
X49575000Y-126309940D01*
X49918435Y-126241626D01*
X50152843Y-126085000D01*
X50997157Y-126085000D01*
X51231565Y-126241626D01*
X51575000Y-126309940D01*
X52825000Y-126309940D01*
X53168435Y-126241626D01*
X53459586Y-126047086D01*
X53654126Y-125755935D01*
X53722440Y-125412500D01*
X53722440Y-124487500D01*
X53927560Y-124487500D01*
X53927560Y-125412500D01*
X53995874Y-125755935D01*
X54190414Y-126047086D01*
X54481565Y-126241626D01*
X54825000Y-126309940D01*
X56075000Y-126309940D01*
X56418435Y-126241626D01*
X56652843Y-126085000D01*
X59061783Y-126085000D01*
X59392855Y-126019146D01*
X59768289Y-125768289D01*
X60019146Y-125392855D01*
X60081973Y-125077000D01*
X61124570Y-125077000D01*
X61124570Y-125926630D01*
X61290048Y-126504546D01*
X61664089Y-126975145D01*
X62189748Y-127266783D01*
X62295192Y-127291093D01*
X62533000Y-127170440D01*
X62533000Y-125077000D01*
X61124570Y-125077000D01*
X60081973Y-125077000D01*
X60107235Y-124950000D01*
X60019146Y-124507145D01*
X59768289Y-124131711D01*
X59531315Y-123973370D01*
X61124570Y-123973370D01*
X61124570Y-124823000D01*
X62533000Y-124823000D01*
X62533000Y-122729560D01*
X62787000Y-122729560D01*
X62787000Y-124823000D01*
X62807000Y-124823000D01*
X62807000Y-125077000D01*
X62787000Y-125077000D01*
X62787000Y-127170440D01*
X63024808Y-127291093D01*
X63130252Y-127266783D01*
X63655911Y-126975145D01*
X63918261Y-126645070D01*
X64093018Y-126906613D01*
X64600906Y-127245973D01*
X65200000Y-127365140D01*
X65799095Y-127245973D01*
X66306983Y-126906613D01*
X66646343Y-126398725D01*
X66735430Y-125950853D01*
X66735430Y-125077000D01*
X69394570Y-125077000D01*
X69394570Y-125926630D01*
X69560048Y-126504546D01*
X69934089Y-126975145D01*
X70459748Y-127266783D01*
X70565192Y-127291093D01*
X70803000Y-127170440D01*
X70803000Y-125077000D01*
X69394570Y-125077000D01*
X66735430Y-125077000D01*
X66735430Y-123973370D01*
X69394570Y-123973370D01*
X69394570Y-124823000D01*
X70803000Y-124823000D01*
X70803000Y-122729560D01*
X71057000Y-122729560D01*
X71057000Y-124823000D01*
X71077000Y-124823000D01*
X71077000Y-125077000D01*
X71057000Y-125077000D01*
X71057000Y-127170440D01*
X71294808Y-127291093D01*
X71400252Y-127266783D01*
X71925911Y-126975145D01*
X72188261Y-126645070D01*
X72363018Y-126906613D01*
X72870906Y-127245973D01*
X73470000Y-127365140D01*
X74069095Y-127245973D01*
X74576983Y-126906613D01*
X74916343Y-126398725D01*
X75005430Y-125950853D01*
X75005430Y-125077000D01*
X77664570Y-125077000D01*
X77664570Y-125926630D01*
X77830048Y-126504546D01*
X78204089Y-126975145D01*
X78729748Y-127266783D01*
X78835192Y-127291093D01*
X79073000Y-127170440D01*
X79073000Y-125077000D01*
X77664570Y-125077000D01*
X75005430Y-125077000D01*
X75005430Y-123973370D01*
X77664570Y-123973370D01*
X77664570Y-124823000D01*
X79073000Y-124823000D01*
X79073000Y-122729560D01*
X79327000Y-122729560D01*
X79327000Y-124823000D01*
X79347000Y-124823000D01*
X79347000Y-125077000D01*
X79327000Y-125077000D01*
X79327000Y-127170440D01*
X79564808Y-127291093D01*
X79670252Y-127266783D01*
X80195911Y-126975145D01*
X80458261Y-126645070D01*
X80633018Y-126906613D01*
X81140906Y-127245973D01*
X81740000Y-127365140D01*
X82339095Y-127245973D01*
X82846983Y-126906613D01*
X83186343Y-126398725D01*
X83275430Y-125950853D01*
X83275430Y-123949147D01*
X83186343Y-123501275D01*
X82846983Y-122993387D01*
X82339094Y-122654027D01*
X81740000Y-122534860D01*
X81140905Y-122654027D01*
X80633017Y-122993387D01*
X80458260Y-123254929D01*
X80195911Y-122924855D01*
X79670252Y-122633217D01*
X79564808Y-122608907D01*
X79327000Y-122729560D01*
X79073000Y-122729560D01*
X78835192Y-122608907D01*
X78729748Y-122633217D01*
X78204089Y-122924855D01*
X77830048Y-123395454D01*
X77664570Y-123973370D01*
X75005430Y-123973370D01*
X75005430Y-123949147D01*
X74916343Y-123501275D01*
X74576983Y-122993387D01*
X74069094Y-122654027D01*
X73470000Y-122534860D01*
X72870905Y-122654027D01*
X72363017Y-122993387D01*
X72188260Y-123254929D01*
X71925911Y-122924855D01*
X71400252Y-122633217D01*
X71294808Y-122608907D01*
X71057000Y-122729560D01*
X70803000Y-122729560D01*
X70565192Y-122608907D01*
X70459748Y-122633217D01*
X69934089Y-122924855D01*
X69560048Y-123395454D01*
X69394570Y-123973370D01*
X66735430Y-123973370D01*
X66735430Y-123949147D01*
X66646343Y-123501275D01*
X66306983Y-122993387D01*
X65799094Y-122654027D01*
X65200000Y-122534860D01*
X64600905Y-122654027D01*
X64093017Y-122993387D01*
X63918260Y-123254929D01*
X63655911Y-122924855D01*
X63130252Y-122633217D01*
X63024808Y-122608907D01*
X62787000Y-122729560D01*
X62533000Y-122729560D01*
X62295192Y-122608907D01*
X62189748Y-122633217D01*
X61664089Y-122924855D01*
X61290048Y-123395454D01*
X61124570Y-123973370D01*
X59531315Y-123973370D01*
X59392855Y-123880854D01*
X59061783Y-123815000D01*
X56652843Y-123815000D01*
X56418435Y-123658374D01*
X56075000Y-123590060D01*
X54825000Y-123590060D01*
X54481565Y-123658374D01*
X54190414Y-123852914D01*
X53995874Y-124144065D01*
X53927560Y-124487500D01*
X53722440Y-124487500D01*
X53654126Y-124144065D01*
X53459586Y-123852914D01*
X53168435Y-123658374D01*
X52825000Y-123590060D01*
X51575000Y-123590060D01*
X51231565Y-123658374D01*
X50997157Y-123815000D01*
X50152843Y-123815000D01*
X49918435Y-123658374D01*
X49575000Y-123590060D01*
X48325000Y-123590060D01*
X47981565Y-123658374D01*
X47690414Y-123852914D01*
X47495874Y-124144065D01*
X47427560Y-124487500D01*
X45577000Y-124487500D01*
X45577000Y-122708328D01*
X45641880Y-122215515D01*
X45828884Y-121764048D01*
X46126364Y-121376364D01*
X46514048Y-121078884D01*
X46965515Y-120891880D01*
X47458328Y-120827000D01*
X85450000Y-120827000D01*
X85466577Y-120825914D01*
X85984215Y-120757766D01*
X86016239Y-120749185D01*
X86498601Y-120549384D01*
X86527313Y-120532807D01*
X86941527Y-120214970D01*
X86964970Y-120191527D01*
X87282807Y-119777313D01*
X87299384Y-119748601D01*
X87499185Y-119266239D01*
X87507766Y-119234215D01*
X87575914Y-118716577D01*
X87577000Y-118700000D01*
X87577000Y-113485750D01*
X103315000Y-113485750D01*
X103315000Y-115326309D01*
X103411673Y-115559698D01*
X103590301Y-115738327D01*
X103823690Y-115835000D01*
X105664250Y-115835000D01*
X105823000Y-115676250D01*
X105823000Y-113327000D01*
X106077000Y-113327000D01*
X106077000Y-115676250D01*
X106235750Y-115835000D01*
X108076310Y-115835000D01*
X108309699Y-115738327D01*
X108488327Y-115559698D01*
X108585000Y-115326309D01*
X108585000Y-113485750D01*
X143315000Y-113485750D01*
X143315000Y-115326309D01*
X143411673Y-115559698D01*
X143590301Y-115738327D01*
X143823690Y-115835000D01*
X145664250Y-115835000D01*
X145823000Y-115676250D01*
X145823000Y-113327000D01*
X146077000Y-113327000D01*
X146077000Y-115676250D01*
X146235750Y-115835000D01*
X148076310Y-115835000D01*
X148309699Y-115738327D01*
X148488327Y-115559698D01*
X148585000Y-115326309D01*
X148585000Y-113485750D01*
X148426250Y-113327000D01*
X146077000Y-113327000D01*
X145823000Y-113327000D01*
X143473750Y-113327000D01*
X143315000Y-113485750D01*
X108585000Y-113485750D01*
X108426250Y-113327000D01*
X106077000Y-113327000D01*
X105823000Y-113327000D01*
X103473750Y-113327000D01*
X103315000Y-113485750D01*
X87577000Y-113485750D01*
X87577000Y-111073691D01*
X103315000Y-111073691D01*
X103315000Y-112914250D01*
X103473750Y-113073000D01*
X105823000Y-113073000D01*
X105823000Y-110723750D01*
X106077000Y-110723750D01*
X106077000Y-113073000D01*
X108426250Y-113073000D01*
X108585000Y-112914250D01*
X108585000Y-111073691D01*
X143315000Y-111073691D01*
X143315000Y-112914250D01*
X143473750Y-113073000D01*
X145823000Y-113073000D01*
X145823000Y-110723750D01*
X146077000Y-110723750D01*
X146077000Y-113073000D01*
X148426250Y-113073000D01*
X148585000Y-112914250D01*
X148585000Y-111073691D01*
X148488327Y-110840302D01*
X148309699Y-110661673D01*
X148076310Y-110565000D01*
X146235750Y-110565000D01*
X146077000Y-110723750D01*
X145823000Y-110723750D01*
X145664250Y-110565000D01*
X143823690Y-110565000D01*
X143590301Y-110661673D01*
X143411673Y-110840302D01*
X143315000Y-111073691D01*
X108585000Y-111073691D01*
X108488327Y-110840302D01*
X108309699Y-110661673D01*
X108076310Y-110565000D01*
X106235750Y-110565000D01*
X106077000Y-110723750D01*
X105823000Y-110723750D01*
X105664250Y-110565000D01*
X103823690Y-110565000D01*
X103590301Y-110661673D01*
X103411673Y-110840302D01*
X103315000Y-111073691D01*
X87577000Y-111073691D01*
X87577000Y-106641724D01*
X167067882Y-106641724D01*
X167215455Y-106950106D01*
X167970031Y-107243405D01*
X168779409Y-107225614D01*
X169444545Y-106950106D01*
X169592118Y-106641724D01*
X168330000Y-105379605D01*
X167067882Y-106641724D01*
X87577000Y-106641724D01*
X87577000Y-104840031D01*
X166286595Y-104840031D01*
X166304386Y-105649409D01*
X166579894Y-106314545D01*
X166888276Y-106462118D01*
X168150395Y-105200000D01*
X168509605Y-105200000D01*
X169771724Y-106462118D01*
X170080106Y-106314545D01*
X170373405Y-105559969D01*
X170355614Y-104750591D01*
X170080106Y-104085455D01*
X169771724Y-103937882D01*
X168509605Y-105200000D01*
X168150395Y-105200000D01*
X166888276Y-103937882D01*
X166579894Y-104085455D01*
X166286595Y-104840031D01*
X87577000Y-104840031D01*
X87577000Y-103758276D01*
X167067882Y-103758276D01*
X168330000Y-105020395D01*
X169592118Y-103758276D01*
X169444545Y-103449894D01*
X168689969Y-103156595D01*
X167880591Y-103174386D01*
X167215455Y-103449894D01*
X167067882Y-103758276D01*
X87577000Y-103758276D01*
X87577000Y-101958328D01*
X87641880Y-101465515D01*
X87828884Y-101014048D01*
X88126364Y-100626364D01*
X88514048Y-100328884D01*
X88965515Y-100141880D01*
X89458328Y-100077000D01*
X169191672Y-100077000D01*
X169684485Y-100141880D01*
G04 #@! TO.N,Net-(F1-Pad1)*
G36*
X178934485Y-129141880D02*
X179385952Y-129328884D01*
X179773636Y-129626364D01*
X180071116Y-130014048D01*
X180258120Y-130465515D01*
X180323000Y-130958328D01*
X180323000Y-132135078D01*
X180155911Y-131924855D01*
X179630252Y-131633217D01*
X179524808Y-131608907D01*
X179287000Y-131729560D01*
X179287000Y-133823000D01*
X179307000Y-133823000D01*
X179307000Y-134077000D01*
X179287000Y-134077000D01*
X179287000Y-136170440D01*
X179524808Y-136291093D01*
X179630252Y-136266783D01*
X180155911Y-135975145D01*
X180323000Y-135764922D01*
X180323000Y-138191672D01*
X180258120Y-138684485D01*
X180071116Y-139135952D01*
X179773636Y-139523636D01*
X179385952Y-139821116D01*
X178934485Y-140008120D01*
X178441672Y-140073000D01*
X169708328Y-140073000D01*
X169215515Y-140008120D01*
X168764048Y-139821116D01*
X168376364Y-139523636D01*
X168078884Y-139135952D01*
X167891880Y-138684485D01*
X167829936Y-138213970D01*
X169615635Y-138213970D01*
X169775418Y-138532739D01*
X170566187Y-138842723D01*
X171415387Y-138826497D01*
X172124582Y-138532739D01*
X172284365Y-138213970D01*
X170950000Y-136879605D01*
X169615635Y-138213970D01*
X167829936Y-138213970D01*
X167827000Y-138191672D01*
X167827000Y-136316187D01*
X168807277Y-136316187D01*
X168823503Y-137165387D01*
X169117261Y-137874582D01*
X169436030Y-138034365D01*
X170770395Y-136700000D01*
X171129605Y-136700000D01*
X172463970Y-138034365D01*
X172782739Y-137874582D01*
X173092723Y-137083813D01*
X173076497Y-136234613D01*
X172782739Y-135525418D01*
X172463970Y-135365635D01*
X171129605Y-136700000D01*
X170770395Y-136700000D01*
X169436030Y-135365635D01*
X169117261Y-135525418D01*
X168807277Y-136316187D01*
X167827000Y-136316187D01*
X167827000Y-135186030D01*
X169615635Y-135186030D01*
X170950000Y-136520395D01*
X172284365Y-135186030D01*
X172124582Y-134867261D01*
X171333813Y-134557277D01*
X170484613Y-134573503D01*
X169775418Y-134867261D01*
X169615635Y-135186030D01*
X167827000Y-135186030D01*
X167827000Y-134077000D01*
X177624570Y-134077000D01*
X177624570Y-134926630D01*
X177790048Y-135504546D01*
X178164089Y-135975145D01*
X178689748Y-136266783D01*
X178795192Y-136291093D01*
X179033000Y-136170440D01*
X179033000Y-134077000D01*
X177624570Y-134077000D01*
X167827000Y-134077000D01*
X167827000Y-132973370D01*
X177624570Y-132973370D01*
X177624570Y-133823000D01*
X179033000Y-133823000D01*
X179033000Y-131729560D01*
X178795192Y-131608907D01*
X178689748Y-131633217D01*
X178164089Y-131924855D01*
X177790048Y-132395454D01*
X177624570Y-132973370D01*
X167827000Y-132973370D01*
X167827000Y-130958328D01*
X167891880Y-130465515D01*
X168078884Y-130014048D01*
X168376364Y-129626364D01*
X168764048Y-129328884D01*
X169215515Y-129141880D01*
X169708328Y-129077000D01*
X178441672Y-129077000D01*
X178934485Y-129141880D01*
X178934485Y-129141880D01*
G37*
X178934485Y-129141880D02*
X179385952Y-129328884D01*
X179773636Y-129626364D01*
X180071116Y-130014048D01*
X180258120Y-130465515D01*
X180323000Y-130958328D01*
X180323000Y-132135078D01*
X180155911Y-131924855D01*
X179630252Y-131633217D01*
X179524808Y-131608907D01*
X179287000Y-131729560D01*
X179287000Y-133823000D01*
X179307000Y-133823000D01*
X179307000Y-134077000D01*
X179287000Y-134077000D01*
X179287000Y-136170440D01*
X179524808Y-136291093D01*
X179630252Y-136266783D01*
X180155911Y-135975145D01*
X180323000Y-135764922D01*
X180323000Y-138191672D01*
X180258120Y-138684485D01*
X180071116Y-139135952D01*
X179773636Y-139523636D01*
X179385952Y-139821116D01*
X178934485Y-140008120D01*
X178441672Y-140073000D01*
X169708328Y-140073000D01*
X169215515Y-140008120D01*
X168764048Y-139821116D01*
X168376364Y-139523636D01*
X168078884Y-139135952D01*
X167891880Y-138684485D01*
X167829936Y-138213970D01*
X169615635Y-138213970D01*
X169775418Y-138532739D01*
X170566187Y-138842723D01*
X171415387Y-138826497D01*
X172124582Y-138532739D01*
X172284365Y-138213970D01*
X170950000Y-136879605D01*
X169615635Y-138213970D01*
X167829936Y-138213970D01*
X167827000Y-138191672D01*
X167827000Y-136316187D01*
X168807277Y-136316187D01*
X168823503Y-137165387D01*
X169117261Y-137874582D01*
X169436030Y-138034365D01*
X170770395Y-136700000D01*
X171129605Y-136700000D01*
X172463970Y-138034365D01*
X172782739Y-137874582D01*
X173092723Y-137083813D01*
X173076497Y-136234613D01*
X172782739Y-135525418D01*
X172463970Y-135365635D01*
X171129605Y-136700000D01*
X170770395Y-136700000D01*
X169436030Y-135365635D01*
X169117261Y-135525418D01*
X168807277Y-136316187D01*
X167827000Y-136316187D01*
X167827000Y-135186030D01*
X169615635Y-135186030D01*
X170950000Y-136520395D01*
X172284365Y-135186030D01*
X172124582Y-134867261D01*
X171333813Y-134557277D01*
X170484613Y-134573503D01*
X169775418Y-134867261D01*
X169615635Y-135186030D01*
X167827000Y-135186030D01*
X167827000Y-134077000D01*
X177624570Y-134077000D01*
X177624570Y-134926630D01*
X177790048Y-135504546D01*
X178164089Y-135975145D01*
X178689748Y-136266783D01*
X178795192Y-136291093D01*
X179033000Y-136170440D01*
X179033000Y-134077000D01*
X177624570Y-134077000D01*
X167827000Y-134077000D01*
X167827000Y-132973370D01*
X177624570Y-132973370D01*
X177624570Y-133823000D01*
X179033000Y-133823000D01*
X179033000Y-131729560D01*
X178795192Y-131608907D01*
X178689748Y-131633217D01*
X178164089Y-131924855D01*
X177790048Y-132395454D01*
X177624570Y-132973370D01*
X167827000Y-132973370D01*
X167827000Y-130958328D01*
X167891880Y-130465515D01*
X168078884Y-130014048D01*
X168376364Y-129626364D01*
X168764048Y-129328884D01*
X169215515Y-129141880D01*
X169708328Y-129077000D01*
X178441672Y-129077000D01*
X178934485Y-129141880D01*
G04 #@! TO.N,+5V*
G36*
X82934485Y-100641880D02*
X83385952Y-100828884D01*
X83773636Y-101126364D01*
X84071116Y-101514048D01*
X84258120Y-101965515D01*
X84323000Y-102458328D01*
X84323000Y-104641509D01*
X84056983Y-104243387D01*
X83549094Y-103904027D01*
X82950000Y-103784860D01*
X82350905Y-103904027D01*
X81843017Y-104243387D01*
X81668260Y-104504929D01*
X81405911Y-104174855D01*
X80880252Y-103883217D01*
X80774808Y-103858907D01*
X80537000Y-103979560D01*
X80537000Y-106073000D01*
X80557000Y-106073000D01*
X80557000Y-106327000D01*
X80537000Y-106327000D01*
X80537000Y-108420440D01*
X80774808Y-108541093D01*
X80880252Y-108516783D01*
X81405911Y-108225145D01*
X81668261Y-107895070D01*
X81843018Y-108156613D01*
X82350906Y-108495973D01*
X82950000Y-108615140D01*
X83549095Y-108495973D01*
X84056983Y-108156613D01*
X84271055Y-107836231D01*
X84258120Y-107934485D01*
X84071116Y-108385952D01*
X83773636Y-108773636D01*
X83385952Y-109071116D01*
X82934485Y-109258120D01*
X82441672Y-109323000D01*
X48458328Y-109323000D01*
X47965515Y-109258120D01*
X47514048Y-109071116D01*
X47126364Y-108773636D01*
X46828884Y-108385952D01*
X46641880Y-107934485D01*
X46577000Y-107441672D01*
X46577000Y-105977000D01*
X46824570Y-105977000D01*
X46824570Y-106826630D01*
X46990048Y-107404546D01*
X47364089Y-107875145D01*
X47889748Y-108166783D01*
X47995192Y-108191093D01*
X48233000Y-108070440D01*
X48233000Y-105977000D01*
X46824570Y-105977000D01*
X46577000Y-105977000D01*
X46577000Y-104873370D01*
X46824570Y-104873370D01*
X46824570Y-105723000D01*
X48233000Y-105723000D01*
X48233000Y-103629560D01*
X48487000Y-103629560D01*
X48487000Y-105723000D01*
X48507000Y-105723000D01*
X48507000Y-105977000D01*
X48487000Y-105977000D01*
X48487000Y-108070440D01*
X48724808Y-108191093D01*
X48830252Y-108166783D01*
X49355911Y-107875145D01*
X49618261Y-107545070D01*
X49793018Y-107806613D01*
X50300906Y-108145973D01*
X50900000Y-108265140D01*
X51499095Y-108145973D01*
X52006983Y-107806613D01*
X52346343Y-107298725D01*
X52435430Y-106850853D01*
X52435430Y-105977000D01*
X53324570Y-105977000D01*
X53324570Y-106826630D01*
X53490048Y-107404546D01*
X53864089Y-107875145D01*
X54389748Y-108166783D01*
X54495192Y-108191093D01*
X54733000Y-108070440D01*
X54733000Y-105977000D01*
X53324570Y-105977000D01*
X52435430Y-105977000D01*
X52435430Y-104873370D01*
X53324570Y-104873370D01*
X53324570Y-105723000D01*
X54733000Y-105723000D01*
X54733000Y-103629560D01*
X54987000Y-103629560D01*
X54987000Y-105723000D01*
X55007000Y-105723000D01*
X55007000Y-105977000D01*
X54987000Y-105977000D01*
X54987000Y-108070440D01*
X55224808Y-108191093D01*
X55330252Y-108166783D01*
X55855911Y-107875145D01*
X56118261Y-107545070D01*
X56293018Y-107806613D01*
X56800906Y-108145973D01*
X57400000Y-108265140D01*
X57999095Y-108145973D01*
X58506983Y-107806613D01*
X58846343Y-107298725D01*
X58935430Y-106850853D01*
X58935430Y-105977000D01*
X59864570Y-105977000D01*
X59864570Y-106826630D01*
X60030048Y-107404546D01*
X60404089Y-107875145D01*
X60929748Y-108166783D01*
X61035192Y-108191093D01*
X61273000Y-108070440D01*
X61273000Y-105977000D01*
X59864570Y-105977000D01*
X58935430Y-105977000D01*
X58935430Y-104873370D01*
X59864570Y-104873370D01*
X59864570Y-105723000D01*
X61273000Y-105723000D01*
X61273000Y-103629560D01*
X61527000Y-103629560D01*
X61527000Y-105723000D01*
X61547000Y-105723000D01*
X61547000Y-105977000D01*
X61527000Y-105977000D01*
X61527000Y-108070440D01*
X61764808Y-108191093D01*
X61870252Y-108166783D01*
X62395911Y-107875145D01*
X62658261Y-107545070D01*
X62833018Y-107806613D01*
X63340906Y-108145973D01*
X63940000Y-108265140D01*
X64539095Y-108145973D01*
X65046983Y-107806613D01*
X65386343Y-107298725D01*
X65475430Y-106850853D01*
X65475430Y-105977000D01*
X66344570Y-105977000D01*
X66344570Y-106826630D01*
X66510048Y-107404546D01*
X66884089Y-107875145D01*
X67409748Y-108166783D01*
X67515192Y-108191093D01*
X67753000Y-108070440D01*
X67753000Y-105977000D01*
X66344570Y-105977000D01*
X65475430Y-105977000D01*
X65475430Y-104873370D01*
X66344570Y-104873370D01*
X66344570Y-105723000D01*
X67753000Y-105723000D01*
X67753000Y-103629560D01*
X68007000Y-103629560D01*
X68007000Y-105723000D01*
X68027000Y-105723000D01*
X68027000Y-105977000D01*
X68007000Y-105977000D01*
X68007000Y-108070440D01*
X68244808Y-108191093D01*
X68350252Y-108166783D01*
X68875911Y-107875145D01*
X69138261Y-107545070D01*
X69313018Y-107806613D01*
X69820906Y-108145973D01*
X70420000Y-108265140D01*
X71019095Y-108145973D01*
X71526983Y-107806613D01*
X71866343Y-107298725D01*
X71955430Y-106850853D01*
X71955430Y-106327000D01*
X78874570Y-106327000D01*
X78874570Y-107176630D01*
X79040048Y-107754546D01*
X79414089Y-108225145D01*
X79939748Y-108516783D01*
X80045192Y-108541093D01*
X80283000Y-108420440D01*
X80283000Y-106327000D01*
X78874570Y-106327000D01*
X71955430Y-106327000D01*
X71955430Y-105223370D01*
X78874570Y-105223370D01*
X78874570Y-106073000D01*
X80283000Y-106073000D01*
X80283000Y-103979560D01*
X80045192Y-103858907D01*
X79939748Y-103883217D01*
X79414089Y-104174855D01*
X79040048Y-104645454D01*
X78874570Y-105223370D01*
X71955430Y-105223370D01*
X71955430Y-104849147D01*
X71866343Y-104401275D01*
X71526983Y-103893387D01*
X71019094Y-103554027D01*
X70420000Y-103434860D01*
X69820905Y-103554027D01*
X69313017Y-103893387D01*
X69138260Y-104154929D01*
X68875911Y-103824855D01*
X68350252Y-103533217D01*
X68244808Y-103508907D01*
X68007000Y-103629560D01*
X67753000Y-103629560D01*
X67515192Y-103508907D01*
X67409748Y-103533217D01*
X66884089Y-103824855D01*
X66510048Y-104295454D01*
X66344570Y-104873370D01*
X65475430Y-104873370D01*
X65475430Y-104849147D01*
X65386343Y-104401275D01*
X65046983Y-103893387D01*
X64539094Y-103554027D01*
X63940000Y-103434860D01*
X63340905Y-103554027D01*
X62833017Y-103893387D01*
X62658260Y-104154929D01*
X62395911Y-103824855D01*
X61870252Y-103533217D01*
X61764808Y-103508907D01*
X61527000Y-103629560D01*
X61273000Y-103629560D01*
X61035192Y-103508907D01*
X60929748Y-103533217D01*
X60404089Y-103824855D01*
X60030048Y-104295454D01*
X59864570Y-104873370D01*
X58935430Y-104873370D01*
X58935430Y-104849147D01*
X58846343Y-104401275D01*
X58506983Y-103893387D01*
X57999094Y-103554027D01*
X57400000Y-103434860D01*
X56800905Y-103554027D01*
X56293017Y-103893387D01*
X56118260Y-104154929D01*
X55855911Y-103824855D01*
X55330252Y-103533217D01*
X55224808Y-103508907D01*
X54987000Y-103629560D01*
X54733000Y-103629560D01*
X54495192Y-103508907D01*
X54389748Y-103533217D01*
X53864089Y-103824855D01*
X53490048Y-104295454D01*
X53324570Y-104873370D01*
X52435430Y-104873370D01*
X52435430Y-104849147D01*
X52346343Y-104401275D01*
X52006983Y-103893387D01*
X51499094Y-103554027D01*
X50900000Y-103434860D01*
X50300905Y-103554027D01*
X49793017Y-103893387D01*
X49618260Y-104154929D01*
X49355911Y-103824855D01*
X48830252Y-103533217D01*
X48724808Y-103508907D01*
X48487000Y-103629560D01*
X48233000Y-103629560D01*
X47995192Y-103508907D01*
X47889748Y-103533217D01*
X47364089Y-103824855D01*
X46990048Y-104295454D01*
X46824570Y-104873370D01*
X46577000Y-104873370D01*
X46577000Y-102458328D01*
X46641880Y-101965515D01*
X46828884Y-101514048D01*
X47126364Y-101126364D01*
X47514048Y-100828884D01*
X47965515Y-100641880D01*
X48458328Y-100577000D01*
X82441672Y-100577000D01*
X82934485Y-100641880D01*
X82934485Y-100641880D01*
G37*
X82934485Y-100641880D02*
X83385952Y-100828884D01*
X83773636Y-101126364D01*
X84071116Y-101514048D01*
X84258120Y-101965515D01*
X84323000Y-102458328D01*
X84323000Y-104641509D01*
X84056983Y-104243387D01*
X83549094Y-103904027D01*
X82950000Y-103784860D01*
X82350905Y-103904027D01*
X81843017Y-104243387D01*
X81668260Y-104504929D01*
X81405911Y-104174855D01*
X80880252Y-103883217D01*
X80774808Y-103858907D01*
X80537000Y-103979560D01*
X80537000Y-106073000D01*
X80557000Y-106073000D01*
X80557000Y-106327000D01*
X80537000Y-106327000D01*
X80537000Y-108420440D01*
X80774808Y-108541093D01*
X80880252Y-108516783D01*
X81405911Y-108225145D01*
X81668261Y-107895070D01*
X81843018Y-108156613D01*
X82350906Y-108495973D01*
X82950000Y-108615140D01*
X83549095Y-108495973D01*
X84056983Y-108156613D01*
X84271055Y-107836231D01*
X84258120Y-107934485D01*
X84071116Y-108385952D01*
X83773636Y-108773636D01*
X83385952Y-109071116D01*
X82934485Y-109258120D01*
X82441672Y-109323000D01*
X48458328Y-109323000D01*
X47965515Y-109258120D01*
X47514048Y-109071116D01*
X47126364Y-108773636D01*
X46828884Y-108385952D01*
X46641880Y-107934485D01*
X46577000Y-107441672D01*
X46577000Y-105977000D01*
X46824570Y-105977000D01*
X46824570Y-106826630D01*
X46990048Y-107404546D01*
X47364089Y-107875145D01*
X47889748Y-108166783D01*
X47995192Y-108191093D01*
X48233000Y-108070440D01*
X48233000Y-105977000D01*
X46824570Y-105977000D01*
X46577000Y-105977000D01*
X46577000Y-104873370D01*
X46824570Y-104873370D01*
X46824570Y-105723000D01*
X48233000Y-105723000D01*
X48233000Y-103629560D01*
X48487000Y-103629560D01*
X48487000Y-105723000D01*
X48507000Y-105723000D01*
X48507000Y-105977000D01*
X48487000Y-105977000D01*
X48487000Y-108070440D01*
X48724808Y-108191093D01*
X48830252Y-108166783D01*
X49355911Y-107875145D01*
X49618261Y-107545070D01*
X49793018Y-107806613D01*
X50300906Y-108145973D01*
X50900000Y-108265140D01*
X51499095Y-108145973D01*
X52006983Y-107806613D01*
X52346343Y-107298725D01*
X52435430Y-106850853D01*
X52435430Y-105977000D01*
X53324570Y-105977000D01*
X53324570Y-106826630D01*
X53490048Y-107404546D01*
X53864089Y-107875145D01*
X54389748Y-108166783D01*
X54495192Y-108191093D01*
X54733000Y-108070440D01*
X54733000Y-105977000D01*
X53324570Y-105977000D01*
X52435430Y-105977000D01*
X52435430Y-104873370D01*
X53324570Y-104873370D01*
X53324570Y-105723000D01*
X54733000Y-105723000D01*
X54733000Y-103629560D01*
X54987000Y-103629560D01*
X54987000Y-105723000D01*
X55007000Y-105723000D01*
X55007000Y-105977000D01*
X54987000Y-105977000D01*
X54987000Y-108070440D01*
X55224808Y-108191093D01*
X55330252Y-108166783D01*
X55855911Y-107875145D01*
X56118261Y-107545070D01*
X56293018Y-107806613D01*
X56800906Y-108145973D01*
X57400000Y-108265140D01*
X57999095Y-108145973D01*
X58506983Y-107806613D01*
X58846343Y-107298725D01*
X58935430Y-106850853D01*
X58935430Y-105977000D01*
X59864570Y-105977000D01*
X59864570Y-106826630D01*
X60030048Y-107404546D01*
X60404089Y-107875145D01*
X60929748Y-108166783D01*
X61035192Y-108191093D01*
X61273000Y-108070440D01*
X61273000Y-105977000D01*
X59864570Y-105977000D01*
X58935430Y-105977000D01*
X58935430Y-104873370D01*
X59864570Y-104873370D01*
X59864570Y-105723000D01*
X61273000Y-105723000D01*
X61273000Y-103629560D01*
X61527000Y-103629560D01*
X61527000Y-105723000D01*
X61547000Y-105723000D01*
X61547000Y-105977000D01*
X61527000Y-105977000D01*
X61527000Y-108070440D01*
X61764808Y-108191093D01*
X61870252Y-108166783D01*
X62395911Y-107875145D01*
X62658261Y-107545070D01*
X62833018Y-107806613D01*
X63340906Y-108145973D01*
X63940000Y-108265140D01*
X64539095Y-108145973D01*
X65046983Y-107806613D01*
X65386343Y-107298725D01*
X65475430Y-106850853D01*
X65475430Y-105977000D01*
X66344570Y-105977000D01*
X66344570Y-106826630D01*
X66510048Y-107404546D01*
X66884089Y-107875145D01*
X67409748Y-108166783D01*
X67515192Y-108191093D01*
X67753000Y-108070440D01*
X67753000Y-105977000D01*
X66344570Y-105977000D01*
X65475430Y-105977000D01*
X65475430Y-104873370D01*
X66344570Y-104873370D01*
X66344570Y-105723000D01*
X67753000Y-105723000D01*
X67753000Y-103629560D01*
X68007000Y-103629560D01*
X68007000Y-105723000D01*
X68027000Y-105723000D01*
X68027000Y-105977000D01*
X68007000Y-105977000D01*
X68007000Y-108070440D01*
X68244808Y-108191093D01*
X68350252Y-108166783D01*
X68875911Y-107875145D01*
X69138261Y-107545070D01*
X69313018Y-107806613D01*
X69820906Y-108145973D01*
X70420000Y-108265140D01*
X71019095Y-108145973D01*
X71526983Y-107806613D01*
X71866343Y-107298725D01*
X71955430Y-106850853D01*
X71955430Y-106327000D01*
X78874570Y-106327000D01*
X78874570Y-107176630D01*
X79040048Y-107754546D01*
X79414089Y-108225145D01*
X79939748Y-108516783D01*
X80045192Y-108541093D01*
X80283000Y-108420440D01*
X80283000Y-106327000D01*
X78874570Y-106327000D01*
X71955430Y-106327000D01*
X71955430Y-105223370D01*
X78874570Y-105223370D01*
X78874570Y-106073000D01*
X80283000Y-106073000D01*
X80283000Y-103979560D01*
X80045192Y-103858907D01*
X79939748Y-103883217D01*
X79414089Y-104174855D01*
X79040048Y-104645454D01*
X78874570Y-105223370D01*
X71955430Y-105223370D01*
X71955430Y-104849147D01*
X71866343Y-104401275D01*
X71526983Y-103893387D01*
X71019094Y-103554027D01*
X70420000Y-103434860D01*
X69820905Y-103554027D01*
X69313017Y-103893387D01*
X69138260Y-104154929D01*
X68875911Y-103824855D01*
X68350252Y-103533217D01*
X68244808Y-103508907D01*
X68007000Y-103629560D01*
X67753000Y-103629560D01*
X67515192Y-103508907D01*
X67409748Y-103533217D01*
X66884089Y-103824855D01*
X66510048Y-104295454D01*
X66344570Y-104873370D01*
X65475430Y-104873370D01*
X65475430Y-104849147D01*
X65386343Y-104401275D01*
X65046983Y-103893387D01*
X64539094Y-103554027D01*
X63940000Y-103434860D01*
X63340905Y-103554027D01*
X62833017Y-103893387D01*
X62658260Y-104154929D01*
X62395911Y-103824855D01*
X61870252Y-103533217D01*
X61764808Y-103508907D01*
X61527000Y-103629560D01*
X61273000Y-103629560D01*
X61035192Y-103508907D01*
X60929748Y-103533217D01*
X60404089Y-103824855D01*
X60030048Y-104295454D01*
X59864570Y-104873370D01*
X58935430Y-104873370D01*
X58935430Y-104849147D01*
X58846343Y-104401275D01*
X58506983Y-103893387D01*
X57999094Y-103554027D01*
X57400000Y-103434860D01*
X56800905Y-103554027D01*
X56293017Y-103893387D01*
X56118260Y-104154929D01*
X55855911Y-103824855D01*
X55330252Y-103533217D01*
X55224808Y-103508907D01*
X54987000Y-103629560D01*
X54733000Y-103629560D01*
X54495192Y-103508907D01*
X54389748Y-103533217D01*
X53864089Y-103824855D01*
X53490048Y-104295454D01*
X53324570Y-104873370D01*
X52435430Y-104873370D01*
X52435430Y-104849147D01*
X52346343Y-104401275D01*
X52006983Y-103893387D01*
X51499094Y-103554027D01*
X50900000Y-103434860D01*
X50300905Y-103554027D01*
X49793017Y-103893387D01*
X49618260Y-104154929D01*
X49355911Y-103824855D01*
X48830252Y-103533217D01*
X48724808Y-103508907D01*
X48487000Y-103629560D01*
X48233000Y-103629560D01*
X47995192Y-103508907D01*
X47889748Y-103533217D01*
X47364089Y-103824855D01*
X46990048Y-104295454D01*
X46824570Y-104873370D01*
X46577000Y-104873370D01*
X46577000Y-102458328D01*
X46641880Y-101965515D01*
X46828884Y-101514048D01*
X47126364Y-101126364D01*
X47514048Y-100828884D01*
X47965515Y-100641880D01*
X48458328Y-100577000D01*
X82441672Y-100577000D01*
X82934485Y-100641880D01*
G04 #@! TO.N,+12V*
G36*
X82934485Y-110641880D02*
X83385952Y-110828884D01*
X83773636Y-111126364D01*
X84071116Y-111514048D01*
X84258120Y-111965515D01*
X84323000Y-112458328D01*
X84323000Y-113611577D01*
X84076983Y-113243387D01*
X83569094Y-112904027D01*
X82970000Y-112784860D01*
X82370905Y-112904027D01*
X81863017Y-113243387D01*
X81688260Y-113504929D01*
X81425911Y-113174855D01*
X80900252Y-112883217D01*
X80794808Y-112858907D01*
X80557000Y-112979560D01*
X80557000Y-115073000D01*
X80577000Y-115073000D01*
X80577000Y-115327000D01*
X80557000Y-115327000D01*
X80557000Y-117420440D01*
X80794808Y-117541093D01*
X80900252Y-117516783D01*
X81425911Y-117225145D01*
X81688261Y-116895070D01*
X81863018Y-117156613D01*
X82370906Y-117495973D01*
X82970000Y-117615140D01*
X83569095Y-117495973D01*
X84076983Y-117156613D01*
X84323000Y-116788423D01*
X84323000Y-117441672D01*
X84258120Y-117934485D01*
X84071116Y-118385952D01*
X83773636Y-118773636D01*
X83385952Y-119071116D01*
X82934485Y-119258120D01*
X82441672Y-119323000D01*
X48458328Y-119323000D01*
X47965515Y-119258120D01*
X47514048Y-119071116D01*
X47126364Y-118773636D01*
X46828884Y-118385952D01*
X46641880Y-117934485D01*
X46577000Y-117441672D01*
X46577000Y-115005431D01*
X47215000Y-115005431D01*
X47215000Y-115894569D01*
X47555259Y-116716026D01*
X48183974Y-117344741D01*
X49005431Y-117685000D01*
X49894569Y-117685000D01*
X50716026Y-117344741D01*
X51344741Y-116716026D01*
X51685000Y-115894569D01*
X51685000Y-115327000D01*
X55644570Y-115327000D01*
X55644570Y-116176630D01*
X55810048Y-116754546D01*
X56184089Y-117225145D01*
X56709748Y-117516783D01*
X56815192Y-117541093D01*
X57053000Y-117420440D01*
X57053000Y-115327000D01*
X55644570Y-115327000D01*
X51685000Y-115327000D01*
X51685000Y-115005431D01*
X51361060Y-114223370D01*
X55644570Y-114223370D01*
X55644570Y-115073000D01*
X57053000Y-115073000D01*
X57053000Y-112979560D01*
X57307000Y-112979560D01*
X57307000Y-115073000D01*
X57327000Y-115073000D01*
X57327000Y-115327000D01*
X57307000Y-115327000D01*
X57307000Y-117420440D01*
X57544808Y-117541093D01*
X57650252Y-117516783D01*
X58175911Y-117225145D01*
X58438261Y-116895070D01*
X58613018Y-117156613D01*
X59120906Y-117495973D01*
X59720000Y-117615140D01*
X60319095Y-117495973D01*
X60826983Y-117156613D01*
X61166343Y-116648725D01*
X61255430Y-116200853D01*
X61255430Y-115327000D01*
X62144570Y-115327000D01*
X62144570Y-116176630D01*
X62310048Y-116754546D01*
X62684089Y-117225145D01*
X63209748Y-117516783D01*
X63315192Y-117541093D01*
X63553000Y-117420440D01*
X63553000Y-115327000D01*
X62144570Y-115327000D01*
X61255430Y-115327000D01*
X61255430Y-114223370D01*
X62144570Y-114223370D01*
X62144570Y-115073000D01*
X63553000Y-115073000D01*
X63553000Y-112979560D01*
X63807000Y-112979560D01*
X63807000Y-115073000D01*
X63827000Y-115073000D01*
X63827000Y-115327000D01*
X63807000Y-115327000D01*
X63807000Y-117420440D01*
X64044808Y-117541093D01*
X64150252Y-117516783D01*
X64675911Y-117225145D01*
X64938261Y-116895070D01*
X65113018Y-117156613D01*
X65620906Y-117495973D01*
X66220000Y-117615140D01*
X66819095Y-117495973D01*
X67326983Y-117156613D01*
X67666343Y-116648725D01*
X67755430Y-116200853D01*
X67755430Y-115327000D01*
X68644570Y-115327000D01*
X68644570Y-116176630D01*
X68810048Y-116754546D01*
X69184089Y-117225145D01*
X69709748Y-117516783D01*
X69815192Y-117541093D01*
X70053000Y-117420440D01*
X70053000Y-115327000D01*
X68644570Y-115327000D01*
X67755430Y-115327000D01*
X67755430Y-114223370D01*
X68644570Y-114223370D01*
X68644570Y-115073000D01*
X70053000Y-115073000D01*
X70053000Y-112979560D01*
X70307000Y-112979560D01*
X70307000Y-115073000D01*
X70327000Y-115073000D01*
X70327000Y-115327000D01*
X70307000Y-115327000D01*
X70307000Y-117420440D01*
X70544808Y-117541093D01*
X70650252Y-117516783D01*
X71175911Y-117225145D01*
X71438261Y-116895070D01*
X71613018Y-117156613D01*
X72120906Y-117495973D01*
X72720000Y-117615140D01*
X73319095Y-117495973D01*
X73826983Y-117156613D01*
X74166343Y-116648725D01*
X74255430Y-116200853D01*
X74255430Y-115327000D01*
X78894570Y-115327000D01*
X78894570Y-116176630D01*
X79060048Y-116754546D01*
X79434089Y-117225145D01*
X79959748Y-117516783D01*
X80065192Y-117541093D01*
X80303000Y-117420440D01*
X80303000Y-115327000D01*
X78894570Y-115327000D01*
X74255430Y-115327000D01*
X74255430Y-114223370D01*
X78894570Y-114223370D01*
X78894570Y-115073000D01*
X80303000Y-115073000D01*
X80303000Y-112979560D01*
X80065192Y-112858907D01*
X79959748Y-112883217D01*
X79434089Y-113174855D01*
X79060048Y-113645454D01*
X78894570Y-114223370D01*
X74255430Y-114223370D01*
X74255430Y-114199147D01*
X74166343Y-113751275D01*
X73826983Y-113243387D01*
X73319094Y-112904027D01*
X72720000Y-112784860D01*
X72120905Y-112904027D01*
X71613017Y-113243387D01*
X71438260Y-113504929D01*
X71175911Y-113174855D01*
X70650252Y-112883217D01*
X70544808Y-112858907D01*
X70307000Y-112979560D01*
X70053000Y-112979560D01*
X69815192Y-112858907D01*
X69709748Y-112883217D01*
X69184089Y-113174855D01*
X68810048Y-113645454D01*
X68644570Y-114223370D01*
X67755430Y-114223370D01*
X67755430Y-114199147D01*
X67666343Y-113751275D01*
X67326983Y-113243387D01*
X66819094Y-112904027D01*
X66220000Y-112784860D01*
X65620905Y-112904027D01*
X65113017Y-113243387D01*
X64938260Y-113504929D01*
X64675911Y-113174855D01*
X64150252Y-112883217D01*
X64044808Y-112858907D01*
X63807000Y-112979560D01*
X63553000Y-112979560D01*
X63315192Y-112858907D01*
X63209748Y-112883217D01*
X62684089Y-113174855D01*
X62310048Y-113645454D01*
X62144570Y-114223370D01*
X61255430Y-114223370D01*
X61255430Y-114199147D01*
X61166343Y-113751275D01*
X60826983Y-113243387D01*
X60319094Y-112904027D01*
X59720000Y-112784860D01*
X59120905Y-112904027D01*
X58613017Y-113243387D01*
X58438260Y-113504929D01*
X58175911Y-113174855D01*
X57650252Y-112883217D01*
X57544808Y-112858907D01*
X57307000Y-112979560D01*
X57053000Y-112979560D01*
X56815192Y-112858907D01*
X56709748Y-112883217D01*
X56184089Y-113174855D01*
X55810048Y-113645454D01*
X55644570Y-114223370D01*
X51361060Y-114223370D01*
X51344741Y-114183974D01*
X50716026Y-113555259D01*
X49894569Y-113215000D01*
X49005431Y-113215000D01*
X48183974Y-113555259D01*
X47555259Y-114183974D01*
X47215000Y-115005431D01*
X46577000Y-115005431D01*
X46577000Y-112458328D01*
X46641880Y-111965515D01*
X46828884Y-111514048D01*
X47126364Y-111126364D01*
X47514048Y-110828884D01*
X47965515Y-110641880D01*
X48458328Y-110577000D01*
X82441672Y-110577000D01*
X82934485Y-110641880D01*
X82934485Y-110641880D01*
G37*
X82934485Y-110641880D02*
X83385952Y-110828884D01*
X83773636Y-111126364D01*
X84071116Y-111514048D01*
X84258120Y-111965515D01*
X84323000Y-112458328D01*
X84323000Y-113611577D01*
X84076983Y-113243387D01*
X83569094Y-112904027D01*
X82970000Y-112784860D01*
X82370905Y-112904027D01*
X81863017Y-113243387D01*
X81688260Y-113504929D01*
X81425911Y-113174855D01*
X80900252Y-112883217D01*
X80794808Y-112858907D01*
X80557000Y-112979560D01*
X80557000Y-115073000D01*
X80577000Y-115073000D01*
X80577000Y-115327000D01*
X80557000Y-115327000D01*
X80557000Y-117420440D01*
X80794808Y-117541093D01*
X80900252Y-117516783D01*
X81425911Y-117225145D01*
X81688261Y-116895070D01*
X81863018Y-117156613D01*
X82370906Y-117495973D01*
X82970000Y-117615140D01*
X83569095Y-117495973D01*
X84076983Y-117156613D01*
X84323000Y-116788423D01*
X84323000Y-117441672D01*
X84258120Y-117934485D01*
X84071116Y-118385952D01*
X83773636Y-118773636D01*
X83385952Y-119071116D01*
X82934485Y-119258120D01*
X82441672Y-119323000D01*
X48458328Y-119323000D01*
X47965515Y-119258120D01*
X47514048Y-119071116D01*
X47126364Y-118773636D01*
X46828884Y-118385952D01*
X46641880Y-117934485D01*
X46577000Y-117441672D01*
X46577000Y-115005431D01*
X47215000Y-115005431D01*
X47215000Y-115894569D01*
X47555259Y-116716026D01*
X48183974Y-117344741D01*
X49005431Y-117685000D01*
X49894569Y-117685000D01*
X50716026Y-117344741D01*
X51344741Y-116716026D01*
X51685000Y-115894569D01*
X51685000Y-115327000D01*
X55644570Y-115327000D01*
X55644570Y-116176630D01*
X55810048Y-116754546D01*
X56184089Y-117225145D01*
X56709748Y-117516783D01*
X56815192Y-117541093D01*
X57053000Y-117420440D01*
X57053000Y-115327000D01*
X55644570Y-115327000D01*
X51685000Y-115327000D01*
X51685000Y-115005431D01*
X51361060Y-114223370D01*
X55644570Y-114223370D01*
X55644570Y-115073000D01*
X57053000Y-115073000D01*
X57053000Y-112979560D01*
X57307000Y-112979560D01*
X57307000Y-115073000D01*
X57327000Y-115073000D01*
X57327000Y-115327000D01*
X57307000Y-115327000D01*
X57307000Y-117420440D01*
X57544808Y-117541093D01*
X57650252Y-117516783D01*
X58175911Y-117225145D01*
X58438261Y-116895070D01*
X58613018Y-117156613D01*
X59120906Y-117495973D01*
X59720000Y-117615140D01*
X60319095Y-117495973D01*
X60826983Y-117156613D01*
X61166343Y-116648725D01*
X61255430Y-116200853D01*
X61255430Y-115327000D01*
X62144570Y-115327000D01*
X62144570Y-116176630D01*
X62310048Y-116754546D01*
X62684089Y-117225145D01*
X63209748Y-117516783D01*
X63315192Y-117541093D01*
X63553000Y-117420440D01*
X63553000Y-115327000D01*
X62144570Y-115327000D01*
X61255430Y-115327000D01*
X61255430Y-114223370D01*
X62144570Y-114223370D01*
X62144570Y-115073000D01*
X63553000Y-115073000D01*
X63553000Y-112979560D01*
X63807000Y-112979560D01*
X63807000Y-115073000D01*
X63827000Y-115073000D01*
X63827000Y-115327000D01*
X63807000Y-115327000D01*
X63807000Y-117420440D01*
X64044808Y-117541093D01*
X64150252Y-117516783D01*
X64675911Y-117225145D01*
X64938261Y-116895070D01*
X65113018Y-117156613D01*
X65620906Y-117495973D01*
X66220000Y-117615140D01*
X66819095Y-117495973D01*
X67326983Y-117156613D01*
X67666343Y-116648725D01*
X67755430Y-116200853D01*
X67755430Y-115327000D01*
X68644570Y-115327000D01*
X68644570Y-116176630D01*
X68810048Y-116754546D01*
X69184089Y-117225145D01*
X69709748Y-117516783D01*
X69815192Y-117541093D01*
X70053000Y-117420440D01*
X70053000Y-115327000D01*
X68644570Y-115327000D01*
X67755430Y-115327000D01*
X67755430Y-114223370D01*
X68644570Y-114223370D01*
X68644570Y-115073000D01*
X70053000Y-115073000D01*
X70053000Y-112979560D01*
X70307000Y-112979560D01*
X70307000Y-115073000D01*
X70327000Y-115073000D01*
X70327000Y-115327000D01*
X70307000Y-115327000D01*
X70307000Y-117420440D01*
X70544808Y-117541093D01*
X70650252Y-117516783D01*
X71175911Y-117225145D01*
X71438261Y-116895070D01*
X71613018Y-117156613D01*
X72120906Y-117495973D01*
X72720000Y-117615140D01*
X73319095Y-117495973D01*
X73826983Y-117156613D01*
X74166343Y-116648725D01*
X74255430Y-116200853D01*
X74255430Y-115327000D01*
X78894570Y-115327000D01*
X78894570Y-116176630D01*
X79060048Y-116754546D01*
X79434089Y-117225145D01*
X79959748Y-117516783D01*
X80065192Y-117541093D01*
X80303000Y-117420440D01*
X80303000Y-115327000D01*
X78894570Y-115327000D01*
X74255430Y-115327000D01*
X74255430Y-114223370D01*
X78894570Y-114223370D01*
X78894570Y-115073000D01*
X80303000Y-115073000D01*
X80303000Y-112979560D01*
X80065192Y-112858907D01*
X79959748Y-112883217D01*
X79434089Y-113174855D01*
X79060048Y-113645454D01*
X78894570Y-114223370D01*
X74255430Y-114223370D01*
X74255430Y-114199147D01*
X74166343Y-113751275D01*
X73826983Y-113243387D01*
X73319094Y-112904027D01*
X72720000Y-112784860D01*
X72120905Y-112904027D01*
X71613017Y-113243387D01*
X71438260Y-113504929D01*
X71175911Y-113174855D01*
X70650252Y-112883217D01*
X70544808Y-112858907D01*
X70307000Y-112979560D01*
X70053000Y-112979560D01*
X69815192Y-112858907D01*
X69709748Y-112883217D01*
X69184089Y-113174855D01*
X68810048Y-113645454D01*
X68644570Y-114223370D01*
X67755430Y-114223370D01*
X67755430Y-114199147D01*
X67666343Y-113751275D01*
X67326983Y-113243387D01*
X66819094Y-112904027D01*
X66220000Y-112784860D01*
X65620905Y-112904027D01*
X65113017Y-113243387D01*
X64938260Y-113504929D01*
X64675911Y-113174855D01*
X64150252Y-112883217D01*
X64044808Y-112858907D01*
X63807000Y-112979560D01*
X63553000Y-112979560D01*
X63315192Y-112858907D01*
X63209748Y-112883217D01*
X62684089Y-113174855D01*
X62310048Y-113645454D01*
X62144570Y-114223370D01*
X61255430Y-114223370D01*
X61255430Y-114199147D01*
X61166343Y-113751275D01*
X60826983Y-113243387D01*
X60319094Y-112904027D01*
X59720000Y-112784860D01*
X59120905Y-112904027D01*
X58613017Y-113243387D01*
X58438260Y-113504929D01*
X58175911Y-113174855D01*
X57650252Y-112883217D01*
X57544808Y-112858907D01*
X57307000Y-112979560D01*
X57053000Y-112979560D01*
X56815192Y-112858907D01*
X56709748Y-112883217D01*
X56184089Y-113174855D01*
X55810048Y-113645454D01*
X55644570Y-114223370D01*
X51361060Y-114223370D01*
X51344741Y-114183974D01*
X50716026Y-113555259D01*
X49894569Y-113215000D01*
X49005431Y-113215000D01*
X48183974Y-113555259D01*
X47555259Y-114183974D01*
X47215000Y-115005431D01*
X46577000Y-115005431D01*
X46577000Y-112458328D01*
X46641880Y-111965515D01*
X46828884Y-111514048D01*
X47126364Y-111126364D01*
X47514048Y-110828884D01*
X47965515Y-110641880D01*
X48458328Y-110577000D01*
X82441672Y-110577000D01*
X82934485Y-110641880D01*
G04 #@! TD*
M02*
