M48
;DRILL file {KiCad 5.0.1-33cea8e~68~ubuntu16.04.1} date Sat 13 Apr 2019 16:41:18 EDT
;FORMAT={3:3/ absolute / metric / suppress leading zeros}
FMAT,2
METRIC,TZ
T1C0.500
T2C0.600
T3C1.199
T4C1.400
T5C1.500
T6C2.000
T7C3.200
%
G90
G05
M71
T1
X179050Y-114200
X179753Y-112503
X179753Y-115897
X181450Y-111800
X181450Y-116600
X183147Y-112503
X183147Y-115897
X183850Y-114200
T2
X57950Y-124950
X58950Y-124950
T3
X57180Y-115200
X59720Y-115200
X79200Y-133200
X81740Y-133200
X179160Y-133950
X181700Y-133950
X70180Y-115200
X72720Y-115200
X61400Y-105850
X63940Y-105850
X70930Y-124950
X73470Y-124950
X80430Y-115200
X82970Y-115200
X48360Y-105850
X50900Y-105850
X67880Y-105850
X70420Y-105850
X79200Y-124950
X81740Y-124950
X62700Y-133200
X65240Y-133200
X62660Y-124950
X65200Y-124950
X70910Y-133200
X73450Y-133200
X54860Y-105850
X57400Y-105850
X80410Y-106200
X82950Y-106200
X63680Y-115200
X66220Y-115200
T4
X168330Y-105200
X175700Y-105200
T5
X170950Y-114100
X170950Y-136700
T6
X145950Y-113200
X145950Y-123200
X105950Y-113200
X105950Y-123200
T7
X181450Y-114200
T0
M30
