G04 #@! TF.GenerationSoftware,KiCad,Pcbnew,5.0.1-33cea8e~68~ubuntu16.04.1*
G04 #@! TF.CreationDate,2019-04-14T14:52:50-04:00*
G04 #@! TF.ProjectId,filterbuffer,66696C7465726275666665722E6B6963,rev?*
G04 #@! TF.SameCoordinates,Original*
G04 #@! TF.FileFunction,Legend,Top*
G04 #@! TF.FilePolarity,Positive*
%FSLAX46Y46*%
G04 Gerber Fmt 4.6, Leading zero omitted, Abs format (unit mm)*
G04 Created by KiCad (PCBNEW 5.0.1-33cea8e~68~ubuntu16.04.1) date Sun 14 Apr 2019 14:52:50 EDT*
%MOMM*%
%LPD*%
G01*
G04 APERTURE LIST*
%ADD10C,0.120000*%
%ADD11C,0.150000*%
G04 APERTURE END LIST*
D10*
G04 #@! TO.C,C1*
X125320000Y-118200000D02*
G75*
G03X125320000Y-118200000I-17620000J0D01*
G01*
X125280000Y-118200000D02*
X90120000Y-118200000D01*
X125280000Y-118240000D02*
X90120000Y-118240000D01*
X125280000Y-118280000D02*
X90120000Y-118280000D01*
X125280000Y-118320000D02*
X90120000Y-118320000D01*
X125280000Y-118360000D02*
X90120000Y-118360000D01*
X125279000Y-118400000D02*
X90121000Y-118400000D01*
X125279000Y-118440000D02*
X90121000Y-118440000D01*
X125278000Y-118480000D02*
X90122000Y-118480000D01*
X125278000Y-118520000D02*
X90122000Y-118520000D01*
X125277000Y-118560000D02*
X90123000Y-118560000D01*
X125276000Y-118600000D02*
X90124000Y-118600000D01*
X125275000Y-118640000D02*
X90125000Y-118640000D01*
X125274000Y-118680000D02*
X90126000Y-118680000D01*
X125273000Y-118720000D02*
X90127000Y-118720000D01*
X125272000Y-118760000D02*
X90128000Y-118760000D01*
X125270000Y-118800000D02*
X90130000Y-118800000D01*
X125269000Y-118840000D02*
X90131000Y-118840000D01*
X125267000Y-118880000D02*
X90133000Y-118880000D01*
X125266000Y-118921000D02*
X90134000Y-118921000D01*
X125264000Y-118961000D02*
X90136000Y-118961000D01*
X125262000Y-119001000D02*
X90138000Y-119001000D01*
X125260000Y-119041000D02*
X90140000Y-119041000D01*
X125259000Y-119081000D02*
X90141000Y-119081000D01*
X125256000Y-119121000D02*
X90144000Y-119121000D01*
X125254000Y-119161000D02*
X90146000Y-119161000D01*
X125252000Y-119201000D02*
X90148000Y-119201000D01*
X125250000Y-119241000D02*
X90150000Y-119241000D01*
X125247000Y-119281000D02*
X90153000Y-119281000D01*
X125245000Y-119321000D02*
X90155000Y-119321000D01*
X125242000Y-119361000D02*
X90158000Y-119361000D01*
X125240000Y-119401000D02*
X90160000Y-119401000D01*
X125237000Y-119441000D02*
X90163000Y-119441000D01*
X125234000Y-119481000D02*
X90166000Y-119481000D01*
X125231000Y-119521000D02*
X90169000Y-119521000D01*
X125228000Y-119561000D02*
X90172000Y-119561000D01*
X125225000Y-119601000D02*
X90175000Y-119601000D01*
X125222000Y-119641000D02*
X90178000Y-119641000D01*
X125218000Y-119681000D02*
X90182000Y-119681000D01*
X125215000Y-119721000D02*
X90185000Y-119721000D01*
X125211000Y-119761000D02*
X90189000Y-119761000D01*
X125208000Y-119801000D02*
X90192000Y-119801000D01*
X125204000Y-119841000D02*
X90196000Y-119841000D01*
X125200000Y-119881000D02*
X90200000Y-119881000D01*
X125196000Y-119921000D02*
X90204000Y-119921000D01*
X125192000Y-119961000D02*
X90208000Y-119961000D01*
X125188000Y-120001000D02*
X90212000Y-120001000D01*
X125184000Y-120041000D02*
X90216000Y-120041000D01*
X125180000Y-120081000D02*
X90220000Y-120081000D01*
X125176000Y-120121000D02*
X90224000Y-120121000D01*
X125171000Y-120161000D02*
X90229000Y-120161000D01*
X125167000Y-120201000D02*
X90233000Y-120201000D01*
X125162000Y-120241000D02*
X90238000Y-120241000D01*
X125157000Y-120281000D02*
X90243000Y-120281000D01*
X125152000Y-120321000D02*
X90248000Y-120321000D01*
X125148000Y-120361000D02*
X90252000Y-120361000D01*
X125143000Y-120401000D02*
X90257000Y-120401000D01*
X125138000Y-120441000D02*
X90262000Y-120441000D01*
X125132000Y-120481000D02*
X90268000Y-120481000D01*
X125127000Y-120521000D02*
X90273000Y-120521000D01*
X125122000Y-120561000D02*
X90278000Y-120561000D01*
X125116000Y-120601000D02*
X90284000Y-120601000D01*
X125111000Y-120641000D02*
X90289000Y-120641000D01*
X125105000Y-120681000D02*
X90295000Y-120681000D01*
X125099000Y-120721000D02*
X90301000Y-120721000D01*
X125094000Y-120761000D02*
X90306000Y-120761000D01*
X125088000Y-120801000D02*
X90312000Y-120801000D01*
X125082000Y-120841000D02*
X90318000Y-120841000D01*
X125075000Y-120881000D02*
X90325000Y-120881000D01*
X125069000Y-120921000D02*
X90331000Y-120921000D01*
X125063000Y-120961000D02*
X109940000Y-120961000D01*
X105460000Y-120961000D02*
X90337000Y-120961000D01*
X125057000Y-121001000D02*
X109940000Y-121001000D01*
X105460000Y-121001000D02*
X90343000Y-121001000D01*
X125050000Y-121041000D02*
X109940000Y-121041000D01*
X105460000Y-121041000D02*
X90350000Y-121041000D01*
X125044000Y-121081000D02*
X109940000Y-121081000D01*
X105460000Y-121081000D02*
X90356000Y-121081000D01*
X125037000Y-121121000D02*
X109940000Y-121121000D01*
X105460000Y-121121000D02*
X90363000Y-121121000D01*
X125030000Y-121161000D02*
X109940000Y-121161000D01*
X105460000Y-121161000D02*
X90370000Y-121161000D01*
X125023000Y-121201000D02*
X109940000Y-121201000D01*
X105460000Y-121201000D02*
X90377000Y-121201000D01*
X125016000Y-121241000D02*
X109940000Y-121241000D01*
X105460000Y-121241000D02*
X90384000Y-121241000D01*
X125009000Y-121281000D02*
X109940000Y-121281000D01*
X105460000Y-121281000D02*
X90391000Y-121281000D01*
X125002000Y-121321000D02*
X109940000Y-121321000D01*
X105460000Y-121321000D02*
X90398000Y-121321000D01*
X124995000Y-121361000D02*
X109940000Y-121361000D01*
X105460000Y-121361000D02*
X90405000Y-121361000D01*
X124987000Y-121401000D02*
X109940000Y-121401000D01*
X105460000Y-121401000D02*
X90413000Y-121401000D01*
X124980000Y-121441000D02*
X109940000Y-121441000D01*
X105460000Y-121441000D02*
X90420000Y-121441000D01*
X124973000Y-121481000D02*
X109940000Y-121481000D01*
X105460000Y-121481000D02*
X90427000Y-121481000D01*
X124965000Y-121521000D02*
X109940000Y-121521000D01*
X105460000Y-121521000D02*
X90435000Y-121521000D01*
X124957000Y-121561000D02*
X109940000Y-121561000D01*
X105460000Y-121561000D02*
X90443000Y-121561000D01*
X124949000Y-121601000D02*
X109940000Y-121601000D01*
X105460000Y-121601000D02*
X90451000Y-121601000D01*
X124941000Y-121641000D02*
X109940000Y-121641000D01*
X105460000Y-121641000D02*
X90459000Y-121641000D01*
X124933000Y-121681000D02*
X109940000Y-121681000D01*
X105460000Y-121681000D02*
X90467000Y-121681000D01*
X124925000Y-121721000D02*
X109940000Y-121721000D01*
X105460000Y-121721000D02*
X90475000Y-121721000D01*
X124917000Y-121761000D02*
X109940000Y-121761000D01*
X105460000Y-121761000D02*
X90483000Y-121761000D01*
X124909000Y-121801000D02*
X109940000Y-121801000D01*
X105460000Y-121801000D02*
X90491000Y-121801000D01*
X124900000Y-121841000D02*
X109940000Y-121841000D01*
X105460000Y-121841000D02*
X90500000Y-121841000D01*
X124892000Y-121881000D02*
X109940000Y-121881000D01*
X105460000Y-121881000D02*
X90508000Y-121881000D01*
X124883000Y-121921000D02*
X109940000Y-121921000D01*
X105460000Y-121921000D02*
X90517000Y-121921000D01*
X124875000Y-121961000D02*
X109940000Y-121961000D01*
X105460000Y-121961000D02*
X90525000Y-121961000D01*
X124866000Y-122001000D02*
X109940000Y-122001000D01*
X105460000Y-122001000D02*
X90534000Y-122001000D01*
X124857000Y-122041000D02*
X109940000Y-122041000D01*
X105460000Y-122041000D02*
X90543000Y-122041000D01*
X124848000Y-122081000D02*
X109940000Y-122081000D01*
X105460000Y-122081000D02*
X90552000Y-122081000D01*
X124839000Y-122121000D02*
X109940000Y-122121000D01*
X105460000Y-122121000D02*
X90561000Y-122121000D01*
X124830000Y-122161000D02*
X109940000Y-122161000D01*
X105460000Y-122161000D02*
X90570000Y-122161000D01*
X124820000Y-122201000D02*
X109940000Y-122201000D01*
X105460000Y-122201000D02*
X90580000Y-122201000D01*
X124811000Y-122241000D02*
X109940000Y-122241000D01*
X105460000Y-122241000D02*
X90589000Y-122241000D01*
X124802000Y-122281000D02*
X109940000Y-122281000D01*
X105460000Y-122281000D02*
X90598000Y-122281000D01*
X124792000Y-122321000D02*
X109940000Y-122321000D01*
X105460000Y-122321000D02*
X90608000Y-122321000D01*
X124782000Y-122361000D02*
X109940000Y-122361000D01*
X105460000Y-122361000D02*
X90618000Y-122361000D01*
X124773000Y-122401000D02*
X109940000Y-122401000D01*
X105460000Y-122401000D02*
X90627000Y-122401000D01*
X124763000Y-122441000D02*
X109940000Y-122441000D01*
X105460000Y-122441000D02*
X90637000Y-122441000D01*
X124753000Y-122481000D02*
X109940000Y-122481000D01*
X105460000Y-122481000D02*
X90647000Y-122481000D01*
X124743000Y-122521000D02*
X109940000Y-122521000D01*
X105460000Y-122521000D02*
X90657000Y-122521000D01*
X124733000Y-122561000D02*
X109940000Y-122561000D01*
X105460000Y-122561000D02*
X90667000Y-122561000D01*
X124722000Y-122601000D02*
X109940000Y-122601000D01*
X105460000Y-122601000D02*
X90678000Y-122601000D01*
X124712000Y-122641000D02*
X109940000Y-122641000D01*
X105460000Y-122641000D02*
X90688000Y-122641000D01*
X124701000Y-122681000D02*
X109940000Y-122681000D01*
X105460000Y-122681000D02*
X90699000Y-122681000D01*
X124691000Y-122721000D02*
X109940000Y-122721000D01*
X105460000Y-122721000D02*
X90709000Y-122721000D01*
X124680000Y-122761000D02*
X109940000Y-122761000D01*
X105460000Y-122761000D02*
X90720000Y-122761000D01*
X124669000Y-122801000D02*
X109940000Y-122801000D01*
X105460000Y-122801000D02*
X90731000Y-122801000D01*
X124659000Y-122841000D02*
X109940000Y-122841000D01*
X105460000Y-122841000D02*
X90741000Y-122841000D01*
X124648000Y-122881000D02*
X109940000Y-122881000D01*
X105460000Y-122881000D02*
X90752000Y-122881000D01*
X124637000Y-122921000D02*
X109940000Y-122921000D01*
X105460000Y-122921000D02*
X90763000Y-122921000D01*
X124625000Y-122961000D02*
X109940000Y-122961000D01*
X105460000Y-122961000D02*
X90775000Y-122961000D01*
X124614000Y-123001000D02*
X109940000Y-123001000D01*
X105460000Y-123001000D02*
X90786000Y-123001000D01*
X124603000Y-123041000D02*
X109940000Y-123041000D01*
X105460000Y-123041000D02*
X90797000Y-123041000D01*
X124591000Y-123081000D02*
X109940000Y-123081000D01*
X105460000Y-123081000D02*
X90809000Y-123081000D01*
X124580000Y-123121000D02*
X109940000Y-123121000D01*
X105460000Y-123121000D02*
X90820000Y-123121000D01*
X124568000Y-123161000D02*
X109940000Y-123161000D01*
X105460000Y-123161000D02*
X90832000Y-123161000D01*
X124556000Y-123201000D02*
X109940000Y-123201000D01*
X105460000Y-123201000D02*
X90844000Y-123201000D01*
X124544000Y-123241000D02*
X109940000Y-123241000D01*
X105460000Y-123241000D02*
X90856000Y-123241000D01*
X124532000Y-123281000D02*
X109940000Y-123281000D01*
X105460000Y-123281000D02*
X90868000Y-123281000D01*
X124520000Y-123321000D02*
X109940000Y-123321000D01*
X105460000Y-123321000D02*
X90880000Y-123321000D01*
X124508000Y-123361000D02*
X109940000Y-123361000D01*
X105460000Y-123361000D02*
X90892000Y-123361000D01*
X124496000Y-123401000D02*
X109940000Y-123401000D01*
X105460000Y-123401000D02*
X90904000Y-123401000D01*
X124483000Y-123441000D02*
X109940000Y-123441000D01*
X105460000Y-123441000D02*
X90917000Y-123441000D01*
X124471000Y-123481000D02*
X109940000Y-123481000D01*
X105460000Y-123481000D02*
X90929000Y-123481000D01*
X124458000Y-123521000D02*
X109940000Y-123521000D01*
X105460000Y-123521000D02*
X90942000Y-123521000D01*
X124445000Y-123561000D02*
X109940000Y-123561000D01*
X105460000Y-123561000D02*
X90955000Y-123561000D01*
X124433000Y-123601000D02*
X109940000Y-123601000D01*
X105460000Y-123601000D02*
X90967000Y-123601000D01*
X124420000Y-123641000D02*
X109940000Y-123641000D01*
X105460000Y-123641000D02*
X90980000Y-123641000D01*
X124407000Y-123681000D02*
X109940000Y-123681000D01*
X105460000Y-123681000D02*
X90993000Y-123681000D01*
X124394000Y-123721000D02*
X109940000Y-123721000D01*
X105460000Y-123721000D02*
X91006000Y-123721000D01*
X124380000Y-123761000D02*
X109940000Y-123761000D01*
X105460000Y-123761000D02*
X91020000Y-123761000D01*
X124367000Y-123801000D02*
X109940000Y-123801000D01*
X105460000Y-123801000D02*
X91033000Y-123801000D01*
X124353000Y-123841000D02*
X109940000Y-123841000D01*
X105460000Y-123841000D02*
X91047000Y-123841000D01*
X124340000Y-123881000D02*
X109940000Y-123881000D01*
X105460000Y-123881000D02*
X91060000Y-123881000D01*
X124326000Y-123921000D02*
X109940000Y-123921000D01*
X105460000Y-123921000D02*
X91074000Y-123921000D01*
X124312000Y-123961000D02*
X109940000Y-123961000D01*
X105460000Y-123961000D02*
X91088000Y-123961000D01*
X124299000Y-124001000D02*
X109940000Y-124001000D01*
X105460000Y-124001000D02*
X91101000Y-124001000D01*
X124285000Y-124041000D02*
X109940000Y-124041000D01*
X105460000Y-124041000D02*
X91115000Y-124041000D01*
X124270000Y-124081000D02*
X109940000Y-124081000D01*
X105460000Y-124081000D02*
X91130000Y-124081000D01*
X124256000Y-124121000D02*
X109940000Y-124121000D01*
X105460000Y-124121000D02*
X91144000Y-124121000D01*
X124242000Y-124161000D02*
X109940000Y-124161000D01*
X105460000Y-124161000D02*
X91158000Y-124161000D01*
X124227000Y-124201000D02*
X109940000Y-124201000D01*
X105460000Y-124201000D02*
X91173000Y-124201000D01*
X124213000Y-124241000D02*
X109940000Y-124241000D01*
X105460000Y-124241000D02*
X91187000Y-124241000D01*
X124198000Y-124281000D02*
X109940000Y-124281000D01*
X105460000Y-124281000D02*
X91202000Y-124281000D01*
X124184000Y-124321000D02*
X109940000Y-124321000D01*
X105460000Y-124321000D02*
X91216000Y-124321000D01*
X124169000Y-124361000D02*
X109940000Y-124361000D01*
X105460000Y-124361000D02*
X91231000Y-124361000D01*
X124154000Y-124401000D02*
X109940000Y-124401000D01*
X105460000Y-124401000D02*
X91246000Y-124401000D01*
X124139000Y-124441000D02*
X109940000Y-124441000D01*
X105460000Y-124441000D02*
X91261000Y-124441000D01*
X124123000Y-124481000D02*
X109940000Y-124481000D01*
X105460000Y-124481000D02*
X91277000Y-124481000D01*
X124108000Y-124521000D02*
X109940000Y-124521000D01*
X105460000Y-124521000D02*
X91292000Y-124521000D01*
X124093000Y-124561000D02*
X109940000Y-124561000D01*
X105460000Y-124561000D02*
X91307000Y-124561000D01*
X124077000Y-124601000D02*
X109940000Y-124601000D01*
X105460000Y-124601000D02*
X91323000Y-124601000D01*
X124061000Y-124641000D02*
X109940000Y-124641000D01*
X105460000Y-124641000D02*
X91339000Y-124641000D01*
X124046000Y-124681000D02*
X109940000Y-124681000D01*
X105460000Y-124681000D02*
X91354000Y-124681000D01*
X124030000Y-124721000D02*
X109940000Y-124721000D01*
X105460000Y-124721000D02*
X91370000Y-124721000D01*
X124014000Y-124761000D02*
X109940000Y-124761000D01*
X105460000Y-124761000D02*
X91386000Y-124761000D01*
X123998000Y-124801000D02*
X109940000Y-124801000D01*
X105460000Y-124801000D02*
X91402000Y-124801000D01*
X123981000Y-124841000D02*
X109940000Y-124841000D01*
X105460000Y-124841000D02*
X91419000Y-124841000D01*
X123965000Y-124881000D02*
X109940000Y-124881000D01*
X105460000Y-124881000D02*
X91435000Y-124881000D01*
X123949000Y-124921000D02*
X109940000Y-124921000D01*
X105460000Y-124921000D02*
X91451000Y-124921000D01*
X123932000Y-124961000D02*
X109940000Y-124961000D01*
X105460000Y-124961000D02*
X91468000Y-124961000D01*
X123915000Y-125001000D02*
X109940000Y-125001000D01*
X105460000Y-125001000D02*
X91485000Y-125001000D01*
X123899000Y-125041000D02*
X109940000Y-125041000D01*
X105460000Y-125041000D02*
X91501000Y-125041000D01*
X123882000Y-125081000D02*
X109940000Y-125081000D01*
X105460000Y-125081000D02*
X91518000Y-125081000D01*
X123865000Y-125121000D02*
X109940000Y-125121000D01*
X105460000Y-125121000D02*
X91535000Y-125121000D01*
X123848000Y-125161000D02*
X109940000Y-125161000D01*
X105460000Y-125161000D02*
X91552000Y-125161000D01*
X123830000Y-125201000D02*
X109940000Y-125201000D01*
X105460000Y-125201000D02*
X91570000Y-125201000D01*
X123813000Y-125241000D02*
X109940000Y-125241000D01*
X105460000Y-125241000D02*
X91587000Y-125241000D01*
X123795000Y-125281000D02*
X109940000Y-125281000D01*
X105460000Y-125281000D02*
X91605000Y-125281000D01*
X123778000Y-125321000D02*
X109940000Y-125321000D01*
X105460000Y-125321000D02*
X91622000Y-125321000D01*
X123760000Y-125361000D02*
X109940000Y-125361000D01*
X105460000Y-125361000D02*
X91640000Y-125361000D01*
X123742000Y-125401000D02*
X109940000Y-125401000D01*
X105460000Y-125401000D02*
X91658000Y-125401000D01*
X123724000Y-125441000D02*
X91676000Y-125441000D01*
X123706000Y-125481000D02*
X91694000Y-125481000D01*
X123688000Y-125521000D02*
X91712000Y-125521000D01*
X123670000Y-125561000D02*
X91730000Y-125561000D01*
X123651000Y-125601000D02*
X91749000Y-125601000D01*
X123633000Y-125641000D02*
X91767000Y-125641000D01*
X123614000Y-125681000D02*
X91786000Y-125681000D01*
X123595000Y-125721000D02*
X91805000Y-125721000D01*
X123576000Y-125761000D02*
X91824000Y-125761000D01*
X123557000Y-125801000D02*
X91843000Y-125801000D01*
X123538000Y-125841000D02*
X91862000Y-125841000D01*
X123519000Y-125881000D02*
X91881000Y-125881000D01*
X123499000Y-125921000D02*
X91901000Y-125921000D01*
X123480000Y-125961000D02*
X91920000Y-125961000D01*
X123460000Y-126001000D02*
X91940000Y-126001000D01*
X123440000Y-126041000D02*
X91960000Y-126041000D01*
X123420000Y-126081000D02*
X91980000Y-126081000D01*
X123400000Y-126121000D02*
X92000000Y-126121000D01*
X123380000Y-126161000D02*
X92020000Y-126161000D01*
X123360000Y-126201000D02*
X92040000Y-126201000D01*
X123339000Y-126241000D02*
X92061000Y-126241000D01*
X123319000Y-126281000D02*
X92081000Y-126281000D01*
X123298000Y-126321000D02*
X92102000Y-126321000D01*
X123277000Y-126361000D02*
X92123000Y-126361000D01*
X123256000Y-126400000D02*
X92144000Y-126400000D01*
X123235000Y-126440000D02*
X92165000Y-126440000D01*
X123214000Y-126480000D02*
X92186000Y-126480000D01*
X123192000Y-126520000D02*
X92208000Y-126520000D01*
X123171000Y-126560000D02*
X92229000Y-126560000D01*
X123149000Y-126600000D02*
X92251000Y-126600000D01*
X123128000Y-126640000D02*
X92272000Y-126640000D01*
X123106000Y-126680000D02*
X92294000Y-126680000D01*
X123084000Y-126720000D02*
X92316000Y-126720000D01*
X123061000Y-126760000D02*
X92339000Y-126760000D01*
X123039000Y-126800000D02*
X92361000Y-126800000D01*
X123017000Y-126840000D02*
X92383000Y-126840000D01*
X122994000Y-126880000D02*
X92406000Y-126880000D01*
X122971000Y-126920000D02*
X92429000Y-126920000D01*
X122949000Y-126960000D02*
X92451000Y-126960000D01*
X122926000Y-127000000D02*
X92474000Y-127000000D01*
X122903000Y-127040000D02*
X92497000Y-127040000D01*
X122879000Y-127080000D02*
X92521000Y-127080000D01*
X122856000Y-127120000D02*
X92544000Y-127120000D01*
X122832000Y-127160000D02*
X92568000Y-127160000D01*
X122809000Y-127200000D02*
X92591000Y-127200000D01*
X122785000Y-127240000D02*
X92615000Y-127240000D01*
X122761000Y-127280000D02*
X92639000Y-127280000D01*
X122737000Y-127320000D02*
X92663000Y-127320000D01*
X122712000Y-127360000D02*
X92688000Y-127360000D01*
X122688000Y-127400000D02*
X92712000Y-127400000D01*
X122663000Y-127440000D02*
X92737000Y-127440000D01*
X122639000Y-127480000D02*
X92761000Y-127480000D01*
X122614000Y-127520000D02*
X92786000Y-127520000D01*
X122589000Y-127560000D02*
X92811000Y-127560000D01*
X122564000Y-127600000D02*
X92836000Y-127600000D01*
X122538000Y-127640000D02*
X92862000Y-127640000D01*
X122513000Y-127680000D02*
X92887000Y-127680000D01*
X122487000Y-127720000D02*
X92913000Y-127720000D01*
X122462000Y-127760000D02*
X92938000Y-127760000D01*
X122436000Y-127800000D02*
X92964000Y-127800000D01*
X122410000Y-127840000D02*
X92990000Y-127840000D01*
X122383000Y-127880000D02*
X93017000Y-127880000D01*
X122357000Y-127920000D02*
X93043000Y-127920000D01*
X122330000Y-127960000D02*
X93070000Y-127960000D01*
X122304000Y-128000000D02*
X93096000Y-128000000D01*
X122277000Y-128040000D02*
X93123000Y-128040000D01*
X122250000Y-128080000D02*
X93150000Y-128080000D01*
X122223000Y-128120000D02*
X93177000Y-128120000D01*
X122195000Y-128160000D02*
X93205000Y-128160000D01*
X122168000Y-128200000D02*
X93232000Y-128200000D01*
X122140000Y-128240000D02*
X93260000Y-128240000D01*
X122112000Y-128280000D02*
X93288000Y-128280000D01*
X122084000Y-128320000D02*
X93316000Y-128320000D01*
X122056000Y-128360000D02*
X93344000Y-128360000D01*
X122028000Y-128400000D02*
X93372000Y-128400000D01*
X121999000Y-128440000D02*
X93401000Y-128440000D01*
X121971000Y-128480000D02*
X93429000Y-128480000D01*
X121942000Y-128520000D02*
X93458000Y-128520000D01*
X121913000Y-128560000D02*
X93487000Y-128560000D01*
X121884000Y-128600000D02*
X93516000Y-128600000D01*
X121855000Y-128640000D02*
X93545000Y-128640000D01*
X121825000Y-128680000D02*
X93575000Y-128680000D01*
X121795000Y-128720000D02*
X93605000Y-128720000D01*
X121765000Y-128760000D02*
X93635000Y-128760000D01*
X121735000Y-128800000D02*
X93665000Y-128800000D01*
X121705000Y-128840000D02*
X93695000Y-128840000D01*
X121675000Y-128880000D02*
X93725000Y-128880000D01*
X121644000Y-128920000D02*
X93756000Y-128920000D01*
X121614000Y-128960000D02*
X93786000Y-128960000D01*
X121583000Y-129000000D02*
X93817000Y-129000000D01*
X121551000Y-129040000D02*
X93849000Y-129040000D01*
X121520000Y-129080000D02*
X93880000Y-129080000D01*
X121489000Y-129120000D02*
X93911000Y-129120000D01*
X121457000Y-129160000D02*
X93943000Y-129160000D01*
X121425000Y-129200000D02*
X93975000Y-129200000D01*
X121393000Y-129240000D02*
X94007000Y-129240000D01*
X121361000Y-129280000D02*
X94039000Y-129280000D01*
X121328000Y-129320000D02*
X94072000Y-129320000D01*
X121296000Y-129360000D02*
X94104000Y-129360000D01*
X121263000Y-129400000D02*
X94137000Y-129400000D01*
X121230000Y-129440000D02*
X94170000Y-129440000D01*
X121197000Y-129480000D02*
X94203000Y-129480000D01*
X121163000Y-129520000D02*
X94237000Y-129520000D01*
X121130000Y-129560000D02*
X94270000Y-129560000D01*
X121096000Y-129600000D02*
X94304000Y-129600000D01*
X121062000Y-129640000D02*
X94338000Y-129640000D01*
X121027000Y-129680000D02*
X94373000Y-129680000D01*
X120993000Y-129720000D02*
X94407000Y-129720000D01*
X120958000Y-129760000D02*
X94442000Y-129760000D01*
X120923000Y-129800000D02*
X94477000Y-129800000D01*
X120888000Y-129840000D02*
X94512000Y-129840000D01*
X120853000Y-129880000D02*
X94547000Y-129880000D01*
X120817000Y-129920000D02*
X94583000Y-129920000D01*
X120782000Y-129960000D02*
X94618000Y-129960000D01*
X120746000Y-130000000D02*
X94654000Y-130000000D01*
X120710000Y-130040000D02*
X94690000Y-130040000D01*
X120673000Y-130080000D02*
X94727000Y-130080000D01*
X120637000Y-130120000D02*
X94763000Y-130120000D01*
X120600000Y-130160000D02*
X94800000Y-130160000D01*
X120563000Y-130200000D02*
X94837000Y-130200000D01*
X120525000Y-130240000D02*
X94875000Y-130240000D01*
X120488000Y-130280000D02*
X94912000Y-130280000D01*
X120450000Y-130320000D02*
X94950000Y-130320000D01*
X120412000Y-130360000D02*
X94988000Y-130360000D01*
X120374000Y-130400000D02*
X95026000Y-130400000D01*
X120335000Y-130440000D02*
X95065000Y-130440000D01*
X120296000Y-130480000D02*
X95104000Y-130480000D01*
X120257000Y-130520000D02*
X95143000Y-130520000D01*
X120218000Y-130560000D02*
X95182000Y-130560000D01*
X120179000Y-130600000D02*
X95221000Y-130600000D01*
X120139000Y-130640000D02*
X95261000Y-130640000D01*
X120099000Y-130680000D02*
X95301000Y-130680000D01*
X120059000Y-130720000D02*
X95341000Y-130720000D01*
X120018000Y-130760000D02*
X95382000Y-130760000D01*
X119977000Y-130800000D02*
X95423000Y-130800000D01*
X119936000Y-130840000D02*
X95464000Y-130840000D01*
X119895000Y-130880000D02*
X95505000Y-130880000D01*
X119853000Y-130920000D02*
X95547000Y-130920000D01*
X119811000Y-130960000D02*
X95589000Y-130960000D01*
X119769000Y-131000000D02*
X95631000Y-131000000D01*
X119727000Y-131040000D02*
X95673000Y-131040000D01*
X119684000Y-131080000D02*
X95716000Y-131080000D01*
X119641000Y-131120000D02*
X95759000Y-131120000D01*
X119598000Y-131160000D02*
X95802000Y-131160000D01*
X119554000Y-131200000D02*
X95846000Y-131200000D01*
X119511000Y-131240000D02*
X95889000Y-131240000D01*
X119466000Y-131280000D02*
X95934000Y-131280000D01*
X119422000Y-131320000D02*
X95978000Y-131320000D01*
X119377000Y-131360000D02*
X96023000Y-131360000D01*
X119332000Y-131400000D02*
X96068000Y-131400000D01*
X119287000Y-131440000D02*
X96113000Y-131440000D01*
X119241000Y-131480000D02*
X96159000Y-131480000D01*
X119195000Y-131520000D02*
X96205000Y-131520000D01*
X119149000Y-131560000D02*
X96251000Y-131560000D01*
X119102000Y-131600000D02*
X96298000Y-131600000D01*
X119055000Y-131640000D02*
X96345000Y-131640000D01*
X119007000Y-131680000D02*
X96393000Y-131680000D01*
X118960000Y-131720000D02*
X96440000Y-131720000D01*
X118912000Y-131760000D02*
X96488000Y-131760000D01*
X118863000Y-131800000D02*
X96537000Y-131800000D01*
X118815000Y-131840000D02*
X96585000Y-131840000D01*
X118766000Y-131880000D02*
X96634000Y-131880000D01*
X118716000Y-131920000D02*
X96684000Y-131920000D01*
X118666000Y-131960000D02*
X96734000Y-131960000D01*
X118616000Y-132000000D02*
X96784000Y-132000000D01*
X118565000Y-132040000D02*
X96835000Y-132040000D01*
X118515000Y-132080000D02*
X96885000Y-132080000D01*
X118463000Y-132120000D02*
X96937000Y-132120000D01*
X118411000Y-132160000D02*
X96989000Y-132160000D01*
X118359000Y-132200000D02*
X97041000Y-132200000D01*
X118307000Y-132240000D02*
X97093000Y-132240000D01*
X118254000Y-132280000D02*
X97146000Y-132280000D01*
X118200000Y-132320000D02*
X97200000Y-132320000D01*
X118147000Y-132360000D02*
X97253000Y-132360000D01*
X118092000Y-132400000D02*
X97308000Y-132400000D01*
X118038000Y-132440000D02*
X97362000Y-132440000D01*
X117983000Y-132480000D02*
X97417000Y-132480000D01*
X117927000Y-132520000D02*
X97473000Y-132520000D01*
X117871000Y-132560000D02*
X97529000Y-132560000D01*
X117815000Y-132600000D02*
X97585000Y-132600000D01*
X117758000Y-132640000D02*
X97642000Y-132640000D01*
X117700000Y-132680000D02*
X97700000Y-132680000D01*
X117642000Y-132720000D02*
X97758000Y-132720000D01*
X117584000Y-132760000D02*
X97816000Y-132760000D01*
X117525000Y-132800000D02*
X97875000Y-132800000D01*
X117465000Y-132840000D02*
X97935000Y-132840000D01*
X117405000Y-132880000D02*
X97995000Y-132880000D01*
X117345000Y-132920000D02*
X98055000Y-132920000D01*
X117284000Y-132960000D02*
X98116000Y-132960000D01*
X117222000Y-133000000D02*
X98178000Y-133000000D01*
X117160000Y-133040000D02*
X98240000Y-133040000D01*
X117097000Y-133080000D02*
X98303000Y-133080000D01*
X117034000Y-133120000D02*
X98366000Y-133120000D01*
X116970000Y-133160000D02*
X98430000Y-133160000D01*
X116905000Y-133200000D02*
X98495000Y-133200000D01*
X116840000Y-133240000D02*
X98560000Y-133240000D01*
X116774000Y-133280000D02*
X98626000Y-133280000D01*
X116708000Y-133320000D02*
X98692000Y-133320000D01*
X116640000Y-133360000D02*
X98760000Y-133360000D01*
X116573000Y-133400000D02*
X98827000Y-133400000D01*
X116504000Y-133440000D02*
X98896000Y-133440000D01*
X116435000Y-133480000D02*
X98965000Y-133480000D01*
X116365000Y-133520000D02*
X99035000Y-133520000D01*
X116294000Y-133560000D02*
X99106000Y-133560000D01*
X116222000Y-133600000D02*
X99178000Y-133600000D01*
X116150000Y-133640000D02*
X99250000Y-133640000D01*
X116077000Y-133680000D02*
X99323000Y-133680000D01*
X116003000Y-133720000D02*
X99397000Y-133720000D01*
X115928000Y-133760000D02*
X99472000Y-133760000D01*
X115852000Y-133800000D02*
X99548000Y-133800000D01*
X115776000Y-133840000D02*
X99624000Y-133840000D01*
X115698000Y-133880000D02*
X99702000Y-133880000D01*
X115620000Y-133920000D02*
X99780000Y-133920000D01*
X115540000Y-133960000D02*
X99860000Y-133960000D01*
X115459000Y-134000000D02*
X99941000Y-134000000D01*
X115378000Y-134040000D02*
X100022000Y-134040000D01*
X115295000Y-134080000D02*
X100105000Y-134080000D01*
X115212000Y-134120000D02*
X100188000Y-134120000D01*
X115127000Y-134160000D02*
X100273000Y-134160000D01*
X115041000Y-134200000D02*
X100359000Y-134200000D01*
X114953000Y-134240000D02*
X100447000Y-134240000D01*
X114865000Y-134280000D02*
X100535000Y-134280000D01*
X114775000Y-134320000D02*
X100625000Y-134320000D01*
X114683000Y-134360000D02*
X100717000Y-134360000D01*
X114590000Y-134400000D02*
X100810000Y-134400000D01*
X114496000Y-134440000D02*
X100904000Y-134440000D01*
X114400000Y-134480000D02*
X101000000Y-134480000D01*
X114303000Y-134520000D02*
X101097000Y-134520000D01*
X114204000Y-134560000D02*
X101196000Y-134560000D01*
X114103000Y-134600000D02*
X101297000Y-134600000D01*
X114000000Y-134640000D02*
X101400000Y-134640000D01*
X113895000Y-134680000D02*
X101505000Y-134680000D01*
X113789000Y-134720000D02*
X101611000Y-134720000D01*
X113680000Y-134760000D02*
X101720000Y-134760000D01*
X113568000Y-134800000D02*
X101832000Y-134800000D01*
X113455000Y-134840000D02*
X101945000Y-134840000D01*
X113339000Y-134880000D02*
X102061000Y-134880000D01*
X113220000Y-134920000D02*
X102180000Y-134920000D01*
X113098000Y-134960000D02*
X102302000Y-134960000D01*
X112973000Y-135000000D02*
X102427000Y-135000000D01*
X112845000Y-135040000D02*
X102555000Y-135040000D01*
X112713000Y-135080000D02*
X102687000Y-135080000D01*
X112578000Y-135120000D02*
X102822000Y-135120000D01*
X112438000Y-135160000D02*
X102962000Y-135160000D01*
X112293000Y-135200000D02*
X103107000Y-135200000D01*
X112144000Y-135240000D02*
X103256000Y-135240000D01*
X111989000Y-135280000D02*
X103411000Y-135280000D01*
X111828000Y-135320000D02*
X103572000Y-135320000D01*
X111660000Y-135360000D02*
X103740000Y-135360000D01*
X111485000Y-135400000D02*
X103915000Y-135400000D01*
X111300000Y-135440000D02*
X104100000Y-135440000D01*
X111105000Y-135480000D02*
X104295000Y-135480000D01*
X110898000Y-135520000D02*
X104502000Y-135520000D01*
X110676000Y-135560000D02*
X104724000Y-135560000D01*
X110436000Y-135600000D02*
X104964000Y-135600000D01*
X110173000Y-135640000D02*
X105227000Y-135640000D01*
X109877000Y-135680000D02*
X105523000Y-135680000D01*
X109535000Y-135720000D02*
X105865000Y-135720000D01*
X109113000Y-135760000D02*
X106287000Y-135760000D01*
X108500000Y-135800000D02*
X106900000Y-135800000D01*
X117575000Y-99345998D02*
X117575000Y-102845998D01*
X119325000Y-101095998D02*
X115825000Y-101095998D01*
G04 #@! TO.C,J3*
X71870000Y-118820000D02*
X74530000Y-118820000D01*
X71870000Y-116220000D02*
X71870000Y-118820000D01*
X74530000Y-116220000D02*
X74530000Y-118820000D01*
X71870000Y-116220000D02*
X74530000Y-116220000D01*
X71870000Y-114950000D02*
X71870000Y-113620000D01*
X71870000Y-113620000D02*
X73200000Y-113620000D01*
G04 #@! TO.C,J4*
X71870000Y-104620000D02*
X73200000Y-104620000D01*
X71870000Y-105950000D02*
X71870000Y-104620000D01*
X71870000Y-107220000D02*
X74530000Y-107220000D01*
X74530000Y-107220000D02*
X74530000Y-109820000D01*
X71870000Y-107220000D02*
X71870000Y-109820000D01*
X71870000Y-109820000D02*
X74530000Y-109820000D01*
G04 #@! TO.C,J6*
X66370000Y-118820000D02*
X69030000Y-118820000D01*
X66370000Y-116220000D02*
X66370000Y-118820000D01*
X69030000Y-116220000D02*
X69030000Y-118820000D01*
X66370000Y-116220000D02*
X69030000Y-116220000D01*
X66370000Y-114950000D02*
X66370000Y-113620000D01*
X66370000Y-113620000D02*
X67700000Y-113620000D01*
G04 #@! TO.C,J9*
X77370000Y-113620000D02*
X78700000Y-113620000D01*
X77370000Y-114950000D02*
X77370000Y-113620000D01*
X77370000Y-116220000D02*
X80030000Y-116220000D01*
X80030000Y-116220000D02*
X80030000Y-118820000D01*
X77370000Y-116220000D02*
X77370000Y-118820000D01*
X77370000Y-118820000D02*
X80030000Y-118820000D01*
G04 #@! TO.C,J10*
X60870000Y-109820000D02*
X63530000Y-109820000D01*
X60870000Y-107220000D02*
X60870000Y-109820000D01*
X63530000Y-107220000D02*
X63530000Y-109820000D01*
X60870000Y-107220000D02*
X63530000Y-107220000D01*
X60870000Y-105950000D02*
X60870000Y-104620000D01*
X60870000Y-104620000D02*
X62200000Y-104620000D01*
G04 #@! TO.C,J12*
X83370000Y-113620000D02*
X84700000Y-113620000D01*
X83370000Y-114950000D02*
X83370000Y-113620000D01*
X83370000Y-116220000D02*
X86030000Y-116220000D01*
X86030000Y-116220000D02*
X86030000Y-118820000D01*
X83370000Y-116220000D02*
X83370000Y-118820000D01*
X83370000Y-118820000D02*
X86030000Y-118820000D01*
G04 #@! TO.C,J13*
X77370000Y-109820000D02*
X80030000Y-109820000D01*
X77370000Y-107220000D02*
X77370000Y-109820000D01*
X80030000Y-107220000D02*
X80030000Y-109820000D01*
X77370000Y-107220000D02*
X80030000Y-107220000D01*
X77370000Y-105950000D02*
X77370000Y-104620000D01*
X77370000Y-104620000D02*
X78700000Y-104620000D01*
G04 #@! TO.C,J7*
X66370000Y-104620000D02*
X67700000Y-104620000D01*
X66370000Y-105950000D02*
X66370000Y-104620000D01*
X66370000Y-107220000D02*
X69030000Y-107220000D01*
X69030000Y-107220000D02*
X69030000Y-109820000D01*
X66370000Y-107220000D02*
X66370000Y-109820000D01*
X66370000Y-109820000D02*
X69030000Y-109820000D01*
G04 #@! TO.C,J15*
X83370000Y-109820000D02*
X86030000Y-109820000D01*
X83370000Y-107220000D02*
X83370000Y-109820000D01*
X86030000Y-107220000D02*
X86030000Y-109820000D01*
X83370000Y-107220000D02*
X86030000Y-107220000D01*
X83370000Y-105950000D02*
X83370000Y-104620000D01*
X83370000Y-104620000D02*
X84700000Y-104620000D01*
G04 #@! TO.C,TH1*
X165080000Y-123435000D02*
X165080000Y-107095000D01*
X174320000Y-123435000D02*
X174320000Y-107095000D01*
X165080000Y-123435000D02*
X174320000Y-123435000D01*
X165080000Y-107095000D02*
X174320000Y-107095000D01*
X165080000Y-121816000D02*
X174320000Y-121816000D01*
X165080000Y-108714000D02*
X174320000Y-108714000D01*
G04 #@! TO.C,F1*
X185000000Y-111100000D02*
X182200000Y-111100000D01*
X178200000Y-111100000D02*
X175400000Y-111100000D01*
X178200000Y-133700000D02*
X175400000Y-133700000D01*
X175400000Y-133700000D02*
X175400000Y-111100000D01*
X185000000Y-133700000D02*
X185000000Y-111100000D01*
X185000000Y-133700000D02*
X182200000Y-133700000D01*
G04 #@! TO.C,C2*
X163570000Y-118200000D02*
G75*
G03X163570000Y-118200000I-17620000J0D01*
G01*
X163530000Y-118200000D02*
X128370000Y-118200000D01*
X163530000Y-118240000D02*
X128370000Y-118240000D01*
X163530000Y-118280000D02*
X128370000Y-118280000D01*
X163530000Y-118320000D02*
X128370000Y-118320000D01*
X163530000Y-118360000D02*
X128370000Y-118360000D01*
X163529000Y-118400000D02*
X128371000Y-118400000D01*
X163529000Y-118440000D02*
X128371000Y-118440000D01*
X163528000Y-118480000D02*
X128372000Y-118480000D01*
X163528000Y-118520000D02*
X128372000Y-118520000D01*
X163527000Y-118560000D02*
X128373000Y-118560000D01*
X163526000Y-118600000D02*
X128374000Y-118600000D01*
X163525000Y-118640000D02*
X128375000Y-118640000D01*
X163524000Y-118680000D02*
X128376000Y-118680000D01*
X163523000Y-118720000D02*
X128377000Y-118720000D01*
X163522000Y-118760000D02*
X128378000Y-118760000D01*
X163520000Y-118800000D02*
X128380000Y-118800000D01*
X163519000Y-118840000D02*
X128381000Y-118840000D01*
X163517000Y-118880000D02*
X128383000Y-118880000D01*
X163516000Y-118921000D02*
X128384000Y-118921000D01*
X163514000Y-118961000D02*
X128386000Y-118961000D01*
X163512000Y-119001000D02*
X128388000Y-119001000D01*
X163510000Y-119041000D02*
X128390000Y-119041000D01*
X163509000Y-119081000D02*
X128391000Y-119081000D01*
X163506000Y-119121000D02*
X128394000Y-119121000D01*
X163504000Y-119161000D02*
X128396000Y-119161000D01*
X163502000Y-119201000D02*
X128398000Y-119201000D01*
X163500000Y-119241000D02*
X128400000Y-119241000D01*
X163497000Y-119281000D02*
X128403000Y-119281000D01*
X163495000Y-119321000D02*
X128405000Y-119321000D01*
X163492000Y-119361000D02*
X128408000Y-119361000D01*
X163490000Y-119401000D02*
X128410000Y-119401000D01*
X163487000Y-119441000D02*
X128413000Y-119441000D01*
X163484000Y-119481000D02*
X128416000Y-119481000D01*
X163481000Y-119521000D02*
X128419000Y-119521000D01*
X163478000Y-119561000D02*
X128422000Y-119561000D01*
X163475000Y-119601000D02*
X128425000Y-119601000D01*
X163472000Y-119641000D02*
X128428000Y-119641000D01*
X163468000Y-119681000D02*
X128432000Y-119681000D01*
X163465000Y-119721000D02*
X128435000Y-119721000D01*
X163461000Y-119761000D02*
X128439000Y-119761000D01*
X163458000Y-119801000D02*
X128442000Y-119801000D01*
X163454000Y-119841000D02*
X128446000Y-119841000D01*
X163450000Y-119881000D02*
X128450000Y-119881000D01*
X163446000Y-119921000D02*
X128454000Y-119921000D01*
X163442000Y-119961000D02*
X128458000Y-119961000D01*
X163438000Y-120001000D02*
X128462000Y-120001000D01*
X163434000Y-120041000D02*
X128466000Y-120041000D01*
X163430000Y-120081000D02*
X128470000Y-120081000D01*
X163426000Y-120121000D02*
X128474000Y-120121000D01*
X163421000Y-120161000D02*
X128479000Y-120161000D01*
X163417000Y-120201000D02*
X128483000Y-120201000D01*
X163412000Y-120241000D02*
X128488000Y-120241000D01*
X163407000Y-120281000D02*
X128493000Y-120281000D01*
X163402000Y-120321000D02*
X128498000Y-120321000D01*
X163398000Y-120361000D02*
X128502000Y-120361000D01*
X163393000Y-120401000D02*
X128507000Y-120401000D01*
X163388000Y-120441000D02*
X128512000Y-120441000D01*
X163382000Y-120481000D02*
X128518000Y-120481000D01*
X163377000Y-120521000D02*
X128523000Y-120521000D01*
X163372000Y-120561000D02*
X128528000Y-120561000D01*
X163366000Y-120601000D02*
X128534000Y-120601000D01*
X163361000Y-120641000D02*
X128539000Y-120641000D01*
X163355000Y-120681000D02*
X128545000Y-120681000D01*
X163349000Y-120721000D02*
X128551000Y-120721000D01*
X163344000Y-120761000D02*
X128556000Y-120761000D01*
X163338000Y-120801000D02*
X128562000Y-120801000D01*
X163332000Y-120841000D02*
X128568000Y-120841000D01*
X163325000Y-120881000D02*
X128575000Y-120881000D01*
X163319000Y-120921000D02*
X128581000Y-120921000D01*
X163313000Y-120961000D02*
X148190000Y-120961000D01*
X143710000Y-120961000D02*
X128587000Y-120961000D01*
X163307000Y-121001000D02*
X148190000Y-121001000D01*
X143710000Y-121001000D02*
X128593000Y-121001000D01*
X163300000Y-121041000D02*
X148190000Y-121041000D01*
X143710000Y-121041000D02*
X128600000Y-121041000D01*
X163294000Y-121081000D02*
X148190000Y-121081000D01*
X143710000Y-121081000D02*
X128606000Y-121081000D01*
X163287000Y-121121000D02*
X148190000Y-121121000D01*
X143710000Y-121121000D02*
X128613000Y-121121000D01*
X163280000Y-121161000D02*
X148190000Y-121161000D01*
X143710000Y-121161000D02*
X128620000Y-121161000D01*
X163273000Y-121201000D02*
X148190000Y-121201000D01*
X143710000Y-121201000D02*
X128627000Y-121201000D01*
X163266000Y-121241000D02*
X148190000Y-121241000D01*
X143710000Y-121241000D02*
X128634000Y-121241000D01*
X163259000Y-121281000D02*
X148190000Y-121281000D01*
X143710000Y-121281000D02*
X128641000Y-121281000D01*
X163252000Y-121321000D02*
X148190000Y-121321000D01*
X143710000Y-121321000D02*
X128648000Y-121321000D01*
X163245000Y-121361000D02*
X148190000Y-121361000D01*
X143710000Y-121361000D02*
X128655000Y-121361000D01*
X163237000Y-121401000D02*
X148190000Y-121401000D01*
X143710000Y-121401000D02*
X128663000Y-121401000D01*
X163230000Y-121441000D02*
X148190000Y-121441000D01*
X143710000Y-121441000D02*
X128670000Y-121441000D01*
X163223000Y-121481000D02*
X148190000Y-121481000D01*
X143710000Y-121481000D02*
X128677000Y-121481000D01*
X163215000Y-121521000D02*
X148190000Y-121521000D01*
X143710000Y-121521000D02*
X128685000Y-121521000D01*
X163207000Y-121561000D02*
X148190000Y-121561000D01*
X143710000Y-121561000D02*
X128693000Y-121561000D01*
X163199000Y-121601000D02*
X148190000Y-121601000D01*
X143710000Y-121601000D02*
X128701000Y-121601000D01*
X163191000Y-121641000D02*
X148190000Y-121641000D01*
X143710000Y-121641000D02*
X128709000Y-121641000D01*
X163183000Y-121681000D02*
X148190000Y-121681000D01*
X143710000Y-121681000D02*
X128717000Y-121681000D01*
X163175000Y-121721000D02*
X148190000Y-121721000D01*
X143710000Y-121721000D02*
X128725000Y-121721000D01*
X163167000Y-121761000D02*
X148190000Y-121761000D01*
X143710000Y-121761000D02*
X128733000Y-121761000D01*
X163159000Y-121801000D02*
X148190000Y-121801000D01*
X143710000Y-121801000D02*
X128741000Y-121801000D01*
X163150000Y-121841000D02*
X148190000Y-121841000D01*
X143710000Y-121841000D02*
X128750000Y-121841000D01*
X163142000Y-121881000D02*
X148190000Y-121881000D01*
X143710000Y-121881000D02*
X128758000Y-121881000D01*
X163133000Y-121921000D02*
X148190000Y-121921000D01*
X143710000Y-121921000D02*
X128767000Y-121921000D01*
X163125000Y-121961000D02*
X148190000Y-121961000D01*
X143710000Y-121961000D02*
X128775000Y-121961000D01*
X163116000Y-122001000D02*
X148190000Y-122001000D01*
X143710000Y-122001000D02*
X128784000Y-122001000D01*
X163107000Y-122041000D02*
X148190000Y-122041000D01*
X143710000Y-122041000D02*
X128793000Y-122041000D01*
X163098000Y-122081000D02*
X148190000Y-122081000D01*
X143710000Y-122081000D02*
X128802000Y-122081000D01*
X163089000Y-122121000D02*
X148190000Y-122121000D01*
X143710000Y-122121000D02*
X128811000Y-122121000D01*
X163080000Y-122161000D02*
X148190000Y-122161000D01*
X143710000Y-122161000D02*
X128820000Y-122161000D01*
X163070000Y-122201000D02*
X148190000Y-122201000D01*
X143710000Y-122201000D02*
X128830000Y-122201000D01*
X163061000Y-122241000D02*
X148190000Y-122241000D01*
X143710000Y-122241000D02*
X128839000Y-122241000D01*
X163052000Y-122281000D02*
X148190000Y-122281000D01*
X143710000Y-122281000D02*
X128848000Y-122281000D01*
X163042000Y-122321000D02*
X148190000Y-122321000D01*
X143710000Y-122321000D02*
X128858000Y-122321000D01*
X163032000Y-122361000D02*
X148190000Y-122361000D01*
X143710000Y-122361000D02*
X128868000Y-122361000D01*
X163023000Y-122401000D02*
X148190000Y-122401000D01*
X143710000Y-122401000D02*
X128877000Y-122401000D01*
X163013000Y-122441000D02*
X148190000Y-122441000D01*
X143710000Y-122441000D02*
X128887000Y-122441000D01*
X163003000Y-122481000D02*
X148190000Y-122481000D01*
X143710000Y-122481000D02*
X128897000Y-122481000D01*
X162993000Y-122521000D02*
X148190000Y-122521000D01*
X143710000Y-122521000D02*
X128907000Y-122521000D01*
X162983000Y-122561000D02*
X148190000Y-122561000D01*
X143710000Y-122561000D02*
X128917000Y-122561000D01*
X162972000Y-122601000D02*
X148190000Y-122601000D01*
X143710000Y-122601000D02*
X128928000Y-122601000D01*
X162962000Y-122641000D02*
X148190000Y-122641000D01*
X143710000Y-122641000D02*
X128938000Y-122641000D01*
X162951000Y-122681000D02*
X148190000Y-122681000D01*
X143710000Y-122681000D02*
X128949000Y-122681000D01*
X162941000Y-122721000D02*
X148190000Y-122721000D01*
X143710000Y-122721000D02*
X128959000Y-122721000D01*
X162930000Y-122761000D02*
X148190000Y-122761000D01*
X143710000Y-122761000D02*
X128970000Y-122761000D01*
X162919000Y-122801000D02*
X148190000Y-122801000D01*
X143710000Y-122801000D02*
X128981000Y-122801000D01*
X162909000Y-122841000D02*
X148190000Y-122841000D01*
X143710000Y-122841000D02*
X128991000Y-122841000D01*
X162898000Y-122881000D02*
X148190000Y-122881000D01*
X143710000Y-122881000D02*
X129002000Y-122881000D01*
X162887000Y-122921000D02*
X148190000Y-122921000D01*
X143710000Y-122921000D02*
X129013000Y-122921000D01*
X162875000Y-122961000D02*
X148190000Y-122961000D01*
X143710000Y-122961000D02*
X129025000Y-122961000D01*
X162864000Y-123001000D02*
X148190000Y-123001000D01*
X143710000Y-123001000D02*
X129036000Y-123001000D01*
X162853000Y-123041000D02*
X148190000Y-123041000D01*
X143710000Y-123041000D02*
X129047000Y-123041000D01*
X162841000Y-123081000D02*
X148190000Y-123081000D01*
X143710000Y-123081000D02*
X129059000Y-123081000D01*
X162830000Y-123121000D02*
X148190000Y-123121000D01*
X143710000Y-123121000D02*
X129070000Y-123121000D01*
X162818000Y-123161000D02*
X148190000Y-123161000D01*
X143710000Y-123161000D02*
X129082000Y-123161000D01*
X162806000Y-123201000D02*
X148190000Y-123201000D01*
X143710000Y-123201000D02*
X129094000Y-123201000D01*
X162794000Y-123241000D02*
X148190000Y-123241000D01*
X143710000Y-123241000D02*
X129106000Y-123241000D01*
X162782000Y-123281000D02*
X148190000Y-123281000D01*
X143710000Y-123281000D02*
X129118000Y-123281000D01*
X162770000Y-123321000D02*
X148190000Y-123321000D01*
X143710000Y-123321000D02*
X129130000Y-123321000D01*
X162758000Y-123361000D02*
X148190000Y-123361000D01*
X143710000Y-123361000D02*
X129142000Y-123361000D01*
X162746000Y-123401000D02*
X148190000Y-123401000D01*
X143710000Y-123401000D02*
X129154000Y-123401000D01*
X162733000Y-123441000D02*
X148190000Y-123441000D01*
X143710000Y-123441000D02*
X129167000Y-123441000D01*
X162721000Y-123481000D02*
X148190000Y-123481000D01*
X143710000Y-123481000D02*
X129179000Y-123481000D01*
X162708000Y-123521000D02*
X148190000Y-123521000D01*
X143710000Y-123521000D02*
X129192000Y-123521000D01*
X162695000Y-123561000D02*
X148190000Y-123561000D01*
X143710000Y-123561000D02*
X129205000Y-123561000D01*
X162683000Y-123601000D02*
X148190000Y-123601000D01*
X143710000Y-123601000D02*
X129217000Y-123601000D01*
X162670000Y-123641000D02*
X148190000Y-123641000D01*
X143710000Y-123641000D02*
X129230000Y-123641000D01*
X162657000Y-123681000D02*
X148190000Y-123681000D01*
X143710000Y-123681000D02*
X129243000Y-123681000D01*
X162644000Y-123721000D02*
X148190000Y-123721000D01*
X143710000Y-123721000D02*
X129256000Y-123721000D01*
X162630000Y-123761000D02*
X148190000Y-123761000D01*
X143710000Y-123761000D02*
X129270000Y-123761000D01*
X162617000Y-123801000D02*
X148190000Y-123801000D01*
X143710000Y-123801000D02*
X129283000Y-123801000D01*
X162603000Y-123841000D02*
X148190000Y-123841000D01*
X143710000Y-123841000D02*
X129297000Y-123841000D01*
X162590000Y-123881000D02*
X148190000Y-123881000D01*
X143710000Y-123881000D02*
X129310000Y-123881000D01*
X162576000Y-123921000D02*
X148190000Y-123921000D01*
X143710000Y-123921000D02*
X129324000Y-123921000D01*
X162562000Y-123961000D02*
X148190000Y-123961000D01*
X143710000Y-123961000D02*
X129338000Y-123961000D01*
X162549000Y-124001000D02*
X148190000Y-124001000D01*
X143710000Y-124001000D02*
X129351000Y-124001000D01*
X162535000Y-124041000D02*
X148190000Y-124041000D01*
X143710000Y-124041000D02*
X129365000Y-124041000D01*
X162520000Y-124081000D02*
X148190000Y-124081000D01*
X143710000Y-124081000D02*
X129380000Y-124081000D01*
X162506000Y-124121000D02*
X148190000Y-124121000D01*
X143710000Y-124121000D02*
X129394000Y-124121000D01*
X162492000Y-124161000D02*
X148190000Y-124161000D01*
X143710000Y-124161000D02*
X129408000Y-124161000D01*
X162477000Y-124201000D02*
X148190000Y-124201000D01*
X143710000Y-124201000D02*
X129423000Y-124201000D01*
X162463000Y-124241000D02*
X148190000Y-124241000D01*
X143710000Y-124241000D02*
X129437000Y-124241000D01*
X162448000Y-124281000D02*
X148190000Y-124281000D01*
X143710000Y-124281000D02*
X129452000Y-124281000D01*
X162434000Y-124321000D02*
X148190000Y-124321000D01*
X143710000Y-124321000D02*
X129466000Y-124321000D01*
X162419000Y-124361000D02*
X148190000Y-124361000D01*
X143710000Y-124361000D02*
X129481000Y-124361000D01*
X162404000Y-124401000D02*
X148190000Y-124401000D01*
X143710000Y-124401000D02*
X129496000Y-124401000D01*
X162389000Y-124441000D02*
X148190000Y-124441000D01*
X143710000Y-124441000D02*
X129511000Y-124441000D01*
X162373000Y-124481000D02*
X148190000Y-124481000D01*
X143710000Y-124481000D02*
X129527000Y-124481000D01*
X162358000Y-124521000D02*
X148190000Y-124521000D01*
X143710000Y-124521000D02*
X129542000Y-124521000D01*
X162343000Y-124561000D02*
X148190000Y-124561000D01*
X143710000Y-124561000D02*
X129557000Y-124561000D01*
X162327000Y-124601000D02*
X148190000Y-124601000D01*
X143710000Y-124601000D02*
X129573000Y-124601000D01*
X162311000Y-124641000D02*
X148190000Y-124641000D01*
X143710000Y-124641000D02*
X129589000Y-124641000D01*
X162296000Y-124681000D02*
X148190000Y-124681000D01*
X143710000Y-124681000D02*
X129604000Y-124681000D01*
X162280000Y-124721000D02*
X148190000Y-124721000D01*
X143710000Y-124721000D02*
X129620000Y-124721000D01*
X162264000Y-124761000D02*
X148190000Y-124761000D01*
X143710000Y-124761000D02*
X129636000Y-124761000D01*
X162248000Y-124801000D02*
X148190000Y-124801000D01*
X143710000Y-124801000D02*
X129652000Y-124801000D01*
X162231000Y-124841000D02*
X148190000Y-124841000D01*
X143710000Y-124841000D02*
X129669000Y-124841000D01*
X162215000Y-124881000D02*
X148190000Y-124881000D01*
X143710000Y-124881000D02*
X129685000Y-124881000D01*
X162199000Y-124921000D02*
X148190000Y-124921000D01*
X143710000Y-124921000D02*
X129701000Y-124921000D01*
X162182000Y-124961000D02*
X148190000Y-124961000D01*
X143710000Y-124961000D02*
X129718000Y-124961000D01*
X162165000Y-125001000D02*
X148190000Y-125001000D01*
X143710000Y-125001000D02*
X129735000Y-125001000D01*
X162149000Y-125041000D02*
X148190000Y-125041000D01*
X143710000Y-125041000D02*
X129751000Y-125041000D01*
X162132000Y-125081000D02*
X148190000Y-125081000D01*
X143710000Y-125081000D02*
X129768000Y-125081000D01*
X162115000Y-125121000D02*
X148190000Y-125121000D01*
X143710000Y-125121000D02*
X129785000Y-125121000D01*
X162098000Y-125161000D02*
X148190000Y-125161000D01*
X143710000Y-125161000D02*
X129802000Y-125161000D01*
X162080000Y-125201000D02*
X148190000Y-125201000D01*
X143710000Y-125201000D02*
X129820000Y-125201000D01*
X162063000Y-125241000D02*
X148190000Y-125241000D01*
X143710000Y-125241000D02*
X129837000Y-125241000D01*
X162045000Y-125281000D02*
X148190000Y-125281000D01*
X143710000Y-125281000D02*
X129855000Y-125281000D01*
X162028000Y-125321000D02*
X148190000Y-125321000D01*
X143710000Y-125321000D02*
X129872000Y-125321000D01*
X162010000Y-125361000D02*
X148190000Y-125361000D01*
X143710000Y-125361000D02*
X129890000Y-125361000D01*
X161992000Y-125401000D02*
X148190000Y-125401000D01*
X143710000Y-125401000D02*
X129908000Y-125401000D01*
X161974000Y-125441000D02*
X129926000Y-125441000D01*
X161956000Y-125481000D02*
X129944000Y-125481000D01*
X161938000Y-125521000D02*
X129962000Y-125521000D01*
X161920000Y-125561000D02*
X129980000Y-125561000D01*
X161901000Y-125601000D02*
X129999000Y-125601000D01*
X161883000Y-125641000D02*
X130017000Y-125641000D01*
X161864000Y-125681000D02*
X130036000Y-125681000D01*
X161845000Y-125721000D02*
X130055000Y-125721000D01*
X161826000Y-125761000D02*
X130074000Y-125761000D01*
X161807000Y-125801000D02*
X130093000Y-125801000D01*
X161788000Y-125841000D02*
X130112000Y-125841000D01*
X161769000Y-125881000D02*
X130131000Y-125881000D01*
X161749000Y-125921000D02*
X130151000Y-125921000D01*
X161730000Y-125961000D02*
X130170000Y-125961000D01*
X161710000Y-126001000D02*
X130190000Y-126001000D01*
X161690000Y-126041000D02*
X130210000Y-126041000D01*
X161670000Y-126081000D02*
X130230000Y-126081000D01*
X161650000Y-126121000D02*
X130250000Y-126121000D01*
X161630000Y-126161000D02*
X130270000Y-126161000D01*
X161610000Y-126201000D02*
X130290000Y-126201000D01*
X161589000Y-126241000D02*
X130311000Y-126241000D01*
X161569000Y-126281000D02*
X130331000Y-126281000D01*
X161548000Y-126321000D02*
X130352000Y-126321000D01*
X161527000Y-126361000D02*
X130373000Y-126361000D01*
X161506000Y-126400000D02*
X130394000Y-126400000D01*
X161485000Y-126440000D02*
X130415000Y-126440000D01*
X161464000Y-126480000D02*
X130436000Y-126480000D01*
X161442000Y-126520000D02*
X130458000Y-126520000D01*
X161421000Y-126560000D02*
X130479000Y-126560000D01*
X161399000Y-126600000D02*
X130501000Y-126600000D01*
X161378000Y-126640000D02*
X130522000Y-126640000D01*
X161356000Y-126680000D02*
X130544000Y-126680000D01*
X161334000Y-126720000D02*
X130566000Y-126720000D01*
X161311000Y-126760000D02*
X130589000Y-126760000D01*
X161289000Y-126800000D02*
X130611000Y-126800000D01*
X161267000Y-126840000D02*
X130633000Y-126840000D01*
X161244000Y-126880000D02*
X130656000Y-126880000D01*
X161221000Y-126920000D02*
X130679000Y-126920000D01*
X161199000Y-126960000D02*
X130701000Y-126960000D01*
X161176000Y-127000000D02*
X130724000Y-127000000D01*
X161153000Y-127040000D02*
X130747000Y-127040000D01*
X161129000Y-127080000D02*
X130771000Y-127080000D01*
X161106000Y-127120000D02*
X130794000Y-127120000D01*
X161082000Y-127160000D02*
X130818000Y-127160000D01*
X161059000Y-127200000D02*
X130841000Y-127200000D01*
X161035000Y-127240000D02*
X130865000Y-127240000D01*
X161011000Y-127280000D02*
X130889000Y-127280000D01*
X160987000Y-127320000D02*
X130913000Y-127320000D01*
X160962000Y-127360000D02*
X130938000Y-127360000D01*
X160938000Y-127400000D02*
X130962000Y-127400000D01*
X160913000Y-127440000D02*
X130987000Y-127440000D01*
X160889000Y-127480000D02*
X131011000Y-127480000D01*
X160864000Y-127520000D02*
X131036000Y-127520000D01*
X160839000Y-127560000D02*
X131061000Y-127560000D01*
X160814000Y-127600000D02*
X131086000Y-127600000D01*
X160788000Y-127640000D02*
X131112000Y-127640000D01*
X160763000Y-127680000D02*
X131137000Y-127680000D01*
X160737000Y-127720000D02*
X131163000Y-127720000D01*
X160712000Y-127760000D02*
X131188000Y-127760000D01*
X160686000Y-127800000D02*
X131214000Y-127800000D01*
X160660000Y-127840000D02*
X131240000Y-127840000D01*
X160633000Y-127880000D02*
X131267000Y-127880000D01*
X160607000Y-127920000D02*
X131293000Y-127920000D01*
X160580000Y-127960000D02*
X131320000Y-127960000D01*
X160554000Y-128000000D02*
X131346000Y-128000000D01*
X160527000Y-128040000D02*
X131373000Y-128040000D01*
X160500000Y-128080000D02*
X131400000Y-128080000D01*
X160473000Y-128120000D02*
X131427000Y-128120000D01*
X160445000Y-128160000D02*
X131455000Y-128160000D01*
X160418000Y-128200000D02*
X131482000Y-128200000D01*
X160390000Y-128240000D02*
X131510000Y-128240000D01*
X160362000Y-128280000D02*
X131538000Y-128280000D01*
X160334000Y-128320000D02*
X131566000Y-128320000D01*
X160306000Y-128360000D02*
X131594000Y-128360000D01*
X160278000Y-128400000D02*
X131622000Y-128400000D01*
X160249000Y-128440000D02*
X131651000Y-128440000D01*
X160221000Y-128480000D02*
X131679000Y-128480000D01*
X160192000Y-128520000D02*
X131708000Y-128520000D01*
X160163000Y-128560000D02*
X131737000Y-128560000D01*
X160134000Y-128600000D02*
X131766000Y-128600000D01*
X160105000Y-128640000D02*
X131795000Y-128640000D01*
X160075000Y-128680000D02*
X131825000Y-128680000D01*
X160045000Y-128720000D02*
X131855000Y-128720000D01*
X160015000Y-128760000D02*
X131885000Y-128760000D01*
X159985000Y-128800000D02*
X131915000Y-128800000D01*
X159955000Y-128840000D02*
X131945000Y-128840000D01*
X159925000Y-128880000D02*
X131975000Y-128880000D01*
X159894000Y-128920000D02*
X132006000Y-128920000D01*
X159864000Y-128960000D02*
X132036000Y-128960000D01*
X159833000Y-129000000D02*
X132067000Y-129000000D01*
X159801000Y-129040000D02*
X132099000Y-129040000D01*
X159770000Y-129080000D02*
X132130000Y-129080000D01*
X159739000Y-129120000D02*
X132161000Y-129120000D01*
X159707000Y-129160000D02*
X132193000Y-129160000D01*
X159675000Y-129200000D02*
X132225000Y-129200000D01*
X159643000Y-129240000D02*
X132257000Y-129240000D01*
X159611000Y-129280000D02*
X132289000Y-129280000D01*
X159578000Y-129320000D02*
X132322000Y-129320000D01*
X159546000Y-129360000D02*
X132354000Y-129360000D01*
X159513000Y-129400000D02*
X132387000Y-129400000D01*
X159480000Y-129440000D02*
X132420000Y-129440000D01*
X159447000Y-129480000D02*
X132453000Y-129480000D01*
X159413000Y-129520000D02*
X132487000Y-129520000D01*
X159380000Y-129560000D02*
X132520000Y-129560000D01*
X159346000Y-129600000D02*
X132554000Y-129600000D01*
X159312000Y-129640000D02*
X132588000Y-129640000D01*
X159277000Y-129680000D02*
X132623000Y-129680000D01*
X159243000Y-129720000D02*
X132657000Y-129720000D01*
X159208000Y-129760000D02*
X132692000Y-129760000D01*
X159173000Y-129800000D02*
X132727000Y-129800000D01*
X159138000Y-129840000D02*
X132762000Y-129840000D01*
X159103000Y-129880000D02*
X132797000Y-129880000D01*
X159067000Y-129920000D02*
X132833000Y-129920000D01*
X159032000Y-129960000D02*
X132868000Y-129960000D01*
X158996000Y-130000000D02*
X132904000Y-130000000D01*
X158960000Y-130040000D02*
X132940000Y-130040000D01*
X158923000Y-130080000D02*
X132977000Y-130080000D01*
X158887000Y-130120000D02*
X133013000Y-130120000D01*
X158850000Y-130160000D02*
X133050000Y-130160000D01*
X158813000Y-130200000D02*
X133087000Y-130200000D01*
X158775000Y-130240000D02*
X133125000Y-130240000D01*
X158738000Y-130280000D02*
X133162000Y-130280000D01*
X158700000Y-130320000D02*
X133200000Y-130320000D01*
X158662000Y-130360000D02*
X133238000Y-130360000D01*
X158624000Y-130400000D02*
X133276000Y-130400000D01*
X158585000Y-130440000D02*
X133315000Y-130440000D01*
X158546000Y-130480000D02*
X133354000Y-130480000D01*
X158507000Y-130520000D02*
X133393000Y-130520000D01*
X158468000Y-130560000D02*
X133432000Y-130560000D01*
X158429000Y-130600000D02*
X133471000Y-130600000D01*
X158389000Y-130640000D02*
X133511000Y-130640000D01*
X158349000Y-130680000D02*
X133551000Y-130680000D01*
X158309000Y-130720000D02*
X133591000Y-130720000D01*
X158268000Y-130760000D02*
X133632000Y-130760000D01*
X158227000Y-130800000D02*
X133673000Y-130800000D01*
X158186000Y-130840000D02*
X133714000Y-130840000D01*
X158145000Y-130880000D02*
X133755000Y-130880000D01*
X158103000Y-130920000D02*
X133797000Y-130920000D01*
X158061000Y-130960000D02*
X133839000Y-130960000D01*
X158019000Y-131000000D02*
X133881000Y-131000000D01*
X157977000Y-131040000D02*
X133923000Y-131040000D01*
X157934000Y-131080000D02*
X133966000Y-131080000D01*
X157891000Y-131120000D02*
X134009000Y-131120000D01*
X157848000Y-131160000D02*
X134052000Y-131160000D01*
X157804000Y-131200000D02*
X134096000Y-131200000D01*
X157761000Y-131240000D02*
X134139000Y-131240000D01*
X157716000Y-131280000D02*
X134184000Y-131280000D01*
X157672000Y-131320000D02*
X134228000Y-131320000D01*
X157627000Y-131360000D02*
X134273000Y-131360000D01*
X157582000Y-131400000D02*
X134318000Y-131400000D01*
X157537000Y-131440000D02*
X134363000Y-131440000D01*
X157491000Y-131480000D02*
X134409000Y-131480000D01*
X157445000Y-131520000D02*
X134455000Y-131520000D01*
X157399000Y-131560000D02*
X134501000Y-131560000D01*
X157352000Y-131600000D02*
X134548000Y-131600000D01*
X157305000Y-131640000D02*
X134595000Y-131640000D01*
X157257000Y-131680000D02*
X134643000Y-131680000D01*
X157210000Y-131720000D02*
X134690000Y-131720000D01*
X157162000Y-131760000D02*
X134738000Y-131760000D01*
X157113000Y-131800000D02*
X134787000Y-131800000D01*
X157065000Y-131840000D02*
X134835000Y-131840000D01*
X157016000Y-131880000D02*
X134884000Y-131880000D01*
X156966000Y-131920000D02*
X134934000Y-131920000D01*
X156916000Y-131960000D02*
X134984000Y-131960000D01*
X156866000Y-132000000D02*
X135034000Y-132000000D01*
X156815000Y-132040000D02*
X135085000Y-132040000D01*
X156765000Y-132080000D02*
X135135000Y-132080000D01*
X156713000Y-132120000D02*
X135187000Y-132120000D01*
X156661000Y-132160000D02*
X135239000Y-132160000D01*
X156609000Y-132200000D02*
X135291000Y-132200000D01*
X156557000Y-132240000D02*
X135343000Y-132240000D01*
X156504000Y-132280000D02*
X135396000Y-132280000D01*
X156450000Y-132320000D02*
X135450000Y-132320000D01*
X156397000Y-132360000D02*
X135503000Y-132360000D01*
X156342000Y-132400000D02*
X135558000Y-132400000D01*
X156288000Y-132440000D02*
X135612000Y-132440000D01*
X156233000Y-132480000D02*
X135667000Y-132480000D01*
X156177000Y-132520000D02*
X135723000Y-132520000D01*
X156121000Y-132560000D02*
X135779000Y-132560000D01*
X156065000Y-132600000D02*
X135835000Y-132600000D01*
X156008000Y-132640000D02*
X135892000Y-132640000D01*
X155950000Y-132680000D02*
X135950000Y-132680000D01*
X155892000Y-132720000D02*
X136008000Y-132720000D01*
X155834000Y-132760000D02*
X136066000Y-132760000D01*
X155775000Y-132800000D02*
X136125000Y-132800000D01*
X155715000Y-132840000D02*
X136185000Y-132840000D01*
X155655000Y-132880000D02*
X136245000Y-132880000D01*
X155595000Y-132920000D02*
X136305000Y-132920000D01*
X155534000Y-132960000D02*
X136366000Y-132960000D01*
X155472000Y-133000000D02*
X136428000Y-133000000D01*
X155410000Y-133040000D02*
X136490000Y-133040000D01*
X155347000Y-133080000D02*
X136553000Y-133080000D01*
X155284000Y-133120000D02*
X136616000Y-133120000D01*
X155220000Y-133160000D02*
X136680000Y-133160000D01*
X155155000Y-133200000D02*
X136745000Y-133200000D01*
X155090000Y-133240000D02*
X136810000Y-133240000D01*
X155024000Y-133280000D02*
X136876000Y-133280000D01*
X154958000Y-133320000D02*
X136942000Y-133320000D01*
X154890000Y-133360000D02*
X137010000Y-133360000D01*
X154823000Y-133400000D02*
X137077000Y-133400000D01*
X154754000Y-133440000D02*
X137146000Y-133440000D01*
X154685000Y-133480000D02*
X137215000Y-133480000D01*
X154615000Y-133520000D02*
X137285000Y-133520000D01*
X154544000Y-133560000D02*
X137356000Y-133560000D01*
X154472000Y-133600000D02*
X137428000Y-133600000D01*
X154400000Y-133640000D02*
X137500000Y-133640000D01*
X154327000Y-133680000D02*
X137573000Y-133680000D01*
X154253000Y-133720000D02*
X137647000Y-133720000D01*
X154178000Y-133760000D02*
X137722000Y-133760000D01*
X154102000Y-133800000D02*
X137798000Y-133800000D01*
X154026000Y-133840000D02*
X137874000Y-133840000D01*
X153948000Y-133880000D02*
X137952000Y-133880000D01*
X153870000Y-133920000D02*
X138030000Y-133920000D01*
X153790000Y-133960000D02*
X138110000Y-133960000D01*
X153709000Y-134000000D02*
X138191000Y-134000000D01*
X153628000Y-134040000D02*
X138272000Y-134040000D01*
X153545000Y-134080000D02*
X138355000Y-134080000D01*
X153462000Y-134120000D02*
X138438000Y-134120000D01*
X153377000Y-134160000D02*
X138523000Y-134160000D01*
X153291000Y-134200000D02*
X138609000Y-134200000D01*
X153203000Y-134240000D02*
X138697000Y-134240000D01*
X153115000Y-134280000D02*
X138785000Y-134280000D01*
X153025000Y-134320000D02*
X138875000Y-134320000D01*
X152933000Y-134360000D02*
X138967000Y-134360000D01*
X152840000Y-134400000D02*
X139060000Y-134400000D01*
X152746000Y-134440000D02*
X139154000Y-134440000D01*
X152650000Y-134480000D02*
X139250000Y-134480000D01*
X152553000Y-134520000D02*
X139347000Y-134520000D01*
X152454000Y-134560000D02*
X139446000Y-134560000D01*
X152353000Y-134600000D02*
X139547000Y-134600000D01*
X152250000Y-134640000D02*
X139650000Y-134640000D01*
X152145000Y-134680000D02*
X139755000Y-134680000D01*
X152039000Y-134720000D02*
X139861000Y-134720000D01*
X151930000Y-134760000D02*
X139970000Y-134760000D01*
X151818000Y-134800000D02*
X140082000Y-134800000D01*
X151705000Y-134840000D02*
X140195000Y-134840000D01*
X151589000Y-134880000D02*
X140311000Y-134880000D01*
X151470000Y-134920000D02*
X140430000Y-134920000D01*
X151348000Y-134960000D02*
X140552000Y-134960000D01*
X151223000Y-135000000D02*
X140677000Y-135000000D01*
X151095000Y-135040000D02*
X140805000Y-135040000D01*
X150963000Y-135080000D02*
X140937000Y-135080000D01*
X150828000Y-135120000D02*
X141072000Y-135120000D01*
X150688000Y-135160000D02*
X141212000Y-135160000D01*
X150543000Y-135200000D02*
X141357000Y-135200000D01*
X150394000Y-135240000D02*
X141506000Y-135240000D01*
X150239000Y-135280000D02*
X141661000Y-135280000D01*
X150078000Y-135320000D02*
X141822000Y-135320000D01*
X149910000Y-135360000D02*
X141990000Y-135360000D01*
X149735000Y-135400000D02*
X142165000Y-135400000D01*
X149550000Y-135440000D02*
X142350000Y-135440000D01*
X149355000Y-135480000D02*
X142545000Y-135480000D01*
X149148000Y-135520000D02*
X142752000Y-135520000D01*
X148926000Y-135560000D02*
X142974000Y-135560000D01*
X148686000Y-135600000D02*
X143214000Y-135600000D01*
X148423000Y-135640000D02*
X143477000Y-135640000D01*
X148127000Y-135680000D02*
X143773000Y-135680000D01*
X147785000Y-135720000D02*
X144115000Y-135720000D01*
X147363000Y-135760000D02*
X144537000Y-135760000D01*
X146750000Y-135800000D02*
X145150000Y-135800000D01*
X155825000Y-99345998D02*
X155825000Y-102845998D01*
X157575000Y-101095998D02*
X154075000Y-101095998D01*
G04 #@! TO.C,D1*
X74500000Y-135585000D02*
X78385000Y-135585000D01*
X78385000Y-135585000D02*
X78385000Y-133315000D01*
X78385000Y-133315000D02*
X74500000Y-133315000D01*
G04 #@! TO.C,R3*
X82110000Y-129335436D02*
X82110000Y-130539564D01*
X80290000Y-129335436D02*
X80290000Y-130539564D01*
G04 #@! TO.C,R2*
X78860000Y-130539564D02*
X78860000Y-129335436D01*
X77040000Y-130539564D02*
X77040000Y-129335436D01*
G04 #@! TO.C,R1*
X75610000Y-129335436D02*
X75610000Y-130539564D01*
X73790000Y-129335436D02*
X73790000Y-130539564D01*
D11*
G04 #@! TO.C,J5*
X59140000Y-134375000D02*
X59140000Y-133740000D01*
X64220000Y-134375000D02*
X59140000Y-134375000D01*
X64220000Y-128025000D02*
X64220000Y-128660000D01*
X59140000Y-128025000D02*
X64220000Y-128025000D01*
X59140000Y-128660000D02*
X59140000Y-128025000D01*
X59140000Y-128660000D02*
X59140000Y-129295000D01*
X59140000Y-133740000D02*
X59140000Y-133105000D01*
X64220000Y-128660000D02*
X64220000Y-129295000D01*
X64220000Y-134375000D02*
X64220000Y-133105000D01*
X59140000Y-128660000D02*
X64220000Y-128660000D01*
G04 #@! TO.C,J11*
X65890000Y-134375000D02*
X65890000Y-133740000D01*
X70970000Y-134375000D02*
X65890000Y-134375000D01*
X70970000Y-128025000D02*
X70970000Y-128660000D01*
X65890000Y-128025000D02*
X70970000Y-128025000D01*
X65890000Y-128660000D02*
X65890000Y-128025000D01*
X65890000Y-128660000D02*
X65890000Y-129295000D01*
X65890000Y-133740000D02*
X65890000Y-133105000D01*
X70970000Y-128660000D02*
X70970000Y-129295000D01*
X70970000Y-134375000D02*
X70970000Y-133105000D01*
X65890000Y-128660000D02*
X70970000Y-128660000D01*
G04 #@! TO.C,J8*
X79390000Y-121160000D02*
X84470000Y-121160000D01*
X84470000Y-126875000D02*
X84470000Y-125605000D01*
X84470000Y-121160000D02*
X84470000Y-121795000D01*
X79390000Y-126240000D02*
X79390000Y-125605000D01*
X79390000Y-121160000D02*
X79390000Y-121795000D01*
X79390000Y-121160000D02*
X79390000Y-120525000D01*
X79390000Y-120525000D02*
X84470000Y-120525000D01*
X84470000Y-120525000D02*
X84470000Y-121160000D01*
X84470000Y-126875000D02*
X79390000Y-126875000D01*
X79390000Y-126875000D02*
X79390000Y-126240000D01*
G04 #@! TO.C,J2*
X65890000Y-126875000D02*
X65890000Y-126240000D01*
X70970000Y-126875000D02*
X65890000Y-126875000D01*
X70970000Y-120525000D02*
X70970000Y-121160000D01*
X65890000Y-120525000D02*
X70970000Y-120525000D01*
X65890000Y-121160000D02*
X65890000Y-120525000D01*
X65890000Y-121160000D02*
X65890000Y-121795000D01*
X65890000Y-126240000D02*
X65890000Y-125605000D01*
X70970000Y-121160000D02*
X70970000Y-121795000D01*
X70970000Y-126875000D02*
X70970000Y-125605000D01*
X65890000Y-121160000D02*
X70970000Y-121160000D01*
G04 #@! TO.C,J1*
X59140000Y-121160000D02*
X64220000Y-121160000D01*
X64220000Y-126875000D02*
X64220000Y-125605000D01*
X64220000Y-121160000D02*
X64220000Y-121795000D01*
X59140000Y-126240000D02*
X59140000Y-125605000D01*
X59140000Y-121160000D02*
X59140000Y-121795000D01*
X59140000Y-121160000D02*
X59140000Y-120525000D01*
X59140000Y-120525000D02*
X64220000Y-120525000D01*
X64220000Y-120525000D02*
X64220000Y-121160000D01*
X64220000Y-126875000D02*
X59140000Y-126875000D01*
X59140000Y-126875000D02*
X59140000Y-126240000D01*
G04 #@! TO.C,J14*
X72640000Y-126875000D02*
X72640000Y-126240000D01*
X77720000Y-126875000D02*
X72640000Y-126875000D01*
X77720000Y-120525000D02*
X77720000Y-121160000D01*
X72640000Y-120525000D02*
X77720000Y-120525000D01*
X72640000Y-121160000D02*
X72640000Y-120525000D01*
X72640000Y-121160000D02*
X72640000Y-121795000D01*
X72640000Y-126240000D02*
X72640000Y-125605000D01*
X77720000Y-121160000D02*
X77720000Y-121795000D01*
X77720000Y-126875000D02*
X77720000Y-125605000D01*
X72640000Y-121160000D02*
X77720000Y-121160000D01*
G04 #@! TO.C,J16*
X173375000Y-131510000D02*
X172740000Y-131510000D01*
X173375000Y-126430000D02*
X173375000Y-131510000D01*
X167025000Y-126430000D02*
X167660000Y-126430000D01*
X167025000Y-131510000D02*
X167025000Y-126430000D01*
X167660000Y-131510000D02*
X167025000Y-131510000D01*
X167660000Y-131510000D02*
X168295000Y-131510000D01*
X172740000Y-131510000D02*
X172105000Y-131510000D01*
X167660000Y-126430000D02*
X168295000Y-126430000D01*
X173375000Y-126430000D02*
X172105000Y-126430000D01*
X167660000Y-131510000D02*
X167660000Y-126430000D01*
G04 #@! TO.C,C1*
X126807142Y-118366666D02*
X126854761Y-118414285D01*
X126902380Y-118557142D01*
X126902380Y-118652380D01*
X126854761Y-118795238D01*
X126759523Y-118890476D01*
X126664285Y-118938095D01*
X126473809Y-118985714D01*
X126330952Y-118985714D01*
X126140476Y-118938095D01*
X126045238Y-118890476D01*
X125950000Y-118795238D01*
X125902380Y-118652380D01*
X125902380Y-118557142D01*
X125950000Y-118414285D01*
X125997619Y-118366666D01*
X126902380Y-117414285D02*
X126902380Y-117985714D01*
X126902380Y-117700000D02*
X125902380Y-117700000D01*
X126045238Y-117795238D01*
X126140476Y-117890476D01*
X126188095Y-117985714D01*
G04 #@! TO.C,J3*
X72866666Y-112072380D02*
X72866666Y-112786666D01*
X72819047Y-112929523D01*
X72723809Y-113024761D01*
X72580952Y-113072380D01*
X72485714Y-113072380D01*
X73247619Y-112072380D02*
X73866666Y-112072380D01*
X73533333Y-112453333D01*
X73676190Y-112453333D01*
X73771428Y-112500952D01*
X73819047Y-112548571D01*
X73866666Y-112643809D01*
X73866666Y-112881904D01*
X73819047Y-112977142D01*
X73771428Y-113024761D01*
X73676190Y-113072380D01*
X73390476Y-113072380D01*
X73295238Y-113024761D01*
X73247619Y-112977142D01*
G04 #@! TO.C,J4*
X72866666Y-103072380D02*
X72866666Y-103786666D01*
X72819047Y-103929523D01*
X72723809Y-104024761D01*
X72580952Y-104072380D01*
X72485714Y-104072380D01*
X73771428Y-103405714D02*
X73771428Y-104072380D01*
X73533333Y-103024761D02*
X73295238Y-103739047D01*
X73914285Y-103739047D01*
G04 #@! TO.C,J6*
X67366666Y-112072380D02*
X67366666Y-112786666D01*
X67319047Y-112929523D01*
X67223809Y-113024761D01*
X67080952Y-113072380D01*
X66985714Y-113072380D01*
X68271428Y-112072380D02*
X68080952Y-112072380D01*
X67985714Y-112120000D01*
X67938095Y-112167619D01*
X67842857Y-112310476D01*
X67795238Y-112500952D01*
X67795238Y-112881904D01*
X67842857Y-112977142D01*
X67890476Y-113024761D01*
X67985714Y-113072380D01*
X68176190Y-113072380D01*
X68271428Y-113024761D01*
X68319047Y-112977142D01*
X68366666Y-112881904D01*
X68366666Y-112643809D01*
X68319047Y-112548571D01*
X68271428Y-112500952D01*
X68176190Y-112453333D01*
X67985714Y-112453333D01*
X67890476Y-112500952D01*
X67842857Y-112548571D01*
X67795238Y-112643809D01*
G04 #@! TO.C,J9*
X78366666Y-112072380D02*
X78366666Y-112786666D01*
X78319047Y-112929523D01*
X78223809Y-113024761D01*
X78080952Y-113072380D01*
X77985714Y-113072380D01*
X78890476Y-113072380D02*
X79080952Y-113072380D01*
X79176190Y-113024761D01*
X79223809Y-112977142D01*
X79319047Y-112834285D01*
X79366666Y-112643809D01*
X79366666Y-112262857D01*
X79319047Y-112167619D01*
X79271428Y-112120000D01*
X79176190Y-112072380D01*
X78985714Y-112072380D01*
X78890476Y-112120000D01*
X78842857Y-112167619D01*
X78795238Y-112262857D01*
X78795238Y-112500952D01*
X78842857Y-112596190D01*
X78890476Y-112643809D01*
X78985714Y-112691428D01*
X79176190Y-112691428D01*
X79271428Y-112643809D01*
X79319047Y-112596190D01*
X79366666Y-112500952D01*
G04 #@! TO.C,J10*
X61390476Y-103072380D02*
X61390476Y-103786666D01*
X61342857Y-103929523D01*
X61247619Y-104024761D01*
X61104761Y-104072380D01*
X61009523Y-104072380D01*
X62390476Y-104072380D02*
X61819047Y-104072380D01*
X62104761Y-104072380D02*
X62104761Y-103072380D01*
X62009523Y-103215238D01*
X61914285Y-103310476D01*
X61819047Y-103358095D01*
X63009523Y-103072380D02*
X63104761Y-103072380D01*
X63200000Y-103120000D01*
X63247619Y-103167619D01*
X63295238Y-103262857D01*
X63342857Y-103453333D01*
X63342857Y-103691428D01*
X63295238Y-103881904D01*
X63247619Y-103977142D01*
X63200000Y-104024761D01*
X63104761Y-104072380D01*
X63009523Y-104072380D01*
X62914285Y-104024761D01*
X62866666Y-103977142D01*
X62819047Y-103881904D01*
X62771428Y-103691428D01*
X62771428Y-103453333D01*
X62819047Y-103262857D01*
X62866666Y-103167619D01*
X62914285Y-103120000D01*
X63009523Y-103072380D01*
G04 #@! TO.C,J12*
X83890476Y-112072380D02*
X83890476Y-112786666D01*
X83842857Y-112929523D01*
X83747619Y-113024761D01*
X83604761Y-113072380D01*
X83509523Y-113072380D01*
X84890476Y-113072380D02*
X84319047Y-113072380D01*
X84604761Y-113072380D02*
X84604761Y-112072380D01*
X84509523Y-112215238D01*
X84414285Y-112310476D01*
X84319047Y-112358095D01*
X85271428Y-112167619D02*
X85319047Y-112120000D01*
X85414285Y-112072380D01*
X85652380Y-112072380D01*
X85747619Y-112120000D01*
X85795238Y-112167619D01*
X85842857Y-112262857D01*
X85842857Y-112358095D01*
X85795238Y-112500952D01*
X85223809Y-113072380D01*
X85842857Y-113072380D01*
G04 #@! TO.C,J13*
X77890476Y-103072380D02*
X77890476Y-103786666D01*
X77842857Y-103929523D01*
X77747619Y-104024761D01*
X77604761Y-104072380D01*
X77509523Y-104072380D01*
X78890476Y-104072380D02*
X78319047Y-104072380D01*
X78604761Y-104072380D02*
X78604761Y-103072380D01*
X78509523Y-103215238D01*
X78414285Y-103310476D01*
X78319047Y-103358095D01*
X79223809Y-103072380D02*
X79842857Y-103072380D01*
X79509523Y-103453333D01*
X79652380Y-103453333D01*
X79747619Y-103500952D01*
X79795238Y-103548571D01*
X79842857Y-103643809D01*
X79842857Y-103881904D01*
X79795238Y-103977142D01*
X79747619Y-104024761D01*
X79652380Y-104072380D01*
X79366666Y-104072380D01*
X79271428Y-104024761D01*
X79223809Y-103977142D01*
G04 #@! TO.C,J7*
X67366666Y-103072380D02*
X67366666Y-103786666D01*
X67319047Y-103929523D01*
X67223809Y-104024761D01*
X67080952Y-104072380D01*
X66985714Y-104072380D01*
X67747619Y-103072380D02*
X68414285Y-103072380D01*
X67985714Y-104072380D01*
G04 #@! TO.C,J15*
X83890476Y-103072380D02*
X83890476Y-103786666D01*
X83842857Y-103929523D01*
X83747619Y-104024761D01*
X83604761Y-104072380D01*
X83509523Y-104072380D01*
X84890476Y-104072380D02*
X84319047Y-104072380D01*
X84604761Y-104072380D02*
X84604761Y-103072380D01*
X84509523Y-103215238D01*
X84414285Y-103310476D01*
X84319047Y-103358095D01*
X85795238Y-103072380D02*
X85319047Y-103072380D01*
X85271428Y-103548571D01*
X85319047Y-103500952D01*
X85414285Y-103453333D01*
X85652380Y-103453333D01*
X85747619Y-103500952D01*
X85795238Y-103548571D01*
X85842857Y-103643809D01*
X85842857Y-103881904D01*
X85795238Y-103977142D01*
X85747619Y-104024761D01*
X85652380Y-104072380D01*
X85414285Y-104072380D01*
X85319047Y-104024761D01*
X85271428Y-103977142D01*
G04 #@! TO.C,H3*
X179938095Y-100452380D02*
X179938095Y-99452380D01*
X179938095Y-99928571D02*
X180509523Y-99928571D01*
X180509523Y-100452380D02*
X180509523Y-99452380D01*
X180890476Y-99452380D02*
X181509523Y-99452380D01*
X181176190Y-99833333D01*
X181319047Y-99833333D01*
X181414285Y-99880952D01*
X181461904Y-99928571D01*
X181509523Y-100023809D01*
X181509523Y-100261904D01*
X181461904Y-100357142D01*
X181414285Y-100404761D01*
X181319047Y-100452380D01*
X181033333Y-100452380D01*
X180938095Y-100404761D01*
X180890476Y-100357142D01*
G04 #@! TO.C,H1*
X88188095Y-128452380D02*
X88188095Y-127452380D01*
X88188095Y-127928571D02*
X88759523Y-127928571D01*
X88759523Y-128452380D02*
X88759523Y-127452380D01*
X89759523Y-128452380D02*
X89188095Y-128452380D01*
X89473809Y-128452380D02*
X89473809Y-127452380D01*
X89378571Y-127595238D01*
X89283333Y-127690476D01*
X89188095Y-127738095D01*
G04 #@! TO.C,H2*
X61188095Y-111702380D02*
X61188095Y-110702380D01*
X61188095Y-111178571D02*
X61759523Y-111178571D01*
X61759523Y-111702380D02*
X61759523Y-110702380D01*
X62188095Y-110797619D02*
X62235714Y-110750000D01*
X62330952Y-110702380D01*
X62569047Y-110702380D01*
X62664285Y-110750000D01*
X62711904Y-110797619D01*
X62759523Y-110892857D01*
X62759523Y-110988095D01*
X62711904Y-111130952D01*
X62140476Y-111702380D01*
X62759523Y-111702380D01*
G04 #@! TO.C,TH1*
X165902380Y-116485714D02*
X165902380Y-115914285D01*
X166902380Y-116200000D02*
X165902380Y-116200000D01*
X166902380Y-115580952D02*
X165902380Y-115580952D01*
X166378571Y-115580952D02*
X166378571Y-115009523D01*
X166902380Y-115009523D02*
X165902380Y-115009523D01*
X166902380Y-114009523D02*
X166902380Y-114580952D01*
X166902380Y-114295238D02*
X165902380Y-114295238D01*
X166045238Y-114390476D01*
X166140476Y-114485714D01*
X166188095Y-114580952D01*
G04 #@! TO.C,F1*
X174128571Y-122783333D02*
X174128571Y-123116666D01*
X174652380Y-123116666D02*
X173652380Y-123116666D01*
X173652380Y-122640476D01*
X174652380Y-121735714D02*
X174652380Y-122307142D01*
X174652380Y-122021428D02*
X173652380Y-122021428D01*
X173795238Y-122116666D01*
X173890476Y-122211904D01*
X173938095Y-122307142D01*
G04 #@! TO.C,C2*
X164807142Y-118366666D02*
X164854761Y-118414285D01*
X164902380Y-118557142D01*
X164902380Y-118652380D01*
X164854761Y-118795238D01*
X164759523Y-118890476D01*
X164664285Y-118938095D01*
X164473809Y-118985714D01*
X164330952Y-118985714D01*
X164140476Y-118938095D01*
X164045238Y-118890476D01*
X163950000Y-118795238D01*
X163902380Y-118652380D01*
X163902380Y-118557142D01*
X163950000Y-118414285D01*
X163997619Y-118366666D01*
X163997619Y-117985714D02*
X163950000Y-117938095D01*
X163902380Y-117842857D01*
X163902380Y-117604761D01*
X163950000Y-117509523D01*
X163997619Y-117461904D01*
X164092857Y-117414285D01*
X164188095Y-117414285D01*
X164330952Y-117461904D01*
X164902380Y-118033333D01*
X164902380Y-117414285D01*
G04 #@! TO.C,D1*
X75361904Y-136722380D02*
X75361904Y-135722380D01*
X75600000Y-135722380D01*
X75742857Y-135770000D01*
X75838095Y-135865238D01*
X75885714Y-135960476D01*
X75933333Y-136150952D01*
X75933333Y-136293809D01*
X75885714Y-136484285D01*
X75838095Y-136579523D01*
X75742857Y-136674761D01*
X75600000Y-136722380D01*
X75361904Y-136722380D01*
X76885714Y-136722380D02*
X76314285Y-136722380D01*
X76600000Y-136722380D02*
X76600000Y-135722380D01*
X76504761Y-135865238D01*
X76409523Y-135960476D01*
X76314285Y-136008095D01*
G04 #@! TO.C,R3*
X83472380Y-130104166D02*
X82996190Y-130437500D01*
X83472380Y-130675595D02*
X82472380Y-130675595D01*
X82472380Y-130294642D01*
X82520000Y-130199404D01*
X82567619Y-130151785D01*
X82662857Y-130104166D01*
X82805714Y-130104166D01*
X82900952Y-130151785D01*
X82948571Y-130199404D01*
X82996190Y-130294642D01*
X82996190Y-130675595D01*
X82472380Y-129770833D02*
X82472380Y-129151785D01*
X82853333Y-129485119D01*
X82853333Y-129342261D01*
X82900952Y-129247023D01*
X82948571Y-129199404D01*
X83043809Y-129151785D01*
X83281904Y-129151785D01*
X83377142Y-129199404D01*
X83424761Y-129247023D01*
X83472380Y-129342261D01*
X83472380Y-129627976D01*
X83424761Y-129723214D01*
X83377142Y-129770833D01*
G04 #@! TO.C,R2*
X73402380Y-130116666D02*
X72926190Y-130450000D01*
X73402380Y-130688095D02*
X72402380Y-130688095D01*
X72402380Y-130307142D01*
X72450000Y-130211904D01*
X72497619Y-130164285D01*
X72592857Y-130116666D01*
X72735714Y-130116666D01*
X72830952Y-130164285D01*
X72878571Y-130211904D01*
X72926190Y-130307142D01*
X72926190Y-130688095D01*
X72497619Y-129735714D02*
X72450000Y-129688095D01*
X72402380Y-129592857D01*
X72402380Y-129354761D01*
X72450000Y-129259523D01*
X72497619Y-129211904D01*
X72592857Y-129164285D01*
X72688095Y-129164285D01*
X72830952Y-129211904D01*
X73402380Y-129783333D01*
X73402380Y-129164285D01*
G04 #@! TO.C,R1*
X76972380Y-130104166D02*
X76496190Y-130437500D01*
X76972380Y-130675595D02*
X75972380Y-130675595D01*
X75972380Y-130294642D01*
X76020000Y-130199404D01*
X76067619Y-130151785D01*
X76162857Y-130104166D01*
X76305714Y-130104166D01*
X76400952Y-130151785D01*
X76448571Y-130199404D01*
X76496190Y-130294642D01*
X76496190Y-130675595D01*
X76972380Y-129151785D02*
X76972380Y-129723214D01*
X76972380Y-129437500D02*
X75972380Y-129437500D01*
X76115238Y-129532738D01*
X76210476Y-129627976D01*
X76258095Y-129723214D01*
G04 #@! TO.C,J5*
X61346666Y-126207380D02*
X61346666Y-126921666D01*
X61299047Y-127064523D01*
X61203809Y-127159761D01*
X61060952Y-127207380D01*
X60965714Y-127207380D01*
X62299047Y-126207380D02*
X61822857Y-126207380D01*
X61775238Y-126683571D01*
X61822857Y-126635952D01*
X61918095Y-126588333D01*
X62156190Y-126588333D01*
X62251428Y-126635952D01*
X62299047Y-126683571D01*
X62346666Y-126778809D01*
X62346666Y-127016904D01*
X62299047Y-127112142D01*
X62251428Y-127159761D01*
X62156190Y-127207380D01*
X61918095Y-127207380D01*
X61822857Y-127159761D01*
X61775238Y-127112142D01*
G04 #@! TO.C,J11*
X67620476Y-126207380D02*
X67620476Y-126921666D01*
X67572857Y-127064523D01*
X67477619Y-127159761D01*
X67334761Y-127207380D01*
X67239523Y-127207380D01*
X68620476Y-127207380D02*
X68049047Y-127207380D01*
X68334761Y-127207380D02*
X68334761Y-126207380D01*
X68239523Y-126350238D01*
X68144285Y-126445476D01*
X68049047Y-126493095D01*
X69572857Y-127207380D02*
X69001428Y-127207380D01*
X69287142Y-127207380D02*
X69287142Y-126207380D01*
X69191904Y-126350238D01*
X69096666Y-126445476D01*
X69001428Y-126493095D01*
G04 #@! TO.C,J8*
X81596666Y-118707380D02*
X81596666Y-119421666D01*
X81549047Y-119564523D01*
X81453809Y-119659761D01*
X81310952Y-119707380D01*
X81215714Y-119707380D01*
X82215714Y-119135952D02*
X82120476Y-119088333D01*
X82072857Y-119040714D01*
X82025238Y-118945476D01*
X82025238Y-118897857D01*
X82072857Y-118802619D01*
X82120476Y-118755000D01*
X82215714Y-118707380D01*
X82406190Y-118707380D01*
X82501428Y-118755000D01*
X82549047Y-118802619D01*
X82596666Y-118897857D01*
X82596666Y-118945476D01*
X82549047Y-119040714D01*
X82501428Y-119088333D01*
X82406190Y-119135952D01*
X82215714Y-119135952D01*
X82120476Y-119183571D01*
X82072857Y-119231190D01*
X82025238Y-119326428D01*
X82025238Y-119516904D01*
X82072857Y-119612142D01*
X82120476Y-119659761D01*
X82215714Y-119707380D01*
X82406190Y-119707380D01*
X82501428Y-119659761D01*
X82549047Y-119612142D01*
X82596666Y-119516904D01*
X82596666Y-119326428D01*
X82549047Y-119231190D01*
X82501428Y-119183571D01*
X82406190Y-119135952D01*
G04 #@! TO.C,J2*
X68096666Y-118707380D02*
X68096666Y-119421666D01*
X68049047Y-119564523D01*
X67953809Y-119659761D01*
X67810952Y-119707380D01*
X67715714Y-119707380D01*
X68525238Y-118802619D02*
X68572857Y-118755000D01*
X68668095Y-118707380D01*
X68906190Y-118707380D01*
X69001428Y-118755000D01*
X69049047Y-118802619D01*
X69096666Y-118897857D01*
X69096666Y-118993095D01*
X69049047Y-119135952D01*
X68477619Y-119707380D01*
X69096666Y-119707380D01*
G04 #@! TO.C,J1*
X61346666Y-118707380D02*
X61346666Y-119421666D01*
X61299047Y-119564523D01*
X61203809Y-119659761D01*
X61060952Y-119707380D01*
X60965714Y-119707380D01*
X62346666Y-119707380D02*
X61775238Y-119707380D01*
X62060952Y-119707380D02*
X62060952Y-118707380D01*
X61965714Y-118850238D01*
X61870476Y-118945476D01*
X61775238Y-118993095D01*
G04 #@! TO.C,J14*
X74370476Y-118707380D02*
X74370476Y-119421666D01*
X74322857Y-119564523D01*
X74227619Y-119659761D01*
X74084761Y-119707380D01*
X73989523Y-119707380D01*
X75370476Y-119707380D02*
X74799047Y-119707380D01*
X75084761Y-119707380D02*
X75084761Y-118707380D01*
X74989523Y-118850238D01*
X74894285Y-118945476D01*
X74799047Y-118993095D01*
X76227619Y-119040714D02*
X76227619Y-119707380D01*
X75989523Y-118659761D02*
X75751428Y-119374047D01*
X76370476Y-119374047D01*
G04 #@! TO.C,J16*
X165207380Y-129779523D02*
X165921666Y-129779523D01*
X166064523Y-129827142D01*
X166159761Y-129922380D01*
X166207380Y-130065238D01*
X166207380Y-130160476D01*
X166207380Y-128779523D02*
X166207380Y-129350952D01*
X166207380Y-129065238D02*
X165207380Y-129065238D01*
X165350238Y-129160476D01*
X165445476Y-129255714D01*
X165493095Y-129350952D01*
X165207380Y-127922380D02*
X165207380Y-128112857D01*
X165255000Y-128208095D01*
X165302619Y-128255714D01*
X165445476Y-128350952D01*
X165635952Y-128398571D01*
X166016904Y-128398571D01*
X166112142Y-128350952D01*
X166159761Y-128303333D01*
X166207380Y-128208095D01*
X166207380Y-128017619D01*
X166159761Y-127922380D01*
X166112142Y-127874761D01*
X166016904Y-127827142D01*
X165778809Y-127827142D01*
X165683571Y-127874761D01*
X165635952Y-127922380D01*
X165588333Y-128017619D01*
X165588333Y-128208095D01*
X165635952Y-128303333D01*
X165683571Y-128350952D01*
X165778809Y-128398571D01*
G04 #@! TD*
M02*
