G04 #@! TF.GenerationSoftware,KiCad,Pcbnew,5.0.1-33cea8e~68~ubuntu16.04.1*
G04 #@! TF.CreationDate,2019-04-13T16:41:16-04:00*
G04 #@! TF.ProjectId,filterbuffer,66696C7465726275666665722E6B6963,rev?*
G04 #@! TF.SameCoordinates,Original*
G04 #@! TF.FileFunction,Legend,Top*
G04 #@! TF.FilePolarity,Positive*
%FSLAX46Y46*%
G04 Gerber Fmt 4.6, Leading zero omitted, Abs format (unit mm)*
G04 Created by KiCad (PCBNEW 5.0.1-33cea8e~68~ubuntu16.04.1) date Sat 13 Apr 2019 16:41:16 EDT*
%MOMM*%
%LPD*%
G01*
G04 APERTURE LIST*
%ADD10C,0.120000*%
%ADD11C,0.150000*%
G04 APERTURE END LIST*
D10*
G04 #@! TO.C,TH1*
X180185000Y-109820000D02*
X163845000Y-109820000D01*
X180185000Y-100580000D02*
X163845000Y-100580000D01*
X180185000Y-109820000D02*
X180185000Y-100580000D01*
X163845000Y-109820000D02*
X163845000Y-100580000D01*
X178566000Y-109820000D02*
X178566000Y-100580000D01*
X165464000Y-109820000D02*
X165464000Y-100580000D01*
G04 #@! TO.C,F1*
X175750000Y-114100000D02*
X172950000Y-114100000D01*
X168950000Y-114100000D02*
X166150000Y-114100000D01*
X168950000Y-136700000D02*
X166150000Y-136700000D01*
X166150000Y-136700000D02*
X166150000Y-114100000D01*
X175750000Y-136700000D02*
X175750000Y-114100000D01*
X175750000Y-136700000D02*
X172950000Y-136700000D01*
G04 #@! TO.C,C1*
X117575000Y-101095998D02*
X114075000Y-101095998D01*
X115825000Y-99345998D02*
X115825000Y-102845998D01*
X106750000Y-135800000D02*
X105150000Y-135800000D01*
X107363000Y-135760000D02*
X104537000Y-135760000D01*
X107785000Y-135720000D02*
X104115000Y-135720000D01*
X108127000Y-135680000D02*
X103773000Y-135680000D01*
X108423000Y-135640000D02*
X103477000Y-135640000D01*
X108686000Y-135600000D02*
X103214000Y-135600000D01*
X108926000Y-135560000D02*
X102974000Y-135560000D01*
X109148000Y-135520000D02*
X102752000Y-135520000D01*
X109355000Y-135480000D02*
X102545000Y-135480000D01*
X109550000Y-135440000D02*
X102350000Y-135440000D01*
X109735000Y-135400000D02*
X102165000Y-135400000D01*
X109910000Y-135360000D02*
X101990000Y-135360000D01*
X110078000Y-135320000D02*
X101822000Y-135320000D01*
X110239000Y-135280000D02*
X101661000Y-135280000D01*
X110394000Y-135240000D02*
X101506000Y-135240000D01*
X110543000Y-135200000D02*
X101357000Y-135200000D01*
X110688000Y-135160000D02*
X101212000Y-135160000D01*
X110828000Y-135120000D02*
X101072000Y-135120000D01*
X110963000Y-135080000D02*
X100937000Y-135080000D01*
X111095000Y-135040000D02*
X100805000Y-135040000D01*
X111223000Y-135000000D02*
X100677000Y-135000000D01*
X111348000Y-134960000D02*
X100552000Y-134960000D01*
X111470000Y-134920000D02*
X100430000Y-134920000D01*
X111589000Y-134880000D02*
X100311000Y-134880000D01*
X111705000Y-134840000D02*
X100195000Y-134840000D01*
X111818000Y-134800000D02*
X100082000Y-134800000D01*
X111930000Y-134760000D02*
X99970000Y-134760000D01*
X112039000Y-134720000D02*
X99861000Y-134720000D01*
X112145000Y-134680000D02*
X99755000Y-134680000D01*
X112250000Y-134640000D02*
X99650000Y-134640000D01*
X112353000Y-134600000D02*
X99547000Y-134600000D01*
X112454000Y-134560000D02*
X99446000Y-134560000D01*
X112553000Y-134520000D02*
X99347000Y-134520000D01*
X112650000Y-134480000D02*
X99250000Y-134480000D01*
X112746000Y-134440000D02*
X99154000Y-134440000D01*
X112840000Y-134400000D02*
X99060000Y-134400000D01*
X112933000Y-134360000D02*
X98967000Y-134360000D01*
X113025000Y-134320000D02*
X98875000Y-134320000D01*
X113115000Y-134280000D02*
X98785000Y-134280000D01*
X113203000Y-134240000D02*
X98697000Y-134240000D01*
X113291000Y-134200000D02*
X98609000Y-134200000D01*
X113377000Y-134160000D02*
X98523000Y-134160000D01*
X113462000Y-134120000D02*
X98438000Y-134120000D01*
X113545000Y-134080000D02*
X98355000Y-134080000D01*
X113628000Y-134040000D02*
X98272000Y-134040000D01*
X113709000Y-134000000D02*
X98191000Y-134000000D01*
X113790000Y-133960000D02*
X98110000Y-133960000D01*
X113870000Y-133920000D02*
X98030000Y-133920000D01*
X113948000Y-133880000D02*
X97952000Y-133880000D01*
X114026000Y-133840000D02*
X97874000Y-133840000D01*
X114102000Y-133800000D02*
X97798000Y-133800000D01*
X114178000Y-133760000D02*
X97722000Y-133760000D01*
X114253000Y-133720000D02*
X97647000Y-133720000D01*
X114327000Y-133680000D02*
X97573000Y-133680000D01*
X114400000Y-133640000D02*
X97500000Y-133640000D01*
X114472000Y-133600000D02*
X97428000Y-133600000D01*
X114544000Y-133560000D02*
X97356000Y-133560000D01*
X114615000Y-133520000D02*
X97285000Y-133520000D01*
X114685000Y-133480000D02*
X97215000Y-133480000D01*
X114754000Y-133440000D02*
X97146000Y-133440000D01*
X114823000Y-133400000D02*
X97077000Y-133400000D01*
X114890000Y-133360000D02*
X97010000Y-133360000D01*
X114958000Y-133320000D02*
X96942000Y-133320000D01*
X115024000Y-133280000D02*
X96876000Y-133280000D01*
X115090000Y-133240000D02*
X96810000Y-133240000D01*
X115155000Y-133200000D02*
X96745000Y-133200000D01*
X115220000Y-133160000D02*
X96680000Y-133160000D01*
X115284000Y-133120000D02*
X96616000Y-133120000D01*
X115347000Y-133080000D02*
X96553000Y-133080000D01*
X115410000Y-133040000D02*
X96490000Y-133040000D01*
X115472000Y-133000000D02*
X96428000Y-133000000D01*
X115534000Y-132960000D02*
X96366000Y-132960000D01*
X115595000Y-132920000D02*
X96305000Y-132920000D01*
X115655000Y-132880000D02*
X96245000Y-132880000D01*
X115715000Y-132840000D02*
X96185000Y-132840000D01*
X115775000Y-132800000D02*
X96125000Y-132800000D01*
X115834000Y-132760000D02*
X96066000Y-132760000D01*
X115892000Y-132720000D02*
X96008000Y-132720000D01*
X115950000Y-132680000D02*
X95950000Y-132680000D01*
X116008000Y-132640000D02*
X95892000Y-132640000D01*
X116065000Y-132600000D02*
X95835000Y-132600000D01*
X116121000Y-132560000D02*
X95779000Y-132560000D01*
X116177000Y-132520000D02*
X95723000Y-132520000D01*
X116233000Y-132480000D02*
X95667000Y-132480000D01*
X116288000Y-132440000D02*
X95612000Y-132440000D01*
X116342000Y-132400000D02*
X95558000Y-132400000D01*
X116397000Y-132360000D02*
X95503000Y-132360000D01*
X116450000Y-132320000D02*
X95450000Y-132320000D01*
X116504000Y-132280000D02*
X95396000Y-132280000D01*
X116557000Y-132240000D02*
X95343000Y-132240000D01*
X116609000Y-132200000D02*
X95291000Y-132200000D01*
X116661000Y-132160000D02*
X95239000Y-132160000D01*
X116713000Y-132120000D02*
X95187000Y-132120000D01*
X116765000Y-132080000D02*
X95135000Y-132080000D01*
X116815000Y-132040000D02*
X95085000Y-132040000D01*
X116866000Y-132000000D02*
X95034000Y-132000000D01*
X116916000Y-131960000D02*
X94984000Y-131960000D01*
X116966000Y-131920000D02*
X94934000Y-131920000D01*
X117016000Y-131880000D02*
X94884000Y-131880000D01*
X117065000Y-131840000D02*
X94835000Y-131840000D01*
X117113000Y-131800000D02*
X94787000Y-131800000D01*
X117162000Y-131760000D02*
X94738000Y-131760000D01*
X117210000Y-131720000D02*
X94690000Y-131720000D01*
X117257000Y-131680000D02*
X94643000Y-131680000D01*
X117305000Y-131640000D02*
X94595000Y-131640000D01*
X117352000Y-131600000D02*
X94548000Y-131600000D01*
X117399000Y-131560000D02*
X94501000Y-131560000D01*
X117445000Y-131520000D02*
X94455000Y-131520000D01*
X117491000Y-131480000D02*
X94409000Y-131480000D01*
X117537000Y-131440000D02*
X94363000Y-131440000D01*
X117582000Y-131400000D02*
X94318000Y-131400000D01*
X117627000Y-131360000D02*
X94273000Y-131360000D01*
X117672000Y-131320000D02*
X94228000Y-131320000D01*
X117716000Y-131280000D02*
X94184000Y-131280000D01*
X117761000Y-131240000D02*
X94139000Y-131240000D01*
X117804000Y-131200000D02*
X94096000Y-131200000D01*
X117848000Y-131160000D02*
X94052000Y-131160000D01*
X117891000Y-131120000D02*
X94009000Y-131120000D01*
X117934000Y-131080000D02*
X93966000Y-131080000D01*
X117977000Y-131040000D02*
X93923000Y-131040000D01*
X118019000Y-131000000D02*
X93881000Y-131000000D01*
X118061000Y-130960000D02*
X93839000Y-130960000D01*
X118103000Y-130920000D02*
X93797000Y-130920000D01*
X118145000Y-130880000D02*
X93755000Y-130880000D01*
X118186000Y-130840000D02*
X93714000Y-130840000D01*
X118227000Y-130800000D02*
X93673000Y-130800000D01*
X118268000Y-130760000D02*
X93632000Y-130760000D01*
X118309000Y-130720000D02*
X93591000Y-130720000D01*
X118349000Y-130680000D02*
X93551000Y-130680000D01*
X118389000Y-130640000D02*
X93511000Y-130640000D01*
X118429000Y-130600000D02*
X93471000Y-130600000D01*
X118468000Y-130560000D02*
X93432000Y-130560000D01*
X118507000Y-130520000D02*
X93393000Y-130520000D01*
X118546000Y-130480000D02*
X93354000Y-130480000D01*
X118585000Y-130440000D02*
X93315000Y-130440000D01*
X118624000Y-130400000D02*
X93276000Y-130400000D01*
X118662000Y-130360000D02*
X93238000Y-130360000D01*
X118700000Y-130320000D02*
X93200000Y-130320000D01*
X118738000Y-130280000D02*
X93162000Y-130280000D01*
X118775000Y-130240000D02*
X93125000Y-130240000D01*
X118813000Y-130200000D02*
X93087000Y-130200000D01*
X118850000Y-130160000D02*
X93050000Y-130160000D01*
X118887000Y-130120000D02*
X93013000Y-130120000D01*
X118923000Y-130080000D02*
X92977000Y-130080000D01*
X118960000Y-130040000D02*
X92940000Y-130040000D01*
X118996000Y-130000000D02*
X92904000Y-130000000D01*
X119032000Y-129960000D02*
X92868000Y-129960000D01*
X119067000Y-129920000D02*
X92833000Y-129920000D01*
X119103000Y-129880000D02*
X92797000Y-129880000D01*
X119138000Y-129840000D02*
X92762000Y-129840000D01*
X119173000Y-129800000D02*
X92727000Y-129800000D01*
X119208000Y-129760000D02*
X92692000Y-129760000D01*
X119243000Y-129720000D02*
X92657000Y-129720000D01*
X119277000Y-129680000D02*
X92623000Y-129680000D01*
X119312000Y-129640000D02*
X92588000Y-129640000D01*
X119346000Y-129600000D02*
X92554000Y-129600000D01*
X119380000Y-129560000D02*
X92520000Y-129560000D01*
X119413000Y-129520000D02*
X92487000Y-129520000D01*
X119447000Y-129480000D02*
X92453000Y-129480000D01*
X119480000Y-129440000D02*
X92420000Y-129440000D01*
X119513000Y-129400000D02*
X92387000Y-129400000D01*
X119546000Y-129360000D02*
X92354000Y-129360000D01*
X119578000Y-129320000D02*
X92322000Y-129320000D01*
X119611000Y-129280000D02*
X92289000Y-129280000D01*
X119643000Y-129240000D02*
X92257000Y-129240000D01*
X119675000Y-129200000D02*
X92225000Y-129200000D01*
X119707000Y-129160000D02*
X92193000Y-129160000D01*
X119739000Y-129120000D02*
X92161000Y-129120000D01*
X119770000Y-129080000D02*
X92130000Y-129080000D01*
X119801000Y-129040000D02*
X92099000Y-129040000D01*
X119833000Y-129000000D02*
X92067000Y-129000000D01*
X119864000Y-128960000D02*
X92036000Y-128960000D01*
X119894000Y-128920000D02*
X92006000Y-128920000D01*
X119925000Y-128880000D02*
X91975000Y-128880000D01*
X119955000Y-128840000D02*
X91945000Y-128840000D01*
X119985000Y-128800000D02*
X91915000Y-128800000D01*
X120015000Y-128760000D02*
X91885000Y-128760000D01*
X120045000Y-128720000D02*
X91855000Y-128720000D01*
X120075000Y-128680000D02*
X91825000Y-128680000D01*
X120105000Y-128640000D02*
X91795000Y-128640000D01*
X120134000Y-128600000D02*
X91766000Y-128600000D01*
X120163000Y-128560000D02*
X91737000Y-128560000D01*
X120192000Y-128520000D02*
X91708000Y-128520000D01*
X120221000Y-128480000D02*
X91679000Y-128480000D01*
X120249000Y-128440000D02*
X91651000Y-128440000D01*
X120278000Y-128400000D02*
X91622000Y-128400000D01*
X120306000Y-128360000D02*
X91594000Y-128360000D01*
X120334000Y-128320000D02*
X91566000Y-128320000D01*
X120362000Y-128280000D02*
X91538000Y-128280000D01*
X120390000Y-128240000D02*
X91510000Y-128240000D01*
X120418000Y-128200000D02*
X91482000Y-128200000D01*
X120445000Y-128160000D02*
X91455000Y-128160000D01*
X120473000Y-128120000D02*
X91427000Y-128120000D01*
X120500000Y-128080000D02*
X91400000Y-128080000D01*
X120527000Y-128040000D02*
X91373000Y-128040000D01*
X120554000Y-128000000D02*
X91346000Y-128000000D01*
X120580000Y-127960000D02*
X91320000Y-127960000D01*
X120607000Y-127920000D02*
X91293000Y-127920000D01*
X120633000Y-127880000D02*
X91267000Y-127880000D01*
X120660000Y-127840000D02*
X91240000Y-127840000D01*
X120686000Y-127800000D02*
X91214000Y-127800000D01*
X120712000Y-127760000D02*
X91188000Y-127760000D01*
X120737000Y-127720000D02*
X91163000Y-127720000D01*
X120763000Y-127680000D02*
X91137000Y-127680000D01*
X120788000Y-127640000D02*
X91112000Y-127640000D01*
X120814000Y-127600000D02*
X91086000Y-127600000D01*
X120839000Y-127560000D02*
X91061000Y-127560000D01*
X120864000Y-127520000D02*
X91036000Y-127520000D01*
X120889000Y-127480000D02*
X91011000Y-127480000D01*
X120913000Y-127440000D02*
X90987000Y-127440000D01*
X120938000Y-127400000D02*
X90962000Y-127400000D01*
X120962000Y-127360000D02*
X90938000Y-127360000D01*
X120987000Y-127320000D02*
X90913000Y-127320000D01*
X121011000Y-127280000D02*
X90889000Y-127280000D01*
X121035000Y-127240000D02*
X90865000Y-127240000D01*
X121059000Y-127200000D02*
X90841000Y-127200000D01*
X121082000Y-127160000D02*
X90818000Y-127160000D01*
X121106000Y-127120000D02*
X90794000Y-127120000D01*
X121129000Y-127080000D02*
X90771000Y-127080000D01*
X121153000Y-127040000D02*
X90747000Y-127040000D01*
X121176000Y-127000000D02*
X90724000Y-127000000D01*
X121199000Y-126960000D02*
X90701000Y-126960000D01*
X121221000Y-126920000D02*
X90679000Y-126920000D01*
X121244000Y-126880000D02*
X90656000Y-126880000D01*
X121267000Y-126840000D02*
X90633000Y-126840000D01*
X121289000Y-126800000D02*
X90611000Y-126800000D01*
X121311000Y-126760000D02*
X90589000Y-126760000D01*
X121334000Y-126720000D02*
X90566000Y-126720000D01*
X121356000Y-126680000D02*
X90544000Y-126680000D01*
X121378000Y-126640000D02*
X90522000Y-126640000D01*
X121399000Y-126600000D02*
X90501000Y-126600000D01*
X121421000Y-126560000D02*
X90479000Y-126560000D01*
X121442000Y-126520000D02*
X90458000Y-126520000D01*
X121464000Y-126480000D02*
X90436000Y-126480000D01*
X121485000Y-126440000D02*
X90415000Y-126440000D01*
X121506000Y-126400000D02*
X90394000Y-126400000D01*
X121527000Y-126361000D02*
X90373000Y-126361000D01*
X121548000Y-126321000D02*
X90352000Y-126321000D01*
X121569000Y-126281000D02*
X90331000Y-126281000D01*
X121589000Y-126241000D02*
X90311000Y-126241000D01*
X121610000Y-126201000D02*
X90290000Y-126201000D01*
X121630000Y-126161000D02*
X90270000Y-126161000D01*
X121650000Y-126121000D02*
X90250000Y-126121000D01*
X121670000Y-126081000D02*
X90230000Y-126081000D01*
X121690000Y-126041000D02*
X90210000Y-126041000D01*
X121710000Y-126001000D02*
X90190000Y-126001000D01*
X121730000Y-125961000D02*
X90170000Y-125961000D01*
X121749000Y-125921000D02*
X90151000Y-125921000D01*
X121769000Y-125881000D02*
X90131000Y-125881000D01*
X121788000Y-125841000D02*
X90112000Y-125841000D01*
X121807000Y-125801000D02*
X90093000Y-125801000D01*
X121826000Y-125761000D02*
X90074000Y-125761000D01*
X121845000Y-125721000D02*
X90055000Y-125721000D01*
X121864000Y-125681000D02*
X90036000Y-125681000D01*
X121883000Y-125641000D02*
X90017000Y-125641000D01*
X121901000Y-125601000D02*
X89999000Y-125601000D01*
X121920000Y-125561000D02*
X89980000Y-125561000D01*
X121938000Y-125521000D02*
X89962000Y-125521000D01*
X121956000Y-125481000D02*
X89944000Y-125481000D01*
X121974000Y-125441000D02*
X89926000Y-125441000D01*
X103710000Y-125401000D02*
X89908000Y-125401000D01*
X121992000Y-125401000D02*
X108190000Y-125401000D01*
X103710000Y-125361000D02*
X89890000Y-125361000D01*
X122010000Y-125361000D02*
X108190000Y-125361000D01*
X103710000Y-125321000D02*
X89872000Y-125321000D01*
X122028000Y-125321000D02*
X108190000Y-125321000D01*
X103710000Y-125281000D02*
X89855000Y-125281000D01*
X122045000Y-125281000D02*
X108190000Y-125281000D01*
X103710000Y-125241000D02*
X89837000Y-125241000D01*
X122063000Y-125241000D02*
X108190000Y-125241000D01*
X103710000Y-125201000D02*
X89820000Y-125201000D01*
X122080000Y-125201000D02*
X108190000Y-125201000D01*
X103710000Y-125161000D02*
X89802000Y-125161000D01*
X122098000Y-125161000D02*
X108190000Y-125161000D01*
X103710000Y-125121000D02*
X89785000Y-125121000D01*
X122115000Y-125121000D02*
X108190000Y-125121000D01*
X103710000Y-125081000D02*
X89768000Y-125081000D01*
X122132000Y-125081000D02*
X108190000Y-125081000D01*
X103710000Y-125041000D02*
X89751000Y-125041000D01*
X122149000Y-125041000D02*
X108190000Y-125041000D01*
X103710000Y-125001000D02*
X89735000Y-125001000D01*
X122165000Y-125001000D02*
X108190000Y-125001000D01*
X103710000Y-124961000D02*
X89718000Y-124961000D01*
X122182000Y-124961000D02*
X108190000Y-124961000D01*
X103710000Y-124921000D02*
X89701000Y-124921000D01*
X122199000Y-124921000D02*
X108190000Y-124921000D01*
X103710000Y-124881000D02*
X89685000Y-124881000D01*
X122215000Y-124881000D02*
X108190000Y-124881000D01*
X103710000Y-124841000D02*
X89669000Y-124841000D01*
X122231000Y-124841000D02*
X108190000Y-124841000D01*
X103710000Y-124801000D02*
X89652000Y-124801000D01*
X122248000Y-124801000D02*
X108190000Y-124801000D01*
X103710000Y-124761000D02*
X89636000Y-124761000D01*
X122264000Y-124761000D02*
X108190000Y-124761000D01*
X103710000Y-124721000D02*
X89620000Y-124721000D01*
X122280000Y-124721000D02*
X108190000Y-124721000D01*
X103710000Y-124681000D02*
X89604000Y-124681000D01*
X122296000Y-124681000D02*
X108190000Y-124681000D01*
X103710000Y-124641000D02*
X89589000Y-124641000D01*
X122311000Y-124641000D02*
X108190000Y-124641000D01*
X103710000Y-124601000D02*
X89573000Y-124601000D01*
X122327000Y-124601000D02*
X108190000Y-124601000D01*
X103710000Y-124561000D02*
X89557000Y-124561000D01*
X122343000Y-124561000D02*
X108190000Y-124561000D01*
X103710000Y-124521000D02*
X89542000Y-124521000D01*
X122358000Y-124521000D02*
X108190000Y-124521000D01*
X103710000Y-124481000D02*
X89527000Y-124481000D01*
X122373000Y-124481000D02*
X108190000Y-124481000D01*
X103710000Y-124441000D02*
X89511000Y-124441000D01*
X122389000Y-124441000D02*
X108190000Y-124441000D01*
X103710000Y-124401000D02*
X89496000Y-124401000D01*
X122404000Y-124401000D02*
X108190000Y-124401000D01*
X103710000Y-124361000D02*
X89481000Y-124361000D01*
X122419000Y-124361000D02*
X108190000Y-124361000D01*
X103710000Y-124321000D02*
X89466000Y-124321000D01*
X122434000Y-124321000D02*
X108190000Y-124321000D01*
X103710000Y-124281000D02*
X89452000Y-124281000D01*
X122448000Y-124281000D02*
X108190000Y-124281000D01*
X103710000Y-124241000D02*
X89437000Y-124241000D01*
X122463000Y-124241000D02*
X108190000Y-124241000D01*
X103710000Y-124201000D02*
X89423000Y-124201000D01*
X122477000Y-124201000D02*
X108190000Y-124201000D01*
X103710000Y-124161000D02*
X89408000Y-124161000D01*
X122492000Y-124161000D02*
X108190000Y-124161000D01*
X103710000Y-124121000D02*
X89394000Y-124121000D01*
X122506000Y-124121000D02*
X108190000Y-124121000D01*
X103710000Y-124081000D02*
X89380000Y-124081000D01*
X122520000Y-124081000D02*
X108190000Y-124081000D01*
X103710000Y-124041000D02*
X89365000Y-124041000D01*
X122535000Y-124041000D02*
X108190000Y-124041000D01*
X103710000Y-124001000D02*
X89351000Y-124001000D01*
X122549000Y-124001000D02*
X108190000Y-124001000D01*
X103710000Y-123961000D02*
X89338000Y-123961000D01*
X122562000Y-123961000D02*
X108190000Y-123961000D01*
X103710000Y-123921000D02*
X89324000Y-123921000D01*
X122576000Y-123921000D02*
X108190000Y-123921000D01*
X103710000Y-123881000D02*
X89310000Y-123881000D01*
X122590000Y-123881000D02*
X108190000Y-123881000D01*
X103710000Y-123841000D02*
X89297000Y-123841000D01*
X122603000Y-123841000D02*
X108190000Y-123841000D01*
X103710000Y-123801000D02*
X89283000Y-123801000D01*
X122617000Y-123801000D02*
X108190000Y-123801000D01*
X103710000Y-123761000D02*
X89270000Y-123761000D01*
X122630000Y-123761000D02*
X108190000Y-123761000D01*
X103710000Y-123721000D02*
X89256000Y-123721000D01*
X122644000Y-123721000D02*
X108190000Y-123721000D01*
X103710000Y-123681000D02*
X89243000Y-123681000D01*
X122657000Y-123681000D02*
X108190000Y-123681000D01*
X103710000Y-123641000D02*
X89230000Y-123641000D01*
X122670000Y-123641000D02*
X108190000Y-123641000D01*
X103710000Y-123601000D02*
X89217000Y-123601000D01*
X122683000Y-123601000D02*
X108190000Y-123601000D01*
X103710000Y-123561000D02*
X89205000Y-123561000D01*
X122695000Y-123561000D02*
X108190000Y-123561000D01*
X103710000Y-123521000D02*
X89192000Y-123521000D01*
X122708000Y-123521000D02*
X108190000Y-123521000D01*
X103710000Y-123481000D02*
X89179000Y-123481000D01*
X122721000Y-123481000D02*
X108190000Y-123481000D01*
X103710000Y-123441000D02*
X89167000Y-123441000D01*
X122733000Y-123441000D02*
X108190000Y-123441000D01*
X103710000Y-123401000D02*
X89154000Y-123401000D01*
X122746000Y-123401000D02*
X108190000Y-123401000D01*
X103710000Y-123361000D02*
X89142000Y-123361000D01*
X122758000Y-123361000D02*
X108190000Y-123361000D01*
X103710000Y-123321000D02*
X89130000Y-123321000D01*
X122770000Y-123321000D02*
X108190000Y-123321000D01*
X103710000Y-123281000D02*
X89118000Y-123281000D01*
X122782000Y-123281000D02*
X108190000Y-123281000D01*
X103710000Y-123241000D02*
X89106000Y-123241000D01*
X122794000Y-123241000D02*
X108190000Y-123241000D01*
X103710000Y-123201000D02*
X89094000Y-123201000D01*
X122806000Y-123201000D02*
X108190000Y-123201000D01*
X103710000Y-123161000D02*
X89082000Y-123161000D01*
X122818000Y-123161000D02*
X108190000Y-123161000D01*
X103710000Y-123121000D02*
X89070000Y-123121000D01*
X122830000Y-123121000D02*
X108190000Y-123121000D01*
X103710000Y-123081000D02*
X89059000Y-123081000D01*
X122841000Y-123081000D02*
X108190000Y-123081000D01*
X103710000Y-123041000D02*
X89047000Y-123041000D01*
X122853000Y-123041000D02*
X108190000Y-123041000D01*
X103710000Y-123001000D02*
X89036000Y-123001000D01*
X122864000Y-123001000D02*
X108190000Y-123001000D01*
X103710000Y-122961000D02*
X89025000Y-122961000D01*
X122875000Y-122961000D02*
X108190000Y-122961000D01*
X103710000Y-122921000D02*
X89013000Y-122921000D01*
X122887000Y-122921000D02*
X108190000Y-122921000D01*
X103710000Y-122881000D02*
X89002000Y-122881000D01*
X122898000Y-122881000D02*
X108190000Y-122881000D01*
X103710000Y-122841000D02*
X88991000Y-122841000D01*
X122909000Y-122841000D02*
X108190000Y-122841000D01*
X103710000Y-122801000D02*
X88981000Y-122801000D01*
X122919000Y-122801000D02*
X108190000Y-122801000D01*
X103710000Y-122761000D02*
X88970000Y-122761000D01*
X122930000Y-122761000D02*
X108190000Y-122761000D01*
X103710000Y-122721000D02*
X88959000Y-122721000D01*
X122941000Y-122721000D02*
X108190000Y-122721000D01*
X103710000Y-122681000D02*
X88949000Y-122681000D01*
X122951000Y-122681000D02*
X108190000Y-122681000D01*
X103710000Y-122641000D02*
X88938000Y-122641000D01*
X122962000Y-122641000D02*
X108190000Y-122641000D01*
X103710000Y-122601000D02*
X88928000Y-122601000D01*
X122972000Y-122601000D02*
X108190000Y-122601000D01*
X103710000Y-122561000D02*
X88917000Y-122561000D01*
X122983000Y-122561000D02*
X108190000Y-122561000D01*
X103710000Y-122521000D02*
X88907000Y-122521000D01*
X122993000Y-122521000D02*
X108190000Y-122521000D01*
X103710000Y-122481000D02*
X88897000Y-122481000D01*
X123003000Y-122481000D02*
X108190000Y-122481000D01*
X103710000Y-122441000D02*
X88887000Y-122441000D01*
X123013000Y-122441000D02*
X108190000Y-122441000D01*
X103710000Y-122401000D02*
X88877000Y-122401000D01*
X123023000Y-122401000D02*
X108190000Y-122401000D01*
X103710000Y-122361000D02*
X88868000Y-122361000D01*
X123032000Y-122361000D02*
X108190000Y-122361000D01*
X103710000Y-122321000D02*
X88858000Y-122321000D01*
X123042000Y-122321000D02*
X108190000Y-122321000D01*
X103710000Y-122281000D02*
X88848000Y-122281000D01*
X123052000Y-122281000D02*
X108190000Y-122281000D01*
X103710000Y-122241000D02*
X88839000Y-122241000D01*
X123061000Y-122241000D02*
X108190000Y-122241000D01*
X103710000Y-122201000D02*
X88830000Y-122201000D01*
X123070000Y-122201000D02*
X108190000Y-122201000D01*
X103710000Y-122161000D02*
X88820000Y-122161000D01*
X123080000Y-122161000D02*
X108190000Y-122161000D01*
X103710000Y-122121000D02*
X88811000Y-122121000D01*
X123089000Y-122121000D02*
X108190000Y-122121000D01*
X103710000Y-122081000D02*
X88802000Y-122081000D01*
X123098000Y-122081000D02*
X108190000Y-122081000D01*
X103710000Y-122041000D02*
X88793000Y-122041000D01*
X123107000Y-122041000D02*
X108190000Y-122041000D01*
X103710000Y-122001000D02*
X88784000Y-122001000D01*
X123116000Y-122001000D02*
X108190000Y-122001000D01*
X103710000Y-121961000D02*
X88775000Y-121961000D01*
X123125000Y-121961000D02*
X108190000Y-121961000D01*
X103710000Y-121921000D02*
X88767000Y-121921000D01*
X123133000Y-121921000D02*
X108190000Y-121921000D01*
X103710000Y-121881000D02*
X88758000Y-121881000D01*
X123142000Y-121881000D02*
X108190000Y-121881000D01*
X103710000Y-121841000D02*
X88750000Y-121841000D01*
X123150000Y-121841000D02*
X108190000Y-121841000D01*
X103710000Y-121801000D02*
X88741000Y-121801000D01*
X123159000Y-121801000D02*
X108190000Y-121801000D01*
X103710000Y-121761000D02*
X88733000Y-121761000D01*
X123167000Y-121761000D02*
X108190000Y-121761000D01*
X103710000Y-121721000D02*
X88725000Y-121721000D01*
X123175000Y-121721000D02*
X108190000Y-121721000D01*
X103710000Y-121681000D02*
X88717000Y-121681000D01*
X123183000Y-121681000D02*
X108190000Y-121681000D01*
X103710000Y-121641000D02*
X88709000Y-121641000D01*
X123191000Y-121641000D02*
X108190000Y-121641000D01*
X103710000Y-121601000D02*
X88701000Y-121601000D01*
X123199000Y-121601000D02*
X108190000Y-121601000D01*
X103710000Y-121561000D02*
X88693000Y-121561000D01*
X123207000Y-121561000D02*
X108190000Y-121561000D01*
X103710000Y-121521000D02*
X88685000Y-121521000D01*
X123215000Y-121521000D02*
X108190000Y-121521000D01*
X103710000Y-121481000D02*
X88677000Y-121481000D01*
X123223000Y-121481000D02*
X108190000Y-121481000D01*
X103710000Y-121441000D02*
X88670000Y-121441000D01*
X123230000Y-121441000D02*
X108190000Y-121441000D01*
X103710000Y-121401000D02*
X88663000Y-121401000D01*
X123237000Y-121401000D02*
X108190000Y-121401000D01*
X103710000Y-121361000D02*
X88655000Y-121361000D01*
X123245000Y-121361000D02*
X108190000Y-121361000D01*
X103710000Y-121321000D02*
X88648000Y-121321000D01*
X123252000Y-121321000D02*
X108190000Y-121321000D01*
X103710000Y-121281000D02*
X88641000Y-121281000D01*
X123259000Y-121281000D02*
X108190000Y-121281000D01*
X103710000Y-121241000D02*
X88634000Y-121241000D01*
X123266000Y-121241000D02*
X108190000Y-121241000D01*
X103710000Y-121201000D02*
X88627000Y-121201000D01*
X123273000Y-121201000D02*
X108190000Y-121201000D01*
X103710000Y-121161000D02*
X88620000Y-121161000D01*
X123280000Y-121161000D02*
X108190000Y-121161000D01*
X103710000Y-121121000D02*
X88613000Y-121121000D01*
X123287000Y-121121000D02*
X108190000Y-121121000D01*
X103710000Y-121081000D02*
X88606000Y-121081000D01*
X123294000Y-121081000D02*
X108190000Y-121081000D01*
X103710000Y-121041000D02*
X88600000Y-121041000D01*
X123300000Y-121041000D02*
X108190000Y-121041000D01*
X103710000Y-121001000D02*
X88593000Y-121001000D01*
X123307000Y-121001000D02*
X108190000Y-121001000D01*
X103710000Y-120961000D02*
X88587000Y-120961000D01*
X123313000Y-120961000D02*
X108190000Y-120961000D01*
X123319000Y-120921000D02*
X88581000Y-120921000D01*
X123325000Y-120881000D02*
X88575000Y-120881000D01*
X123332000Y-120841000D02*
X88568000Y-120841000D01*
X123338000Y-120801000D02*
X88562000Y-120801000D01*
X123344000Y-120761000D02*
X88556000Y-120761000D01*
X123349000Y-120721000D02*
X88551000Y-120721000D01*
X123355000Y-120681000D02*
X88545000Y-120681000D01*
X123361000Y-120641000D02*
X88539000Y-120641000D01*
X123366000Y-120601000D02*
X88534000Y-120601000D01*
X123372000Y-120561000D02*
X88528000Y-120561000D01*
X123377000Y-120521000D02*
X88523000Y-120521000D01*
X123382000Y-120481000D02*
X88518000Y-120481000D01*
X123388000Y-120441000D02*
X88512000Y-120441000D01*
X123393000Y-120401000D02*
X88507000Y-120401000D01*
X123398000Y-120361000D02*
X88502000Y-120361000D01*
X123402000Y-120321000D02*
X88498000Y-120321000D01*
X123407000Y-120281000D02*
X88493000Y-120281000D01*
X123412000Y-120241000D02*
X88488000Y-120241000D01*
X123417000Y-120201000D02*
X88483000Y-120201000D01*
X123421000Y-120161000D02*
X88479000Y-120161000D01*
X123426000Y-120121000D02*
X88474000Y-120121000D01*
X123430000Y-120081000D02*
X88470000Y-120081000D01*
X123434000Y-120041000D02*
X88466000Y-120041000D01*
X123438000Y-120001000D02*
X88462000Y-120001000D01*
X123442000Y-119961000D02*
X88458000Y-119961000D01*
X123446000Y-119921000D02*
X88454000Y-119921000D01*
X123450000Y-119881000D02*
X88450000Y-119881000D01*
X123454000Y-119841000D02*
X88446000Y-119841000D01*
X123458000Y-119801000D02*
X88442000Y-119801000D01*
X123461000Y-119761000D02*
X88439000Y-119761000D01*
X123465000Y-119721000D02*
X88435000Y-119721000D01*
X123468000Y-119681000D02*
X88432000Y-119681000D01*
X123472000Y-119641000D02*
X88428000Y-119641000D01*
X123475000Y-119601000D02*
X88425000Y-119601000D01*
X123478000Y-119561000D02*
X88422000Y-119561000D01*
X123481000Y-119521000D02*
X88419000Y-119521000D01*
X123484000Y-119481000D02*
X88416000Y-119481000D01*
X123487000Y-119441000D02*
X88413000Y-119441000D01*
X123490000Y-119401000D02*
X88410000Y-119401000D01*
X123492000Y-119361000D02*
X88408000Y-119361000D01*
X123495000Y-119321000D02*
X88405000Y-119321000D01*
X123497000Y-119281000D02*
X88403000Y-119281000D01*
X123500000Y-119241000D02*
X88400000Y-119241000D01*
X123502000Y-119201000D02*
X88398000Y-119201000D01*
X123504000Y-119161000D02*
X88396000Y-119161000D01*
X123506000Y-119121000D02*
X88394000Y-119121000D01*
X123509000Y-119081000D02*
X88391000Y-119081000D01*
X123510000Y-119041000D02*
X88390000Y-119041000D01*
X123512000Y-119001000D02*
X88388000Y-119001000D01*
X123514000Y-118961000D02*
X88386000Y-118961000D01*
X123516000Y-118921000D02*
X88384000Y-118921000D01*
X123517000Y-118880000D02*
X88383000Y-118880000D01*
X123519000Y-118840000D02*
X88381000Y-118840000D01*
X123520000Y-118800000D02*
X88380000Y-118800000D01*
X123522000Y-118760000D02*
X88378000Y-118760000D01*
X123523000Y-118720000D02*
X88377000Y-118720000D01*
X123524000Y-118680000D02*
X88376000Y-118680000D01*
X123525000Y-118640000D02*
X88375000Y-118640000D01*
X123526000Y-118600000D02*
X88374000Y-118600000D01*
X123527000Y-118560000D02*
X88373000Y-118560000D01*
X123528000Y-118520000D02*
X88372000Y-118520000D01*
X123528000Y-118480000D02*
X88372000Y-118480000D01*
X123529000Y-118440000D02*
X88371000Y-118440000D01*
X123529000Y-118400000D02*
X88371000Y-118400000D01*
X123530000Y-118360000D02*
X88370000Y-118360000D01*
X123530000Y-118320000D02*
X88370000Y-118320000D01*
X123530000Y-118280000D02*
X88370000Y-118280000D01*
X123530000Y-118240000D02*
X88370000Y-118240000D01*
X123530000Y-118200000D02*
X88370000Y-118200000D01*
X123570000Y-118200000D02*
G75*
G03X123570000Y-118200000I-17620000J0D01*
G01*
G04 #@! TO.C,C2*
X163570000Y-118200000D02*
G75*
G03X163570000Y-118200000I-17620000J0D01*
G01*
X163530000Y-118200000D02*
X128370000Y-118200000D01*
X163530000Y-118240000D02*
X128370000Y-118240000D01*
X163530000Y-118280000D02*
X128370000Y-118280000D01*
X163530000Y-118320000D02*
X128370000Y-118320000D01*
X163530000Y-118360000D02*
X128370000Y-118360000D01*
X163529000Y-118400000D02*
X128371000Y-118400000D01*
X163529000Y-118440000D02*
X128371000Y-118440000D01*
X163528000Y-118480000D02*
X128372000Y-118480000D01*
X163528000Y-118520000D02*
X128372000Y-118520000D01*
X163527000Y-118560000D02*
X128373000Y-118560000D01*
X163526000Y-118600000D02*
X128374000Y-118600000D01*
X163525000Y-118640000D02*
X128375000Y-118640000D01*
X163524000Y-118680000D02*
X128376000Y-118680000D01*
X163523000Y-118720000D02*
X128377000Y-118720000D01*
X163522000Y-118760000D02*
X128378000Y-118760000D01*
X163520000Y-118800000D02*
X128380000Y-118800000D01*
X163519000Y-118840000D02*
X128381000Y-118840000D01*
X163517000Y-118880000D02*
X128383000Y-118880000D01*
X163516000Y-118921000D02*
X128384000Y-118921000D01*
X163514000Y-118961000D02*
X128386000Y-118961000D01*
X163512000Y-119001000D02*
X128388000Y-119001000D01*
X163510000Y-119041000D02*
X128390000Y-119041000D01*
X163509000Y-119081000D02*
X128391000Y-119081000D01*
X163506000Y-119121000D02*
X128394000Y-119121000D01*
X163504000Y-119161000D02*
X128396000Y-119161000D01*
X163502000Y-119201000D02*
X128398000Y-119201000D01*
X163500000Y-119241000D02*
X128400000Y-119241000D01*
X163497000Y-119281000D02*
X128403000Y-119281000D01*
X163495000Y-119321000D02*
X128405000Y-119321000D01*
X163492000Y-119361000D02*
X128408000Y-119361000D01*
X163490000Y-119401000D02*
X128410000Y-119401000D01*
X163487000Y-119441000D02*
X128413000Y-119441000D01*
X163484000Y-119481000D02*
X128416000Y-119481000D01*
X163481000Y-119521000D02*
X128419000Y-119521000D01*
X163478000Y-119561000D02*
X128422000Y-119561000D01*
X163475000Y-119601000D02*
X128425000Y-119601000D01*
X163472000Y-119641000D02*
X128428000Y-119641000D01*
X163468000Y-119681000D02*
X128432000Y-119681000D01*
X163465000Y-119721000D02*
X128435000Y-119721000D01*
X163461000Y-119761000D02*
X128439000Y-119761000D01*
X163458000Y-119801000D02*
X128442000Y-119801000D01*
X163454000Y-119841000D02*
X128446000Y-119841000D01*
X163450000Y-119881000D02*
X128450000Y-119881000D01*
X163446000Y-119921000D02*
X128454000Y-119921000D01*
X163442000Y-119961000D02*
X128458000Y-119961000D01*
X163438000Y-120001000D02*
X128462000Y-120001000D01*
X163434000Y-120041000D02*
X128466000Y-120041000D01*
X163430000Y-120081000D02*
X128470000Y-120081000D01*
X163426000Y-120121000D02*
X128474000Y-120121000D01*
X163421000Y-120161000D02*
X128479000Y-120161000D01*
X163417000Y-120201000D02*
X128483000Y-120201000D01*
X163412000Y-120241000D02*
X128488000Y-120241000D01*
X163407000Y-120281000D02*
X128493000Y-120281000D01*
X163402000Y-120321000D02*
X128498000Y-120321000D01*
X163398000Y-120361000D02*
X128502000Y-120361000D01*
X163393000Y-120401000D02*
X128507000Y-120401000D01*
X163388000Y-120441000D02*
X128512000Y-120441000D01*
X163382000Y-120481000D02*
X128518000Y-120481000D01*
X163377000Y-120521000D02*
X128523000Y-120521000D01*
X163372000Y-120561000D02*
X128528000Y-120561000D01*
X163366000Y-120601000D02*
X128534000Y-120601000D01*
X163361000Y-120641000D02*
X128539000Y-120641000D01*
X163355000Y-120681000D02*
X128545000Y-120681000D01*
X163349000Y-120721000D02*
X128551000Y-120721000D01*
X163344000Y-120761000D02*
X128556000Y-120761000D01*
X163338000Y-120801000D02*
X128562000Y-120801000D01*
X163332000Y-120841000D02*
X128568000Y-120841000D01*
X163325000Y-120881000D02*
X128575000Y-120881000D01*
X163319000Y-120921000D02*
X128581000Y-120921000D01*
X163313000Y-120961000D02*
X148190000Y-120961000D01*
X143710000Y-120961000D02*
X128587000Y-120961000D01*
X163307000Y-121001000D02*
X148190000Y-121001000D01*
X143710000Y-121001000D02*
X128593000Y-121001000D01*
X163300000Y-121041000D02*
X148190000Y-121041000D01*
X143710000Y-121041000D02*
X128600000Y-121041000D01*
X163294000Y-121081000D02*
X148190000Y-121081000D01*
X143710000Y-121081000D02*
X128606000Y-121081000D01*
X163287000Y-121121000D02*
X148190000Y-121121000D01*
X143710000Y-121121000D02*
X128613000Y-121121000D01*
X163280000Y-121161000D02*
X148190000Y-121161000D01*
X143710000Y-121161000D02*
X128620000Y-121161000D01*
X163273000Y-121201000D02*
X148190000Y-121201000D01*
X143710000Y-121201000D02*
X128627000Y-121201000D01*
X163266000Y-121241000D02*
X148190000Y-121241000D01*
X143710000Y-121241000D02*
X128634000Y-121241000D01*
X163259000Y-121281000D02*
X148190000Y-121281000D01*
X143710000Y-121281000D02*
X128641000Y-121281000D01*
X163252000Y-121321000D02*
X148190000Y-121321000D01*
X143710000Y-121321000D02*
X128648000Y-121321000D01*
X163245000Y-121361000D02*
X148190000Y-121361000D01*
X143710000Y-121361000D02*
X128655000Y-121361000D01*
X163237000Y-121401000D02*
X148190000Y-121401000D01*
X143710000Y-121401000D02*
X128663000Y-121401000D01*
X163230000Y-121441000D02*
X148190000Y-121441000D01*
X143710000Y-121441000D02*
X128670000Y-121441000D01*
X163223000Y-121481000D02*
X148190000Y-121481000D01*
X143710000Y-121481000D02*
X128677000Y-121481000D01*
X163215000Y-121521000D02*
X148190000Y-121521000D01*
X143710000Y-121521000D02*
X128685000Y-121521000D01*
X163207000Y-121561000D02*
X148190000Y-121561000D01*
X143710000Y-121561000D02*
X128693000Y-121561000D01*
X163199000Y-121601000D02*
X148190000Y-121601000D01*
X143710000Y-121601000D02*
X128701000Y-121601000D01*
X163191000Y-121641000D02*
X148190000Y-121641000D01*
X143710000Y-121641000D02*
X128709000Y-121641000D01*
X163183000Y-121681000D02*
X148190000Y-121681000D01*
X143710000Y-121681000D02*
X128717000Y-121681000D01*
X163175000Y-121721000D02*
X148190000Y-121721000D01*
X143710000Y-121721000D02*
X128725000Y-121721000D01*
X163167000Y-121761000D02*
X148190000Y-121761000D01*
X143710000Y-121761000D02*
X128733000Y-121761000D01*
X163159000Y-121801000D02*
X148190000Y-121801000D01*
X143710000Y-121801000D02*
X128741000Y-121801000D01*
X163150000Y-121841000D02*
X148190000Y-121841000D01*
X143710000Y-121841000D02*
X128750000Y-121841000D01*
X163142000Y-121881000D02*
X148190000Y-121881000D01*
X143710000Y-121881000D02*
X128758000Y-121881000D01*
X163133000Y-121921000D02*
X148190000Y-121921000D01*
X143710000Y-121921000D02*
X128767000Y-121921000D01*
X163125000Y-121961000D02*
X148190000Y-121961000D01*
X143710000Y-121961000D02*
X128775000Y-121961000D01*
X163116000Y-122001000D02*
X148190000Y-122001000D01*
X143710000Y-122001000D02*
X128784000Y-122001000D01*
X163107000Y-122041000D02*
X148190000Y-122041000D01*
X143710000Y-122041000D02*
X128793000Y-122041000D01*
X163098000Y-122081000D02*
X148190000Y-122081000D01*
X143710000Y-122081000D02*
X128802000Y-122081000D01*
X163089000Y-122121000D02*
X148190000Y-122121000D01*
X143710000Y-122121000D02*
X128811000Y-122121000D01*
X163080000Y-122161000D02*
X148190000Y-122161000D01*
X143710000Y-122161000D02*
X128820000Y-122161000D01*
X163070000Y-122201000D02*
X148190000Y-122201000D01*
X143710000Y-122201000D02*
X128830000Y-122201000D01*
X163061000Y-122241000D02*
X148190000Y-122241000D01*
X143710000Y-122241000D02*
X128839000Y-122241000D01*
X163052000Y-122281000D02*
X148190000Y-122281000D01*
X143710000Y-122281000D02*
X128848000Y-122281000D01*
X163042000Y-122321000D02*
X148190000Y-122321000D01*
X143710000Y-122321000D02*
X128858000Y-122321000D01*
X163032000Y-122361000D02*
X148190000Y-122361000D01*
X143710000Y-122361000D02*
X128868000Y-122361000D01*
X163023000Y-122401000D02*
X148190000Y-122401000D01*
X143710000Y-122401000D02*
X128877000Y-122401000D01*
X163013000Y-122441000D02*
X148190000Y-122441000D01*
X143710000Y-122441000D02*
X128887000Y-122441000D01*
X163003000Y-122481000D02*
X148190000Y-122481000D01*
X143710000Y-122481000D02*
X128897000Y-122481000D01*
X162993000Y-122521000D02*
X148190000Y-122521000D01*
X143710000Y-122521000D02*
X128907000Y-122521000D01*
X162983000Y-122561000D02*
X148190000Y-122561000D01*
X143710000Y-122561000D02*
X128917000Y-122561000D01*
X162972000Y-122601000D02*
X148190000Y-122601000D01*
X143710000Y-122601000D02*
X128928000Y-122601000D01*
X162962000Y-122641000D02*
X148190000Y-122641000D01*
X143710000Y-122641000D02*
X128938000Y-122641000D01*
X162951000Y-122681000D02*
X148190000Y-122681000D01*
X143710000Y-122681000D02*
X128949000Y-122681000D01*
X162941000Y-122721000D02*
X148190000Y-122721000D01*
X143710000Y-122721000D02*
X128959000Y-122721000D01*
X162930000Y-122761000D02*
X148190000Y-122761000D01*
X143710000Y-122761000D02*
X128970000Y-122761000D01*
X162919000Y-122801000D02*
X148190000Y-122801000D01*
X143710000Y-122801000D02*
X128981000Y-122801000D01*
X162909000Y-122841000D02*
X148190000Y-122841000D01*
X143710000Y-122841000D02*
X128991000Y-122841000D01*
X162898000Y-122881000D02*
X148190000Y-122881000D01*
X143710000Y-122881000D02*
X129002000Y-122881000D01*
X162887000Y-122921000D02*
X148190000Y-122921000D01*
X143710000Y-122921000D02*
X129013000Y-122921000D01*
X162875000Y-122961000D02*
X148190000Y-122961000D01*
X143710000Y-122961000D02*
X129025000Y-122961000D01*
X162864000Y-123001000D02*
X148190000Y-123001000D01*
X143710000Y-123001000D02*
X129036000Y-123001000D01*
X162853000Y-123041000D02*
X148190000Y-123041000D01*
X143710000Y-123041000D02*
X129047000Y-123041000D01*
X162841000Y-123081000D02*
X148190000Y-123081000D01*
X143710000Y-123081000D02*
X129059000Y-123081000D01*
X162830000Y-123121000D02*
X148190000Y-123121000D01*
X143710000Y-123121000D02*
X129070000Y-123121000D01*
X162818000Y-123161000D02*
X148190000Y-123161000D01*
X143710000Y-123161000D02*
X129082000Y-123161000D01*
X162806000Y-123201000D02*
X148190000Y-123201000D01*
X143710000Y-123201000D02*
X129094000Y-123201000D01*
X162794000Y-123241000D02*
X148190000Y-123241000D01*
X143710000Y-123241000D02*
X129106000Y-123241000D01*
X162782000Y-123281000D02*
X148190000Y-123281000D01*
X143710000Y-123281000D02*
X129118000Y-123281000D01*
X162770000Y-123321000D02*
X148190000Y-123321000D01*
X143710000Y-123321000D02*
X129130000Y-123321000D01*
X162758000Y-123361000D02*
X148190000Y-123361000D01*
X143710000Y-123361000D02*
X129142000Y-123361000D01*
X162746000Y-123401000D02*
X148190000Y-123401000D01*
X143710000Y-123401000D02*
X129154000Y-123401000D01*
X162733000Y-123441000D02*
X148190000Y-123441000D01*
X143710000Y-123441000D02*
X129167000Y-123441000D01*
X162721000Y-123481000D02*
X148190000Y-123481000D01*
X143710000Y-123481000D02*
X129179000Y-123481000D01*
X162708000Y-123521000D02*
X148190000Y-123521000D01*
X143710000Y-123521000D02*
X129192000Y-123521000D01*
X162695000Y-123561000D02*
X148190000Y-123561000D01*
X143710000Y-123561000D02*
X129205000Y-123561000D01*
X162683000Y-123601000D02*
X148190000Y-123601000D01*
X143710000Y-123601000D02*
X129217000Y-123601000D01*
X162670000Y-123641000D02*
X148190000Y-123641000D01*
X143710000Y-123641000D02*
X129230000Y-123641000D01*
X162657000Y-123681000D02*
X148190000Y-123681000D01*
X143710000Y-123681000D02*
X129243000Y-123681000D01*
X162644000Y-123721000D02*
X148190000Y-123721000D01*
X143710000Y-123721000D02*
X129256000Y-123721000D01*
X162630000Y-123761000D02*
X148190000Y-123761000D01*
X143710000Y-123761000D02*
X129270000Y-123761000D01*
X162617000Y-123801000D02*
X148190000Y-123801000D01*
X143710000Y-123801000D02*
X129283000Y-123801000D01*
X162603000Y-123841000D02*
X148190000Y-123841000D01*
X143710000Y-123841000D02*
X129297000Y-123841000D01*
X162590000Y-123881000D02*
X148190000Y-123881000D01*
X143710000Y-123881000D02*
X129310000Y-123881000D01*
X162576000Y-123921000D02*
X148190000Y-123921000D01*
X143710000Y-123921000D02*
X129324000Y-123921000D01*
X162562000Y-123961000D02*
X148190000Y-123961000D01*
X143710000Y-123961000D02*
X129338000Y-123961000D01*
X162549000Y-124001000D02*
X148190000Y-124001000D01*
X143710000Y-124001000D02*
X129351000Y-124001000D01*
X162535000Y-124041000D02*
X148190000Y-124041000D01*
X143710000Y-124041000D02*
X129365000Y-124041000D01*
X162520000Y-124081000D02*
X148190000Y-124081000D01*
X143710000Y-124081000D02*
X129380000Y-124081000D01*
X162506000Y-124121000D02*
X148190000Y-124121000D01*
X143710000Y-124121000D02*
X129394000Y-124121000D01*
X162492000Y-124161000D02*
X148190000Y-124161000D01*
X143710000Y-124161000D02*
X129408000Y-124161000D01*
X162477000Y-124201000D02*
X148190000Y-124201000D01*
X143710000Y-124201000D02*
X129423000Y-124201000D01*
X162463000Y-124241000D02*
X148190000Y-124241000D01*
X143710000Y-124241000D02*
X129437000Y-124241000D01*
X162448000Y-124281000D02*
X148190000Y-124281000D01*
X143710000Y-124281000D02*
X129452000Y-124281000D01*
X162434000Y-124321000D02*
X148190000Y-124321000D01*
X143710000Y-124321000D02*
X129466000Y-124321000D01*
X162419000Y-124361000D02*
X148190000Y-124361000D01*
X143710000Y-124361000D02*
X129481000Y-124361000D01*
X162404000Y-124401000D02*
X148190000Y-124401000D01*
X143710000Y-124401000D02*
X129496000Y-124401000D01*
X162389000Y-124441000D02*
X148190000Y-124441000D01*
X143710000Y-124441000D02*
X129511000Y-124441000D01*
X162373000Y-124481000D02*
X148190000Y-124481000D01*
X143710000Y-124481000D02*
X129527000Y-124481000D01*
X162358000Y-124521000D02*
X148190000Y-124521000D01*
X143710000Y-124521000D02*
X129542000Y-124521000D01*
X162343000Y-124561000D02*
X148190000Y-124561000D01*
X143710000Y-124561000D02*
X129557000Y-124561000D01*
X162327000Y-124601000D02*
X148190000Y-124601000D01*
X143710000Y-124601000D02*
X129573000Y-124601000D01*
X162311000Y-124641000D02*
X148190000Y-124641000D01*
X143710000Y-124641000D02*
X129589000Y-124641000D01*
X162296000Y-124681000D02*
X148190000Y-124681000D01*
X143710000Y-124681000D02*
X129604000Y-124681000D01*
X162280000Y-124721000D02*
X148190000Y-124721000D01*
X143710000Y-124721000D02*
X129620000Y-124721000D01*
X162264000Y-124761000D02*
X148190000Y-124761000D01*
X143710000Y-124761000D02*
X129636000Y-124761000D01*
X162248000Y-124801000D02*
X148190000Y-124801000D01*
X143710000Y-124801000D02*
X129652000Y-124801000D01*
X162231000Y-124841000D02*
X148190000Y-124841000D01*
X143710000Y-124841000D02*
X129669000Y-124841000D01*
X162215000Y-124881000D02*
X148190000Y-124881000D01*
X143710000Y-124881000D02*
X129685000Y-124881000D01*
X162199000Y-124921000D02*
X148190000Y-124921000D01*
X143710000Y-124921000D02*
X129701000Y-124921000D01*
X162182000Y-124961000D02*
X148190000Y-124961000D01*
X143710000Y-124961000D02*
X129718000Y-124961000D01*
X162165000Y-125001000D02*
X148190000Y-125001000D01*
X143710000Y-125001000D02*
X129735000Y-125001000D01*
X162149000Y-125041000D02*
X148190000Y-125041000D01*
X143710000Y-125041000D02*
X129751000Y-125041000D01*
X162132000Y-125081000D02*
X148190000Y-125081000D01*
X143710000Y-125081000D02*
X129768000Y-125081000D01*
X162115000Y-125121000D02*
X148190000Y-125121000D01*
X143710000Y-125121000D02*
X129785000Y-125121000D01*
X162098000Y-125161000D02*
X148190000Y-125161000D01*
X143710000Y-125161000D02*
X129802000Y-125161000D01*
X162080000Y-125201000D02*
X148190000Y-125201000D01*
X143710000Y-125201000D02*
X129820000Y-125201000D01*
X162063000Y-125241000D02*
X148190000Y-125241000D01*
X143710000Y-125241000D02*
X129837000Y-125241000D01*
X162045000Y-125281000D02*
X148190000Y-125281000D01*
X143710000Y-125281000D02*
X129855000Y-125281000D01*
X162028000Y-125321000D02*
X148190000Y-125321000D01*
X143710000Y-125321000D02*
X129872000Y-125321000D01*
X162010000Y-125361000D02*
X148190000Y-125361000D01*
X143710000Y-125361000D02*
X129890000Y-125361000D01*
X161992000Y-125401000D02*
X148190000Y-125401000D01*
X143710000Y-125401000D02*
X129908000Y-125401000D01*
X161974000Y-125441000D02*
X129926000Y-125441000D01*
X161956000Y-125481000D02*
X129944000Y-125481000D01*
X161938000Y-125521000D02*
X129962000Y-125521000D01*
X161920000Y-125561000D02*
X129980000Y-125561000D01*
X161901000Y-125601000D02*
X129999000Y-125601000D01*
X161883000Y-125641000D02*
X130017000Y-125641000D01*
X161864000Y-125681000D02*
X130036000Y-125681000D01*
X161845000Y-125721000D02*
X130055000Y-125721000D01*
X161826000Y-125761000D02*
X130074000Y-125761000D01*
X161807000Y-125801000D02*
X130093000Y-125801000D01*
X161788000Y-125841000D02*
X130112000Y-125841000D01*
X161769000Y-125881000D02*
X130131000Y-125881000D01*
X161749000Y-125921000D02*
X130151000Y-125921000D01*
X161730000Y-125961000D02*
X130170000Y-125961000D01*
X161710000Y-126001000D02*
X130190000Y-126001000D01*
X161690000Y-126041000D02*
X130210000Y-126041000D01*
X161670000Y-126081000D02*
X130230000Y-126081000D01*
X161650000Y-126121000D02*
X130250000Y-126121000D01*
X161630000Y-126161000D02*
X130270000Y-126161000D01*
X161610000Y-126201000D02*
X130290000Y-126201000D01*
X161589000Y-126241000D02*
X130311000Y-126241000D01*
X161569000Y-126281000D02*
X130331000Y-126281000D01*
X161548000Y-126321000D02*
X130352000Y-126321000D01*
X161527000Y-126361000D02*
X130373000Y-126361000D01*
X161506000Y-126400000D02*
X130394000Y-126400000D01*
X161485000Y-126440000D02*
X130415000Y-126440000D01*
X161464000Y-126480000D02*
X130436000Y-126480000D01*
X161442000Y-126520000D02*
X130458000Y-126520000D01*
X161421000Y-126560000D02*
X130479000Y-126560000D01*
X161399000Y-126600000D02*
X130501000Y-126600000D01*
X161378000Y-126640000D02*
X130522000Y-126640000D01*
X161356000Y-126680000D02*
X130544000Y-126680000D01*
X161334000Y-126720000D02*
X130566000Y-126720000D01*
X161311000Y-126760000D02*
X130589000Y-126760000D01*
X161289000Y-126800000D02*
X130611000Y-126800000D01*
X161267000Y-126840000D02*
X130633000Y-126840000D01*
X161244000Y-126880000D02*
X130656000Y-126880000D01*
X161221000Y-126920000D02*
X130679000Y-126920000D01*
X161199000Y-126960000D02*
X130701000Y-126960000D01*
X161176000Y-127000000D02*
X130724000Y-127000000D01*
X161153000Y-127040000D02*
X130747000Y-127040000D01*
X161129000Y-127080000D02*
X130771000Y-127080000D01*
X161106000Y-127120000D02*
X130794000Y-127120000D01*
X161082000Y-127160000D02*
X130818000Y-127160000D01*
X161059000Y-127200000D02*
X130841000Y-127200000D01*
X161035000Y-127240000D02*
X130865000Y-127240000D01*
X161011000Y-127280000D02*
X130889000Y-127280000D01*
X160987000Y-127320000D02*
X130913000Y-127320000D01*
X160962000Y-127360000D02*
X130938000Y-127360000D01*
X160938000Y-127400000D02*
X130962000Y-127400000D01*
X160913000Y-127440000D02*
X130987000Y-127440000D01*
X160889000Y-127480000D02*
X131011000Y-127480000D01*
X160864000Y-127520000D02*
X131036000Y-127520000D01*
X160839000Y-127560000D02*
X131061000Y-127560000D01*
X160814000Y-127600000D02*
X131086000Y-127600000D01*
X160788000Y-127640000D02*
X131112000Y-127640000D01*
X160763000Y-127680000D02*
X131137000Y-127680000D01*
X160737000Y-127720000D02*
X131163000Y-127720000D01*
X160712000Y-127760000D02*
X131188000Y-127760000D01*
X160686000Y-127800000D02*
X131214000Y-127800000D01*
X160660000Y-127840000D02*
X131240000Y-127840000D01*
X160633000Y-127880000D02*
X131267000Y-127880000D01*
X160607000Y-127920000D02*
X131293000Y-127920000D01*
X160580000Y-127960000D02*
X131320000Y-127960000D01*
X160554000Y-128000000D02*
X131346000Y-128000000D01*
X160527000Y-128040000D02*
X131373000Y-128040000D01*
X160500000Y-128080000D02*
X131400000Y-128080000D01*
X160473000Y-128120000D02*
X131427000Y-128120000D01*
X160445000Y-128160000D02*
X131455000Y-128160000D01*
X160418000Y-128200000D02*
X131482000Y-128200000D01*
X160390000Y-128240000D02*
X131510000Y-128240000D01*
X160362000Y-128280000D02*
X131538000Y-128280000D01*
X160334000Y-128320000D02*
X131566000Y-128320000D01*
X160306000Y-128360000D02*
X131594000Y-128360000D01*
X160278000Y-128400000D02*
X131622000Y-128400000D01*
X160249000Y-128440000D02*
X131651000Y-128440000D01*
X160221000Y-128480000D02*
X131679000Y-128480000D01*
X160192000Y-128520000D02*
X131708000Y-128520000D01*
X160163000Y-128560000D02*
X131737000Y-128560000D01*
X160134000Y-128600000D02*
X131766000Y-128600000D01*
X160105000Y-128640000D02*
X131795000Y-128640000D01*
X160075000Y-128680000D02*
X131825000Y-128680000D01*
X160045000Y-128720000D02*
X131855000Y-128720000D01*
X160015000Y-128760000D02*
X131885000Y-128760000D01*
X159985000Y-128800000D02*
X131915000Y-128800000D01*
X159955000Y-128840000D02*
X131945000Y-128840000D01*
X159925000Y-128880000D02*
X131975000Y-128880000D01*
X159894000Y-128920000D02*
X132006000Y-128920000D01*
X159864000Y-128960000D02*
X132036000Y-128960000D01*
X159833000Y-129000000D02*
X132067000Y-129000000D01*
X159801000Y-129040000D02*
X132099000Y-129040000D01*
X159770000Y-129080000D02*
X132130000Y-129080000D01*
X159739000Y-129120000D02*
X132161000Y-129120000D01*
X159707000Y-129160000D02*
X132193000Y-129160000D01*
X159675000Y-129200000D02*
X132225000Y-129200000D01*
X159643000Y-129240000D02*
X132257000Y-129240000D01*
X159611000Y-129280000D02*
X132289000Y-129280000D01*
X159578000Y-129320000D02*
X132322000Y-129320000D01*
X159546000Y-129360000D02*
X132354000Y-129360000D01*
X159513000Y-129400000D02*
X132387000Y-129400000D01*
X159480000Y-129440000D02*
X132420000Y-129440000D01*
X159447000Y-129480000D02*
X132453000Y-129480000D01*
X159413000Y-129520000D02*
X132487000Y-129520000D01*
X159380000Y-129560000D02*
X132520000Y-129560000D01*
X159346000Y-129600000D02*
X132554000Y-129600000D01*
X159312000Y-129640000D02*
X132588000Y-129640000D01*
X159277000Y-129680000D02*
X132623000Y-129680000D01*
X159243000Y-129720000D02*
X132657000Y-129720000D01*
X159208000Y-129760000D02*
X132692000Y-129760000D01*
X159173000Y-129800000D02*
X132727000Y-129800000D01*
X159138000Y-129840000D02*
X132762000Y-129840000D01*
X159103000Y-129880000D02*
X132797000Y-129880000D01*
X159067000Y-129920000D02*
X132833000Y-129920000D01*
X159032000Y-129960000D02*
X132868000Y-129960000D01*
X158996000Y-130000000D02*
X132904000Y-130000000D01*
X158960000Y-130040000D02*
X132940000Y-130040000D01*
X158923000Y-130080000D02*
X132977000Y-130080000D01*
X158887000Y-130120000D02*
X133013000Y-130120000D01*
X158850000Y-130160000D02*
X133050000Y-130160000D01*
X158813000Y-130200000D02*
X133087000Y-130200000D01*
X158775000Y-130240000D02*
X133125000Y-130240000D01*
X158738000Y-130280000D02*
X133162000Y-130280000D01*
X158700000Y-130320000D02*
X133200000Y-130320000D01*
X158662000Y-130360000D02*
X133238000Y-130360000D01*
X158624000Y-130400000D02*
X133276000Y-130400000D01*
X158585000Y-130440000D02*
X133315000Y-130440000D01*
X158546000Y-130480000D02*
X133354000Y-130480000D01*
X158507000Y-130520000D02*
X133393000Y-130520000D01*
X158468000Y-130560000D02*
X133432000Y-130560000D01*
X158429000Y-130600000D02*
X133471000Y-130600000D01*
X158389000Y-130640000D02*
X133511000Y-130640000D01*
X158349000Y-130680000D02*
X133551000Y-130680000D01*
X158309000Y-130720000D02*
X133591000Y-130720000D01*
X158268000Y-130760000D02*
X133632000Y-130760000D01*
X158227000Y-130800000D02*
X133673000Y-130800000D01*
X158186000Y-130840000D02*
X133714000Y-130840000D01*
X158145000Y-130880000D02*
X133755000Y-130880000D01*
X158103000Y-130920000D02*
X133797000Y-130920000D01*
X158061000Y-130960000D02*
X133839000Y-130960000D01*
X158019000Y-131000000D02*
X133881000Y-131000000D01*
X157977000Y-131040000D02*
X133923000Y-131040000D01*
X157934000Y-131080000D02*
X133966000Y-131080000D01*
X157891000Y-131120000D02*
X134009000Y-131120000D01*
X157848000Y-131160000D02*
X134052000Y-131160000D01*
X157804000Y-131200000D02*
X134096000Y-131200000D01*
X157761000Y-131240000D02*
X134139000Y-131240000D01*
X157716000Y-131280000D02*
X134184000Y-131280000D01*
X157672000Y-131320000D02*
X134228000Y-131320000D01*
X157627000Y-131360000D02*
X134273000Y-131360000D01*
X157582000Y-131400000D02*
X134318000Y-131400000D01*
X157537000Y-131440000D02*
X134363000Y-131440000D01*
X157491000Y-131480000D02*
X134409000Y-131480000D01*
X157445000Y-131520000D02*
X134455000Y-131520000D01*
X157399000Y-131560000D02*
X134501000Y-131560000D01*
X157352000Y-131600000D02*
X134548000Y-131600000D01*
X157305000Y-131640000D02*
X134595000Y-131640000D01*
X157257000Y-131680000D02*
X134643000Y-131680000D01*
X157210000Y-131720000D02*
X134690000Y-131720000D01*
X157162000Y-131760000D02*
X134738000Y-131760000D01*
X157113000Y-131800000D02*
X134787000Y-131800000D01*
X157065000Y-131840000D02*
X134835000Y-131840000D01*
X157016000Y-131880000D02*
X134884000Y-131880000D01*
X156966000Y-131920000D02*
X134934000Y-131920000D01*
X156916000Y-131960000D02*
X134984000Y-131960000D01*
X156866000Y-132000000D02*
X135034000Y-132000000D01*
X156815000Y-132040000D02*
X135085000Y-132040000D01*
X156765000Y-132080000D02*
X135135000Y-132080000D01*
X156713000Y-132120000D02*
X135187000Y-132120000D01*
X156661000Y-132160000D02*
X135239000Y-132160000D01*
X156609000Y-132200000D02*
X135291000Y-132200000D01*
X156557000Y-132240000D02*
X135343000Y-132240000D01*
X156504000Y-132280000D02*
X135396000Y-132280000D01*
X156450000Y-132320000D02*
X135450000Y-132320000D01*
X156397000Y-132360000D02*
X135503000Y-132360000D01*
X156342000Y-132400000D02*
X135558000Y-132400000D01*
X156288000Y-132440000D02*
X135612000Y-132440000D01*
X156233000Y-132480000D02*
X135667000Y-132480000D01*
X156177000Y-132520000D02*
X135723000Y-132520000D01*
X156121000Y-132560000D02*
X135779000Y-132560000D01*
X156065000Y-132600000D02*
X135835000Y-132600000D01*
X156008000Y-132640000D02*
X135892000Y-132640000D01*
X155950000Y-132680000D02*
X135950000Y-132680000D01*
X155892000Y-132720000D02*
X136008000Y-132720000D01*
X155834000Y-132760000D02*
X136066000Y-132760000D01*
X155775000Y-132800000D02*
X136125000Y-132800000D01*
X155715000Y-132840000D02*
X136185000Y-132840000D01*
X155655000Y-132880000D02*
X136245000Y-132880000D01*
X155595000Y-132920000D02*
X136305000Y-132920000D01*
X155534000Y-132960000D02*
X136366000Y-132960000D01*
X155472000Y-133000000D02*
X136428000Y-133000000D01*
X155410000Y-133040000D02*
X136490000Y-133040000D01*
X155347000Y-133080000D02*
X136553000Y-133080000D01*
X155284000Y-133120000D02*
X136616000Y-133120000D01*
X155220000Y-133160000D02*
X136680000Y-133160000D01*
X155155000Y-133200000D02*
X136745000Y-133200000D01*
X155090000Y-133240000D02*
X136810000Y-133240000D01*
X155024000Y-133280000D02*
X136876000Y-133280000D01*
X154958000Y-133320000D02*
X136942000Y-133320000D01*
X154890000Y-133360000D02*
X137010000Y-133360000D01*
X154823000Y-133400000D02*
X137077000Y-133400000D01*
X154754000Y-133440000D02*
X137146000Y-133440000D01*
X154685000Y-133480000D02*
X137215000Y-133480000D01*
X154615000Y-133520000D02*
X137285000Y-133520000D01*
X154544000Y-133560000D02*
X137356000Y-133560000D01*
X154472000Y-133600000D02*
X137428000Y-133600000D01*
X154400000Y-133640000D02*
X137500000Y-133640000D01*
X154327000Y-133680000D02*
X137573000Y-133680000D01*
X154253000Y-133720000D02*
X137647000Y-133720000D01*
X154178000Y-133760000D02*
X137722000Y-133760000D01*
X154102000Y-133800000D02*
X137798000Y-133800000D01*
X154026000Y-133840000D02*
X137874000Y-133840000D01*
X153948000Y-133880000D02*
X137952000Y-133880000D01*
X153870000Y-133920000D02*
X138030000Y-133920000D01*
X153790000Y-133960000D02*
X138110000Y-133960000D01*
X153709000Y-134000000D02*
X138191000Y-134000000D01*
X153628000Y-134040000D02*
X138272000Y-134040000D01*
X153545000Y-134080000D02*
X138355000Y-134080000D01*
X153462000Y-134120000D02*
X138438000Y-134120000D01*
X153377000Y-134160000D02*
X138523000Y-134160000D01*
X153291000Y-134200000D02*
X138609000Y-134200000D01*
X153203000Y-134240000D02*
X138697000Y-134240000D01*
X153115000Y-134280000D02*
X138785000Y-134280000D01*
X153025000Y-134320000D02*
X138875000Y-134320000D01*
X152933000Y-134360000D02*
X138967000Y-134360000D01*
X152840000Y-134400000D02*
X139060000Y-134400000D01*
X152746000Y-134440000D02*
X139154000Y-134440000D01*
X152650000Y-134480000D02*
X139250000Y-134480000D01*
X152553000Y-134520000D02*
X139347000Y-134520000D01*
X152454000Y-134560000D02*
X139446000Y-134560000D01*
X152353000Y-134600000D02*
X139547000Y-134600000D01*
X152250000Y-134640000D02*
X139650000Y-134640000D01*
X152145000Y-134680000D02*
X139755000Y-134680000D01*
X152039000Y-134720000D02*
X139861000Y-134720000D01*
X151930000Y-134760000D02*
X139970000Y-134760000D01*
X151818000Y-134800000D02*
X140082000Y-134800000D01*
X151705000Y-134840000D02*
X140195000Y-134840000D01*
X151589000Y-134880000D02*
X140311000Y-134880000D01*
X151470000Y-134920000D02*
X140430000Y-134920000D01*
X151348000Y-134960000D02*
X140552000Y-134960000D01*
X151223000Y-135000000D02*
X140677000Y-135000000D01*
X151095000Y-135040000D02*
X140805000Y-135040000D01*
X150963000Y-135080000D02*
X140937000Y-135080000D01*
X150828000Y-135120000D02*
X141072000Y-135120000D01*
X150688000Y-135160000D02*
X141212000Y-135160000D01*
X150543000Y-135200000D02*
X141357000Y-135200000D01*
X150394000Y-135240000D02*
X141506000Y-135240000D01*
X150239000Y-135280000D02*
X141661000Y-135280000D01*
X150078000Y-135320000D02*
X141822000Y-135320000D01*
X149910000Y-135360000D02*
X141990000Y-135360000D01*
X149735000Y-135400000D02*
X142165000Y-135400000D01*
X149550000Y-135440000D02*
X142350000Y-135440000D01*
X149355000Y-135480000D02*
X142545000Y-135480000D01*
X149148000Y-135520000D02*
X142752000Y-135520000D01*
X148926000Y-135560000D02*
X142974000Y-135560000D01*
X148686000Y-135600000D02*
X143214000Y-135600000D01*
X148423000Y-135640000D02*
X143477000Y-135640000D01*
X148127000Y-135680000D02*
X143773000Y-135680000D01*
X147785000Y-135720000D02*
X144115000Y-135720000D01*
X147363000Y-135760000D02*
X144537000Y-135760000D01*
X146750000Y-135800000D02*
X145150000Y-135800000D01*
X155825000Y-99345998D02*
X155825000Y-102845998D01*
X157575000Y-101095998D02*
X154075000Y-101095998D01*
G04 #@! TO.C,D1*
X48750000Y-132585000D02*
X52635000Y-132585000D01*
X52635000Y-132585000D02*
X52635000Y-130315000D01*
X52635000Y-130315000D02*
X48750000Y-130315000D01*
G04 #@! TO.C,R3*
X56360000Y-125835436D02*
X56360000Y-127039564D01*
X54540000Y-125835436D02*
X54540000Y-127039564D01*
G04 #@! TO.C,R2*
X53110000Y-127039564D02*
X53110000Y-125835436D01*
X51290000Y-127039564D02*
X51290000Y-125835436D01*
G04 #@! TO.C,R1*
X49860000Y-125835436D02*
X49860000Y-127039564D01*
X48040000Y-125835436D02*
X48040000Y-127039564D01*
D11*
G04 #@! TO.C,J5*
X69640000Y-136375000D02*
X69640000Y-135740000D01*
X74720000Y-136375000D02*
X69640000Y-136375000D01*
X74720000Y-130025000D02*
X74720000Y-130660000D01*
X69640000Y-130025000D02*
X74720000Y-130025000D01*
X69640000Y-130660000D02*
X69640000Y-130025000D01*
X69640000Y-130660000D02*
X69640000Y-131295000D01*
X69640000Y-135740000D02*
X69640000Y-135105000D01*
X74720000Y-130660000D02*
X74720000Y-131295000D01*
X74720000Y-136375000D02*
X74720000Y-135105000D01*
X69640000Y-130660000D02*
X74720000Y-130660000D01*
G04 #@! TO.C,J12*
X79160000Y-112660000D02*
X84240000Y-112660000D01*
X84240000Y-118375000D02*
X84240000Y-117105000D01*
X84240000Y-112660000D02*
X84240000Y-113295000D01*
X79160000Y-117740000D02*
X79160000Y-117105000D01*
X79160000Y-112660000D02*
X79160000Y-113295000D01*
X79160000Y-112660000D02*
X79160000Y-112025000D01*
X79160000Y-112025000D02*
X84240000Y-112025000D01*
X84240000Y-112025000D02*
X84240000Y-112660000D01*
X84240000Y-118375000D02*
X79160000Y-118375000D01*
X79160000Y-118375000D02*
X79160000Y-117740000D01*
G04 #@! TO.C,J11*
X77930000Y-136375000D02*
X77930000Y-135740000D01*
X83010000Y-136375000D02*
X77930000Y-136375000D01*
X83010000Y-130025000D02*
X83010000Y-130660000D01*
X77930000Y-130025000D02*
X83010000Y-130025000D01*
X77930000Y-130660000D02*
X77930000Y-130025000D01*
X77930000Y-130660000D02*
X77930000Y-131295000D01*
X77930000Y-135740000D02*
X77930000Y-135105000D01*
X83010000Y-130660000D02*
X83010000Y-131295000D01*
X83010000Y-136375000D02*
X83010000Y-135105000D01*
X77930000Y-130660000D02*
X83010000Y-130660000D01*
G04 #@! TO.C,J10*
X47090000Y-103310000D02*
X52170000Y-103310000D01*
X52170000Y-109025000D02*
X52170000Y-107755000D01*
X52170000Y-103310000D02*
X52170000Y-103945000D01*
X47090000Y-108390000D02*
X47090000Y-107755000D01*
X47090000Y-103310000D02*
X47090000Y-103945000D01*
X47090000Y-103310000D02*
X47090000Y-102675000D01*
X47090000Y-102675000D02*
X52170000Y-102675000D01*
X52170000Y-102675000D02*
X52170000Y-103310000D01*
X52170000Y-109025000D02*
X47090000Y-109025000D01*
X47090000Y-109025000D02*
X47090000Y-108390000D01*
G04 #@! TO.C,J9*
X68910000Y-118375000D02*
X68910000Y-117740000D01*
X73990000Y-118375000D02*
X68910000Y-118375000D01*
X73990000Y-112025000D02*
X73990000Y-112660000D01*
X68910000Y-112025000D02*
X73990000Y-112025000D01*
X68910000Y-112660000D02*
X68910000Y-112025000D01*
X68910000Y-112660000D02*
X68910000Y-113295000D01*
X68910000Y-117740000D02*
X68910000Y-117105000D01*
X73990000Y-112660000D02*
X73990000Y-113295000D01*
X73990000Y-118375000D02*
X73990000Y-117105000D01*
X68910000Y-112660000D02*
X73990000Y-112660000D01*
G04 #@! TO.C,J8*
X77930000Y-122410000D02*
X83010000Y-122410000D01*
X83010000Y-128125000D02*
X83010000Y-126855000D01*
X83010000Y-122410000D02*
X83010000Y-123045000D01*
X77930000Y-127490000D02*
X77930000Y-126855000D01*
X77930000Y-122410000D02*
X77930000Y-123045000D01*
X77930000Y-122410000D02*
X77930000Y-121775000D01*
X77930000Y-121775000D02*
X83010000Y-121775000D01*
X83010000Y-121775000D02*
X83010000Y-122410000D01*
X83010000Y-128125000D02*
X77930000Y-128125000D01*
X77930000Y-128125000D02*
X77930000Y-127490000D01*
G04 #@! TO.C,J7*
X53590000Y-109025000D02*
X53590000Y-108390000D01*
X58670000Y-109025000D02*
X53590000Y-109025000D01*
X58670000Y-102675000D02*
X58670000Y-103310000D01*
X53590000Y-102675000D02*
X58670000Y-102675000D01*
X53590000Y-103310000D02*
X53590000Y-102675000D01*
X53590000Y-103310000D02*
X53590000Y-103945000D01*
X53590000Y-108390000D02*
X53590000Y-107755000D01*
X58670000Y-103310000D02*
X58670000Y-103945000D01*
X58670000Y-109025000D02*
X58670000Y-107755000D01*
X53590000Y-103310000D02*
X58670000Y-103310000D01*
G04 #@! TO.C,J6*
X55910000Y-112660000D02*
X60990000Y-112660000D01*
X60990000Y-118375000D02*
X60990000Y-117105000D01*
X60990000Y-112660000D02*
X60990000Y-113295000D01*
X55910000Y-117740000D02*
X55910000Y-117105000D01*
X55910000Y-112660000D02*
X55910000Y-113295000D01*
X55910000Y-112660000D02*
X55910000Y-112025000D01*
X55910000Y-112025000D02*
X60990000Y-112025000D01*
X60990000Y-112025000D02*
X60990000Y-112660000D01*
X60990000Y-118375000D02*
X55910000Y-118375000D01*
X55910000Y-118375000D02*
X55910000Y-117740000D01*
G04 #@! TO.C,J4*
X60130000Y-109025000D02*
X60130000Y-108390000D01*
X65210000Y-109025000D02*
X60130000Y-109025000D01*
X65210000Y-102675000D02*
X65210000Y-103310000D01*
X60130000Y-102675000D02*
X65210000Y-102675000D01*
X60130000Y-103310000D02*
X60130000Y-102675000D01*
X60130000Y-103310000D02*
X60130000Y-103945000D01*
X60130000Y-108390000D02*
X60130000Y-107755000D01*
X65210000Y-103310000D02*
X65210000Y-103945000D01*
X65210000Y-109025000D02*
X65210000Y-107755000D01*
X60130000Y-103310000D02*
X65210000Y-103310000D01*
G04 #@! TO.C,J3*
X62410000Y-112660000D02*
X67490000Y-112660000D01*
X67490000Y-118375000D02*
X67490000Y-117105000D01*
X67490000Y-112660000D02*
X67490000Y-113295000D01*
X62410000Y-117740000D02*
X62410000Y-117105000D01*
X62410000Y-112660000D02*
X62410000Y-113295000D01*
X62410000Y-112660000D02*
X62410000Y-112025000D01*
X62410000Y-112025000D02*
X67490000Y-112025000D01*
X67490000Y-112025000D02*
X67490000Y-112660000D01*
X67490000Y-118375000D02*
X62410000Y-118375000D01*
X62410000Y-118375000D02*
X62410000Y-117740000D01*
G04 #@! TO.C,J2*
X61390000Y-128125000D02*
X61390000Y-127490000D01*
X66470000Y-128125000D02*
X61390000Y-128125000D01*
X66470000Y-121775000D02*
X66470000Y-122410000D01*
X61390000Y-121775000D02*
X66470000Y-121775000D01*
X61390000Y-122410000D02*
X61390000Y-121775000D01*
X61390000Y-122410000D02*
X61390000Y-123045000D01*
X61390000Y-127490000D02*
X61390000Y-126855000D01*
X66470000Y-122410000D02*
X66470000Y-123045000D01*
X66470000Y-128125000D02*
X66470000Y-126855000D01*
X61390000Y-122410000D02*
X66470000Y-122410000D01*
G04 #@! TO.C,J1*
X61430000Y-130660000D02*
X66510000Y-130660000D01*
X66510000Y-136375000D02*
X66510000Y-135105000D01*
X66510000Y-130660000D02*
X66510000Y-131295000D01*
X61430000Y-135740000D02*
X61430000Y-135105000D01*
X61430000Y-130660000D02*
X61430000Y-131295000D01*
X61430000Y-130660000D02*
X61430000Y-130025000D01*
X61430000Y-130025000D02*
X66510000Y-130025000D01*
X66510000Y-130025000D02*
X66510000Y-130660000D01*
X66510000Y-136375000D02*
X61430000Y-136375000D01*
X61430000Y-136375000D02*
X61430000Y-135740000D01*
G04 #@! TO.C,J14*
X69660000Y-128125000D02*
X69660000Y-127490000D01*
X74740000Y-128125000D02*
X69660000Y-128125000D01*
X74740000Y-121775000D02*
X74740000Y-122410000D01*
X69660000Y-121775000D02*
X74740000Y-121775000D01*
X69660000Y-122410000D02*
X69660000Y-121775000D01*
X69660000Y-122410000D02*
X69660000Y-123045000D01*
X69660000Y-127490000D02*
X69660000Y-126855000D01*
X74740000Y-122410000D02*
X74740000Y-123045000D01*
X74740000Y-128125000D02*
X74740000Y-126855000D01*
X69660000Y-122410000D02*
X74740000Y-122410000D01*
G04 #@! TO.C,J15*
X79140000Y-103660000D02*
X84220000Y-103660000D01*
X84220000Y-109375000D02*
X84220000Y-108105000D01*
X84220000Y-103660000D02*
X84220000Y-104295000D01*
X79140000Y-108740000D02*
X79140000Y-108105000D01*
X79140000Y-103660000D02*
X79140000Y-104295000D01*
X79140000Y-103660000D02*
X79140000Y-103025000D01*
X79140000Y-103025000D02*
X84220000Y-103025000D01*
X84220000Y-103025000D02*
X84220000Y-103660000D01*
X84220000Y-109375000D02*
X79140000Y-109375000D01*
X79140000Y-109375000D02*
X79140000Y-108740000D01*
G04 #@! TO.C,J16*
X177890000Y-137125000D02*
X177890000Y-136490000D01*
X182970000Y-137125000D02*
X177890000Y-137125000D01*
X182970000Y-130775000D02*
X182970000Y-131410000D01*
X177890000Y-130775000D02*
X182970000Y-130775000D01*
X177890000Y-131410000D02*
X177890000Y-130775000D01*
X177890000Y-131410000D02*
X177890000Y-132045000D01*
X177890000Y-136490000D02*
X177890000Y-135855000D01*
X182970000Y-131410000D02*
X182970000Y-132045000D01*
X182970000Y-137125000D02*
X182970000Y-135855000D01*
X177890000Y-131410000D02*
X182970000Y-131410000D01*
G04 #@! TO.C,J13*
X66610000Y-103310000D02*
X71690000Y-103310000D01*
X71690000Y-109025000D02*
X71690000Y-107755000D01*
X71690000Y-103310000D02*
X71690000Y-103945000D01*
X66610000Y-108390000D02*
X66610000Y-107755000D01*
X66610000Y-103310000D02*
X66610000Y-103945000D01*
X66610000Y-103310000D02*
X66610000Y-102675000D01*
X66610000Y-102675000D02*
X71690000Y-102675000D01*
X71690000Y-102675000D02*
X71690000Y-103310000D01*
X71690000Y-109025000D02*
X66610000Y-109025000D01*
X66610000Y-109025000D02*
X66610000Y-108390000D01*
G04 #@! TO.C,H3*
X180688095Y-110452380D02*
X180688095Y-109452380D01*
X180688095Y-109928571D02*
X181259523Y-109928571D01*
X181259523Y-110452380D02*
X181259523Y-109452380D01*
X181640476Y-109452380D02*
X182259523Y-109452380D01*
X181926190Y-109833333D01*
X182069047Y-109833333D01*
X182164285Y-109880952D01*
X182211904Y-109928571D01*
X182259523Y-110023809D01*
X182259523Y-110261904D01*
X182211904Y-110357142D01*
X182164285Y-110404761D01*
X182069047Y-110452380D01*
X181783333Y-110452380D01*
X181688095Y-110404761D01*
X181640476Y-110357142D01*
G04 #@! TO.C,H1*
X88938095Y-132202380D02*
X88938095Y-131202380D01*
X88938095Y-131678571D02*
X89509523Y-131678571D01*
X89509523Y-132202380D02*
X89509523Y-131202380D01*
X90509523Y-132202380D02*
X89938095Y-132202380D01*
X90223809Y-132202380D02*
X90223809Y-131202380D01*
X90128571Y-131345238D01*
X90033333Y-131440476D01*
X89938095Y-131488095D01*
G04 #@! TO.C,H2*
X48688095Y-111702380D02*
X48688095Y-110702380D01*
X48688095Y-111178571D02*
X49259523Y-111178571D01*
X49259523Y-111702380D02*
X49259523Y-110702380D01*
X49688095Y-110797619D02*
X49735714Y-110750000D01*
X49830952Y-110702380D01*
X50069047Y-110702380D01*
X50164285Y-110750000D01*
X50211904Y-110797619D01*
X50259523Y-110892857D01*
X50259523Y-110988095D01*
X50211904Y-111130952D01*
X49640476Y-111702380D01*
X50259523Y-111702380D01*
G04 #@! TO.C,TH1*
X170729285Y-110402380D02*
X171300714Y-110402380D01*
X171015000Y-111402380D02*
X171015000Y-110402380D01*
X171634047Y-111402380D02*
X171634047Y-110402380D01*
X171634047Y-110878571D02*
X172205476Y-110878571D01*
X172205476Y-111402380D02*
X172205476Y-110402380D01*
X173205476Y-111402380D02*
X172634047Y-111402380D01*
X172919761Y-111402380D02*
X172919761Y-110402380D01*
X172824523Y-110545238D01*
X172729285Y-110640476D01*
X172634047Y-110688095D01*
G04 #@! TO.C,F1*
X164878571Y-125783333D02*
X164878571Y-126116666D01*
X165402380Y-126116666D02*
X164402380Y-126116666D01*
X164402380Y-125640476D01*
X165402380Y-124735714D02*
X165402380Y-125307142D01*
X165402380Y-125021428D02*
X164402380Y-125021428D01*
X164545238Y-125116666D01*
X164640476Y-125211904D01*
X164688095Y-125307142D01*
G04 #@! TO.C,C1*
X125057142Y-118366666D02*
X125104761Y-118414285D01*
X125152380Y-118557142D01*
X125152380Y-118652380D01*
X125104761Y-118795238D01*
X125009523Y-118890476D01*
X124914285Y-118938095D01*
X124723809Y-118985714D01*
X124580952Y-118985714D01*
X124390476Y-118938095D01*
X124295238Y-118890476D01*
X124200000Y-118795238D01*
X124152380Y-118652380D01*
X124152380Y-118557142D01*
X124200000Y-118414285D01*
X124247619Y-118366666D01*
X125152380Y-117414285D02*
X125152380Y-117985714D01*
X125152380Y-117700000D02*
X124152380Y-117700000D01*
X124295238Y-117795238D01*
X124390476Y-117890476D01*
X124438095Y-117985714D01*
G04 #@! TO.C,C2*
X165057142Y-118366666D02*
X165104761Y-118414285D01*
X165152380Y-118557142D01*
X165152380Y-118652380D01*
X165104761Y-118795238D01*
X165009523Y-118890476D01*
X164914285Y-118938095D01*
X164723809Y-118985714D01*
X164580952Y-118985714D01*
X164390476Y-118938095D01*
X164295238Y-118890476D01*
X164200000Y-118795238D01*
X164152380Y-118652380D01*
X164152380Y-118557142D01*
X164200000Y-118414285D01*
X164247619Y-118366666D01*
X164247619Y-117985714D02*
X164200000Y-117938095D01*
X164152380Y-117842857D01*
X164152380Y-117604761D01*
X164200000Y-117509523D01*
X164247619Y-117461904D01*
X164342857Y-117414285D01*
X164438095Y-117414285D01*
X164580952Y-117461904D01*
X165152380Y-118033333D01*
X165152380Y-117414285D01*
G04 #@! TO.C,D1*
X49611904Y-133722380D02*
X49611904Y-132722380D01*
X49850000Y-132722380D01*
X49992857Y-132770000D01*
X50088095Y-132865238D01*
X50135714Y-132960476D01*
X50183333Y-133150952D01*
X50183333Y-133293809D01*
X50135714Y-133484285D01*
X50088095Y-133579523D01*
X49992857Y-133674761D01*
X49850000Y-133722380D01*
X49611904Y-133722380D01*
X51135714Y-133722380D02*
X50564285Y-133722380D01*
X50850000Y-133722380D02*
X50850000Y-132722380D01*
X50754761Y-132865238D01*
X50659523Y-132960476D01*
X50564285Y-133008095D01*
G04 #@! TO.C,R3*
X57722380Y-126604166D02*
X57246190Y-126937500D01*
X57722380Y-127175595D02*
X56722380Y-127175595D01*
X56722380Y-126794642D01*
X56770000Y-126699404D01*
X56817619Y-126651785D01*
X56912857Y-126604166D01*
X57055714Y-126604166D01*
X57150952Y-126651785D01*
X57198571Y-126699404D01*
X57246190Y-126794642D01*
X57246190Y-127175595D01*
X56722380Y-126270833D02*
X56722380Y-125651785D01*
X57103333Y-125985119D01*
X57103333Y-125842261D01*
X57150952Y-125747023D01*
X57198571Y-125699404D01*
X57293809Y-125651785D01*
X57531904Y-125651785D01*
X57627142Y-125699404D01*
X57674761Y-125747023D01*
X57722380Y-125842261D01*
X57722380Y-126127976D01*
X57674761Y-126223214D01*
X57627142Y-126270833D01*
G04 #@! TO.C,R2*
X50832380Y-126604166D02*
X50356190Y-126937500D01*
X50832380Y-127175595D02*
X49832380Y-127175595D01*
X49832380Y-126794642D01*
X49880000Y-126699404D01*
X49927619Y-126651785D01*
X50022857Y-126604166D01*
X50165714Y-126604166D01*
X50260952Y-126651785D01*
X50308571Y-126699404D01*
X50356190Y-126794642D01*
X50356190Y-127175595D01*
X49927619Y-126223214D02*
X49880000Y-126175595D01*
X49832380Y-126080357D01*
X49832380Y-125842261D01*
X49880000Y-125747023D01*
X49927619Y-125699404D01*
X50022857Y-125651785D01*
X50118095Y-125651785D01*
X50260952Y-125699404D01*
X50832380Y-126270833D01*
X50832380Y-125651785D01*
G04 #@! TO.C,R1*
X51222380Y-126604166D02*
X50746190Y-126937500D01*
X51222380Y-127175595D02*
X50222380Y-127175595D01*
X50222380Y-126794642D01*
X50270000Y-126699404D01*
X50317619Y-126651785D01*
X50412857Y-126604166D01*
X50555714Y-126604166D01*
X50650952Y-126651785D01*
X50698571Y-126699404D01*
X50746190Y-126794642D01*
X50746190Y-127175595D01*
X51222380Y-125651785D02*
X51222380Y-126223214D01*
X51222380Y-125937500D02*
X50222380Y-125937500D01*
X50365238Y-126032738D01*
X50460476Y-126127976D01*
X50508095Y-126223214D01*
G04 #@! TO.C,J5*
X71846666Y-128207380D02*
X71846666Y-128921666D01*
X71799047Y-129064523D01*
X71703809Y-129159761D01*
X71560952Y-129207380D01*
X71465714Y-129207380D01*
X72799047Y-128207380D02*
X72322857Y-128207380D01*
X72275238Y-128683571D01*
X72322857Y-128635952D01*
X72418095Y-128588333D01*
X72656190Y-128588333D01*
X72751428Y-128635952D01*
X72799047Y-128683571D01*
X72846666Y-128778809D01*
X72846666Y-129016904D01*
X72799047Y-129112142D01*
X72751428Y-129159761D01*
X72656190Y-129207380D01*
X72418095Y-129207380D01*
X72322857Y-129159761D01*
X72275238Y-129112142D01*
G04 #@! TO.C,J12*
X80890476Y-110207380D02*
X80890476Y-110921666D01*
X80842857Y-111064523D01*
X80747619Y-111159761D01*
X80604761Y-111207380D01*
X80509523Y-111207380D01*
X81890476Y-111207380D02*
X81319047Y-111207380D01*
X81604761Y-111207380D02*
X81604761Y-110207380D01*
X81509523Y-110350238D01*
X81414285Y-110445476D01*
X81319047Y-110493095D01*
X82271428Y-110302619D02*
X82319047Y-110255000D01*
X82414285Y-110207380D01*
X82652380Y-110207380D01*
X82747619Y-110255000D01*
X82795238Y-110302619D01*
X82842857Y-110397857D01*
X82842857Y-110493095D01*
X82795238Y-110635952D01*
X82223809Y-111207380D01*
X82842857Y-111207380D01*
G04 #@! TO.C,J11*
X79660476Y-128207380D02*
X79660476Y-128921666D01*
X79612857Y-129064523D01*
X79517619Y-129159761D01*
X79374761Y-129207380D01*
X79279523Y-129207380D01*
X80660476Y-129207380D02*
X80089047Y-129207380D01*
X80374761Y-129207380D02*
X80374761Y-128207380D01*
X80279523Y-128350238D01*
X80184285Y-128445476D01*
X80089047Y-128493095D01*
X81612857Y-129207380D02*
X81041428Y-129207380D01*
X81327142Y-129207380D02*
X81327142Y-128207380D01*
X81231904Y-128350238D01*
X81136666Y-128445476D01*
X81041428Y-128493095D01*
G04 #@! TO.C,J10*
X48820476Y-100857380D02*
X48820476Y-101571666D01*
X48772857Y-101714523D01*
X48677619Y-101809761D01*
X48534761Y-101857380D01*
X48439523Y-101857380D01*
X49820476Y-101857380D02*
X49249047Y-101857380D01*
X49534761Y-101857380D02*
X49534761Y-100857380D01*
X49439523Y-101000238D01*
X49344285Y-101095476D01*
X49249047Y-101143095D01*
X50439523Y-100857380D02*
X50534761Y-100857380D01*
X50630000Y-100905000D01*
X50677619Y-100952619D01*
X50725238Y-101047857D01*
X50772857Y-101238333D01*
X50772857Y-101476428D01*
X50725238Y-101666904D01*
X50677619Y-101762142D01*
X50630000Y-101809761D01*
X50534761Y-101857380D01*
X50439523Y-101857380D01*
X50344285Y-101809761D01*
X50296666Y-101762142D01*
X50249047Y-101666904D01*
X50201428Y-101476428D01*
X50201428Y-101238333D01*
X50249047Y-101047857D01*
X50296666Y-100952619D01*
X50344285Y-100905000D01*
X50439523Y-100857380D01*
G04 #@! TO.C,J9*
X71116666Y-110207380D02*
X71116666Y-110921666D01*
X71069047Y-111064523D01*
X70973809Y-111159761D01*
X70830952Y-111207380D01*
X70735714Y-111207380D01*
X71640476Y-111207380D02*
X71830952Y-111207380D01*
X71926190Y-111159761D01*
X71973809Y-111112142D01*
X72069047Y-110969285D01*
X72116666Y-110778809D01*
X72116666Y-110397857D01*
X72069047Y-110302619D01*
X72021428Y-110255000D01*
X71926190Y-110207380D01*
X71735714Y-110207380D01*
X71640476Y-110255000D01*
X71592857Y-110302619D01*
X71545238Y-110397857D01*
X71545238Y-110635952D01*
X71592857Y-110731190D01*
X71640476Y-110778809D01*
X71735714Y-110826428D01*
X71926190Y-110826428D01*
X72021428Y-110778809D01*
X72069047Y-110731190D01*
X72116666Y-110635952D01*
G04 #@! TO.C,J8*
X80136666Y-119957380D02*
X80136666Y-120671666D01*
X80089047Y-120814523D01*
X79993809Y-120909761D01*
X79850952Y-120957380D01*
X79755714Y-120957380D01*
X80755714Y-120385952D02*
X80660476Y-120338333D01*
X80612857Y-120290714D01*
X80565238Y-120195476D01*
X80565238Y-120147857D01*
X80612857Y-120052619D01*
X80660476Y-120005000D01*
X80755714Y-119957380D01*
X80946190Y-119957380D01*
X81041428Y-120005000D01*
X81089047Y-120052619D01*
X81136666Y-120147857D01*
X81136666Y-120195476D01*
X81089047Y-120290714D01*
X81041428Y-120338333D01*
X80946190Y-120385952D01*
X80755714Y-120385952D01*
X80660476Y-120433571D01*
X80612857Y-120481190D01*
X80565238Y-120576428D01*
X80565238Y-120766904D01*
X80612857Y-120862142D01*
X80660476Y-120909761D01*
X80755714Y-120957380D01*
X80946190Y-120957380D01*
X81041428Y-120909761D01*
X81089047Y-120862142D01*
X81136666Y-120766904D01*
X81136666Y-120576428D01*
X81089047Y-120481190D01*
X81041428Y-120433571D01*
X80946190Y-120385952D01*
G04 #@! TO.C,J7*
X55796666Y-100857380D02*
X55796666Y-101571666D01*
X55749047Y-101714523D01*
X55653809Y-101809761D01*
X55510952Y-101857380D01*
X55415714Y-101857380D01*
X56177619Y-100857380D02*
X56844285Y-100857380D01*
X56415714Y-101857380D01*
G04 #@! TO.C,J6*
X58116666Y-110207380D02*
X58116666Y-110921666D01*
X58069047Y-111064523D01*
X57973809Y-111159761D01*
X57830952Y-111207380D01*
X57735714Y-111207380D01*
X59021428Y-110207380D02*
X58830952Y-110207380D01*
X58735714Y-110255000D01*
X58688095Y-110302619D01*
X58592857Y-110445476D01*
X58545238Y-110635952D01*
X58545238Y-111016904D01*
X58592857Y-111112142D01*
X58640476Y-111159761D01*
X58735714Y-111207380D01*
X58926190Y-111207380D01*
X59021428Y-111159761D01*
X59069047Y-111112142D01*
X59116666Y-111016904D01*
X59116666Y-110778809D01*
X59069047Y-110683571D01*
X59021428Y-110635952D01*
X58926190Y-110588333D01*
X58735714Y-110588333D01*
X58640476Y-110635952D01*
X58592857Y-110683571D01*
X58545238Y-110778809D01*
G04 #@! TO.C,J4*
X62336666Y-100857380D02*
X62336666Y-101571666D01*
X62289047Y-101714523D01*
X62193809Y-101809761D01*
X62050952Y-101857380D01*
X61955714Y-101857380D01*
X63241428Y-101190714D02*
X63241428Y-101857380D01*
X63003333Y-100809761D02*
X62765238Y-101524047D01*
X63384285Y-101524047D01*
G04 #@! TO.C,J3*
X64616666Y-110207380D02*
X64616666Y-110921666D01*
X64569047Y-111064523D01*
X64473809Y-111159761D01*
X64330952Y-111207380D01*
X64235714Y-111207380D01*
X64997619Y-110207380D02*
X65616666Y-110207380D01*
X65283333Y-110588333D01*
X65426190Y-110588333D01*
X65521428Y-110635952D01*
X65569047Y-110683571D01*
X65616666Y-110778809D01*
X65616666Y-111016904D01*
X65569047Y-111112142D01*
X65521428Y-111159761D01*
X65426190Y-111207380D01*
X65140476Y-111207380D01*
X65045238Y-111159761D01*
X64997619Y-111112142D01*
G04 #@! TO.C,J2*
X63596666Y-119957380D02*
X63596666Y-120671666D01*
X63549047Y-120814523D01*
X63453809Y-120909761D01*
X63310952Y-120957380D01*
X63215714Y-120957380D01*
X64025238Y-120052619D02*
X64072857Y-120005000D01*
X64168095Y-119957380D01*
X64406190Y-119957380D01*
X64501428Y-120005000D01*
X64549047Y-120052619D01*
X64596666Y-120147857D01*
X64596666Y-120243095D01*
X64549047Y-120385952D01*
X63977619Y-120957380D01*
X64596666Y-120957380D01*
G04 #@! TO.C,J1*
X63636666Y-128207380D02*
X63636666Y-128921666D01*
X63589047Y-129064523D01*
X63493809Y-129159761D01*
X63350952Y-129207380D01*
X63255714Y-129207380D01*
X64636666Y-129207380D02*
X64065238Y-129207380D01*
X64350952Y-129207380D02*
X64350952Y-128207380D01*
X64255714Y-128350238D01*
X64160476Y-128445476D01*
X64065238Y-128493095D01*
G04 #@! TO.C,J14*
X71390476Y-119957380D02*
X71390476Y-120671666D01*
X71342857Y-120814523D01*
X71247619Y-120909761D01*
X71104761Y-120957380D01*
X71009523Y-120957380D01*
X72390476Y-120957380D02*
X71819047Y-120957380D01*
X72104761Y-120957380D02*
X72104761Y-119957380D01*
X72009523Y-120100238D01*
X71914285Y-120195476D01*
X71819047Y-120243095D01*
X73247619Y-120290714D02*
X73247619Y-120957380D01*
X73009523Y-119909761D02*
X72771428Y-120624047D01*
X73390476Y-120624047D01*
G04 #@! TO.C,J15*
X80870476Y-101207380D02*
X80870476Y-101921666D01*
X80822857Y-102064523D01*
X80727619Y-102159761D01*
X80584761Y-102207380D01*
X80489523Y-102207380D01*
X81870476Y-102207380D02*
X81299047Y-102207380D01*
X81584761Y-102207380D02*
X81584761Y-101207380D01*
X81489523Y-101350238D01*
X81394285Y-101445476D01*
X81299047Y-101493095D01*
X82775238Y-101207380D02*
X82299047Y-101207380D01*
X82251428Y-101683571D01*
X82299047Y-101635952D01*
X82394285Y-101588333D01*
X82632380Y-101588333D01*
X82727619Y-101635952D01*
X82775238Y-101683571D01*
X82822857Y-101778809D01*
X82822857Y-102016904D01*
X82775238Y-102112142D01*
X82727619Y-102159761D01*
X82632380Y-102207380D01*
X82394285Y-102207380D01*
X82299047Y-102159761D01*
X82251428Y-102112142D01*
G04 #@! TO.C,J16*
X179620476Y-128957380D02*
X179620476Y-129671666D01*
X179572857Y-129814523D01*
X179477619Y-129909761D01*
X179334761Y-129957380D01*
X179239523Y-129957380D01*
X180620476Y-129957380D02*
X180049047Y-129957380D01*
X180334761Y-129957380D02*
X180334761Y-128957380D01*
X180239523Y-129100238D01*
X180144285Y-129195476D01*
X180049047Y-129243095D01*
X181477619Y-128957380D02*
X181287142Y-128957380D01*
X181191904Y-129005000D01*
X181144285Y-129052619D01*
X181049047Y-129195476D01*
X181001428Y-129385952D01*
X181001428Y-129766904D01*
X181049047Y-129862142D01*
X181096666Y-129909761D01*
X181191904Y-129957380D01*
X181382380Y-129957380D01*
X181477619Y-129909761D01*
X181525238Y-129862142D01*
X181572857Y-129766904D01*
X181572857Y-129528809D01*
X181525238Y-129433571D01*
X181477619Y-129385952D01*
X181382380Y-129338333D01*
X181191904Y-129338333D01*
X181096666Y-129385952D01*
X181049047Y-129433571D01*
X181001428Y-129528809D01*
G04 #@! TO.C,J13*
X68340476Y-100857380D02*
X68340476Y-101571666D01*
X68292857Y-101714523D01*
X68197619Y-101809761D01*
X68054761Y-101857380D01*
X67959523Y-101857380D01*
X69340476Y-101857380D02*
X68769047Y-101857380D01*
X69054761Y-101857380D02*
X69054761Y-100857380D01*
X68959523Y-101000238D01*
X68864285Y-101095476D01*
X68769047Y-101143095D01*
X69673809Y-100857380D02*
X70292857Y-100857380D01*
X69959523Y-101238333D01*
X70102380Y-101238333D01*
X70197619Y-101285952D01*
X70245238Y-101333571D01*
X70292857Y-101428809D01*
X70292857Y-101666904D01*
X70245238Y-101762142D01*
X70197619Y-101809761D01*
X70102380Y-101857380D01*
X69816666Y-101857380D01*
X69721428Y-101809761D01*
X69673809Y-101762142D01*
G04 #@! TD*
M02*
