G04 #@! TF.GenerationSoftware,KiCad,Pcbnew,5.0.1-33cea8e~68~ubuntu16.04.1*
G04 #@! TF.CreationDate,2019-04-14T15:01:33-04:00*
G04 #@! TF.ProjectId,filterbuffer,66696C7465726275666665722E6B6963,rev?*
G04 #@! TF.SameCoordinates,Original*
G04 #@! TF.FileFunction,Paste,Top*
G04 #@! TF.FilePolarity,Positive*
%FSLAX46Y46*%
G04 Gerber Fmt 4.6, Leading zero omitted, Abs format (unit mm)*
G04 Created by KiCad (PCBNEW 5.0.1-33cea8e~68~ubuntu16.04.1) date Sun 14 Apr 2019 15:01:33 EDT*
%MOMM*%
%LPD*%
G01*
G04 APERTURE LIST*
%ADD10C,0.100000*%
%ADD11C,1.250000*%
%ADD12C,1.425000*%
G04 APERTURE END LIST*
D10*
G04 #@! TO.C,D1*
G36*
X77899504Y-133576204D02*
X77923773Y-133579804D01*
X77947571Y-133585765D01*
X77970671Y-133594030D01*
X77992849Y-133604520D01*
X78013893Y-133617133D01*
X78033598Y-133631747D01*
X78051777Y-133648223D01*
X78068253Y-133666402D01*
X78082867Y-133686107D01*
X78095480Y-133707151D01*
X78105970Y-133729329D01*
X78114235Y-133752429D01*
X78120196Y-133776227D01*
X78123796Y-133800496D01*
X78125000Y-133825000D01*
X78125000Y-135075000D01*
X78123796Y-135099504D01*
X78120196Y-135123773D01*
X78114235Y-135147571D01*
X78105970Y-135170671D01*
X78095480Y-135192849D01*
X78082867Y-135213893D01*
X78068253Y-135233598D01*
X78051777Y-135251777D01*
X78033598Y-135268253D01*
X78013893Y-135282867D01*
X77992849Y-135295480D01*
X77970671Y-135305970D01*
X77947571Y-135314235D01*
X77923773Y-135320196D01*
X77899504Y-135323796D01*
X77875000Y-135325000D01*
X77125000Y-135325000D01*
X77100496Y-135323796D01*
X77076227Y-135320196D01*
X77052429Y-135314235D01*
X77029329Y-135305970D01*
X77007151Y-135295480D01*
X76986107Y-135282867D01*
X76966402Y-135268253D01*
X76948223Y-135251777D01*
X76931747Y-135233598D01*
X76917133Y-135213893D01*
X76904520Y-135192849D01*
X76894030Y-135170671D01*
X76885765Y-135147571D01*
X76879804Y-135123773D01*
X76876204Y-135099504D01*
X76875000Y-135075000D01*
X76875000Y-133825000D01*
X76876204Y-133800496D01*
X76879804Y-133776227D01*
X76885765Y-133752429D01*
X76894030Y-133729329D01*
X76904520Y-133707151D01*
X76917133Y-133686107D01*
X76931747Y-133666402D01*
X76948223Y-133648223D01*
X76966402Y-133631747D01*
X76986107Y-133617133D01*
X77007151Y-133604520D01*
X77029329Y-133594030D01*
X77052429Y-133585765D01*
X77076227Y-133579804D01*
X77100496Y-133576204D01*
X77125000Y-133575000D01*
X77875000Y-133575000D01*
X77899504Y-133576204D01*
X77899504Y-133576204D01*
G37*
D11*
X77500000Y-134450000D03*
D10*
G36*
X75099504Y-133576204D02*
X75123773Y-133579804D01*
X75147571Y-133585765D01*
X75170671Y-133594030D01*
X75192849Y-133604520D01*
X75213893Y-133617133D01*
X75233598Y-133631747D01*
X75251777Y-133648223D01*
X75268253Y-133666402D01*
X75282867Y-133686107D01*
X75295480Y-133707151D01*
X75305970Y-133729329D01*
X75314235Y-133752429D01*
X75320196Y-133776227D01*
X75323796Y-133800496D01*
X75325000Y-133825000D01*
X75325000Y-135075000D01*
X75323796Y-135099504D01*
X75320196Y-135123773D01*
X75314235Y-135147571D01*
X75305970Y-135170671D01*
X75295480Y-135192849D01*
X75282867Y-135213893D01*
X75268253Y-135233598D01*
X75251777Y-135251777D01*
X75233598Y-135268253D01*
X75213893Y-135282867D01*
X75192849Y-135295480D01*
X75170671Y-135305970D01*
X75147571Y-135314235D01*
X75123773Y-135320196D01*
X75099504Y-135323796D01*
X75075000Y-135325000D01*
X74325000Y-135325000D01*
X74300496Y-135323796D01*
X74276227Y-135320196D01*
X74252429Y-135314235D01*
X74229329Y-135305970D01*
X74207151Y-135295480D01*
X74186107Y-135282867D01*
X74166402Y-135268253D01*
X74148223Y-135251777D01*
X74131747Y-135233598D01*
X74117133Y-135213893D01*
X74104520Y-135192849D01*
X74094030Y-135170671D01*
X74085765Y-135147571D01*
X74079804Y-135123773D01*
X74076204Y-135099504D01*
X74075000Y-135075000D01*
X74075000Y-133825000D01*
X74076204Y-133800496D01*
X74079804Y-133776227D01*
X74085765Y-133752429D01*
X74094030Y-133729329D01*
X74104520Y-133707151D01*
X74117133Y-133686107D01*
X74131747Y-133666402D01*
X74148223Y-133648223D01*
X74166402Y-133631747D01*
X74186107Y-133617133D01*
X74207151Y-133604520D01*
X74229329Y-133594030D01*
X74252429Y-133585765D01*
X74276227Y-133579804D01*
X74300496Y-133576204D01*
X74325000Y-133575000D01*
X75075000Y-133575000D01*
X75099504Y-133576204D01*
X75099504Y-133576204D01*
G37*
D11*
X74700000Y-134450000D03*
G04 #@! TD*
D10*
G04 #@! TO.C,R3*
G36*
X81849504Y-127738704D02*
X81873773Y-127742304D01*
X81897571Y-127748265D01*
X81920671Y-127756530D01*
X81942849Y-127767020D01*
X81963893Y-127779633D01*
X81983598Y-127794247D01*
X82001777Y-127810723D01*
X82018253Y-127828902D01*
X82032867Y-127848607D01*
X82045480Y-127869651D01*
X82055970Y-127891829D01*
X82064235Y-127914929D01*
X82070196Y-127938727D01*
X82073796Y-127962996D01*
X82075000Y-127987500D01*
X82075000Y-128912500D01*
X82073796Y-128937004D01*
X82070196Y-128961273D01*
X82064235Y-128985071D01*
X82055970Y-129008171D01*
X82045480Y-129030349D01*
X82032867Y-129051393D01*
X82018253Y-129071098D01*
X82001777Y-129089277D01*
X81983598Y-129105753D01*
X81963893Y-129120367D01*
X81942849Y-129132980D01*
X81920671Y-129143470D01*
X81897571Y-129151735D01*
X81873773Y-129157696D01*
X81849504Y-129161296D01*
X81825000Y-129162500D01*
X80575000Y-129162500D01*
X80550496Y-129161296D01*
X80526227Y-129157696D01*
X80502429Y-129151735D01*
X80479329Y-129143470D01*
X80457151Y-129132980D01*
X80436107Y-129120367D01*
X80416402Y-129105753D01*
X80398223Y-129089277D01*
X80381747Y-129071098D01*
X80367133Y-129051393D01*
X80354520Y-129030349D01*
X80344030Y-129008171D01*
X80335765Y-128985071D01*
X80329804Y-128961273D01*
X80326204Y-128937004D01*
X80325000Y-128912500D01*
X80325000Y-127987500D01*
X80326204Y-127962996D01*
X80329804Y-127938727D01*
X80335765Y-127914929D01*
X80344030Y-127891829D01*
X80354520Y-127869651D01*
X80367133Y-127848607D01*
X80381747Y-127828902D01*
X80398223Y-127810723D01*
X80416402Y-127794247D01*
X80436107Y-127779633D01*
X80457151Y-127767020D01*
X80479329Y-127756530D01*
X80502429Y-127748265D01*
X80526227Y-127742304D01*
X80550496Y-127738704D01*
X80575000Y-127737500D01*
X81825000Y-127737500D01*
X81849504Y-127738704D01*
X81849504Y-127738704D01*
G37*
D12*
X81200000Y-128450000D03*
D10*
G36*
X81849504Y-130713704D02*
X81873773Y-130717304D01*
X81897571Y-130723265D01*
X81920671Y-130731530D01*
X81942849Y-130742020D01*
X81963893Y-130754633D01*
X81983598Y-130769247D01*
X82001777Y-130785723D01*
X82018253Y-130803902D01*
X82032867Y-130823607D01*
X82045480Y-130844651D01*
X82055970Y-130866829D01*
X82064235Y-130889929D01*
X82070196Y-130913727D01*
X82073796Y-130937996D01*
X82075000Y-130962500D01*
X82075000Y-131887500D01*
X82073796Y-131912004D01*
X82070196Y-131936273D01*
X82064235Y-131960071D01*
X82055970Y-131983171D01*
X82045480Y-132005349D01*
X82032867Y-132026393D01*
X82018253Y-132046098D01*
X82001777Y-132064277D01*
X81983598Y-132080753D01*
X81963893Y-132095367D01*
X81942849Y-132107980D01*
X81920671Y-132118470D01*
X81897571Y-132126735D01*
X81873773Y-132132696D01*
X81849504Y-132136296D01*
X81825000Y-132137500D01*
X80575000Y-132137500D01*
X80550496Y-132136296D01*
X80526227Y-132132696D01*
X80502429Y-132126735D01*
X80479329Y-132118470D01*
X80457151Y-132107980D01*
X80436107Y-132095367D01*
X80416402Y-132080753D01*
X80398223Y-132064277D01*
X80381747Y-132046098D01*
X80367133Y-132026393D01*
X80354520Y-132005349D01*
X80344030Y-131983171D01*
X80335765Y-131960071D01*
X80329804Y-131936273D01*
X80326204Y-131912004D01*
X80325000Y-131887500D01*
X80325000Y-130962500D01*
X80326204Y-130937996D01*
X80329804Y-130913727D01*
X80335765Y-130889929D01*
X80344030Y-130866829D01*
X80354520Y-130844651D01*
X80367133Y-130823607D01*
X80381747Y-130803902D01*
X80398223Y-130785723D01*
X80416402Y-130769247D01*
X80436107Y-130754633D01*
X80457151Y-130742020D01*
X80479329Y-130731530D01*
X80502429Y-130723265D01*
X80526227Y-130717304D01*
X80550496Y-130713704D01*
X80575000Y-130712500D01*
X81825000Y-130712500D01*
X81849504Y-130713704D01*
X81849504Y-130713704D01*
G37*
D12*
X81200000Y-131425000D03*
G04 #@! TD*
D10*
G04 #@! TO.C,R2*
G36*
X78599504Y-127738704D02*
X78623773Y-127742304D01*
X78647571Y-127748265D01*
X78670671Y-127756530D01*
X78692849Y-127767020D01*
X78713893Y-127779633D01*
X78733598Y-127794247D01*
X78751777Y-127810723D01*
X78768253Y-127828902D01*
X78782867Y-127848607D01*
X78795480Y-127869651D01*
X78805970Y-127891829D01*
X78814235Y-127914929D01*
X78820196Y-127938727D01*
X78823796Y-127962996D01*
X78825000Y-127987500D01*
X78825000Y-128912500D01*
X78823796Y-128937004D01*
X78820196Y-128961273D01*
X78814235Y-128985071D01*
X78805970Y-129008171D01*
X78795480Y-129030349D01*
X78782867Y-129051393D01*
X78768253Y-129071098D01*
X78751777Y-129089277D01*
X78733598Y-129105753D01*
X78713893Y-129120367D01*
X78692849Y-129132980D01*
X78670671Y-129143470D01*
X78647571Y-129151735D01*
X78623773Y-129157696D01*
X78599504Y-129161296D01*
X78575000Y-129162500D01*
X77325000Y-129162500D01*
X77300496Y-129161296D01*
X77276227Y-129157696D01*
X77252429Y-129151735D01*
X77229329Y-129143470D01*
X77207151Y-129132980D01*
X77186107Y-129120367D01*
X77166402Y-129105753D01*
X77148223Y-129089277D01*
X77131747Y-129071098D01*
X77117133Y-129051393D01*
X77104520Y-129030349D01*
X77094030Y-129008171D01*
X77085765Y-128985071D01*
X77079804Y-128961273D01*
X77076204Y-128937004D01*
X77075000Y-128912500D01*
X77075000Y-127987500D01*
X77076204Y-127962996D01*
X77079804Y-127938727D01*
X77085765Y-127914929D01*
X77094030Y-127891829D01*
X77104520Y-127869651D01*
X77117133Y-127848607D01*
X77131747Y-127828902D01*
X77148223Y-127810723D01*
X77166402Y-127794247D01*
X77186107Y-127779633D01*
X77207151Y-127767020D01*
X77229329Y-127756530D01*
X77252429Y-127748265D01*
X77276227Y-127742304D01*
X77300496Y-127738704D01*
X77325000Y-127737500D01*
X78575000Y-127737500D01*
X78599504Y-127738704D01*
X78599504Y-127738704D01*
G37*
D12*
X77950000Y-128450000D03*
D10*
G36*
X78599504Y-130713704D02*
X78623773Y-130717304D01*
X78647571Y-130723265D01*
X78670671Y-130731530D01*
X78692849Y-130742020D01*
X78713893Y-130754633D01*
X78733598Y-130769247D01*
X78751777Y-130785723D01*
X78768253Y-130803902D01*
X78782867Y-130823607D01*
X78795480Y-130844651D01*
X78805970Y-130866829D01*
X78814235Y-130889929D01*
X78820196Y-130913727D01*
X78823796Y-130937996D01*
X78825000Y-130962500D01*
X78825000Y-131887500D01*
X78823796Y-131912004D01*
X78820196Y-131936273D01*
X78814235Y-131960071D01*
X78805970Y-131983171D01*
X78795480Y-132005349D01*
X78782867Y-132026393D01*
X78768253Y-132046098D01*
X78751777Y-132064277D01*
X78733598Y-132080753D01*
X78713893Y-132095367D01*
X78692849Y-132107980D01*
X78670671Y-132118470D01*
X78647571Y-132126735D01*
X78623773Y-132132696D01*
X78599504Y-132136296D01*
X78575000Y-132137500D01*
X77325000Y-132137500D01*
X77300496Y-132136296D01*
X77276227Y-132132696D01*
X77252429Y-132126735D01*
X77229329Y-132118470D01*
X77207151Y-132107980D01*
X77186107Y-132095367D01*
X77166402Y-132080753D01*
X77148223Y-132064277D01*
X77131747Y-132046098D01*
X77117133Y-132026393D01*
X77104520Y-132005349D01*
X77094030Y-131983171D01*
X77085765Y-131960071D01*
X77079804Y-131936273D01*
X77076204Y-131912004D01*
X77075000Y-131887500D01*
X77075000Y-130962500D01*
X77076204Y-130937996D01*
X77079804Y-130913727D01*
X77085765Y-130889929D01*
X77094030Y-130866829D01*
X77104520Y-130844651D01*
X77117133Y-130823607D01*
X77131747Y-130803902D01*
X77148223Y-130785723D01*
X77166402Y-130769247D01*
X77186107Y-130754633D01*
X77207151Y-130742020D01*
X77229329Y-130731530D01*
X77252429Y-130723265D01*
X77276227Y-130717304D01*
X77300496Y-130713704D01*
X77325000Y-130712500D01*
X78575000Y-130712500D01*
X78599504Y-130713704D01*
X78599504Y-130713704D01*
G37*
D12*
X77950000Y-131425000D03*
G04 #@! TD*
D10*
G04 #@! TO.C,R1*
G36*
X75349504Y-127738704D02*
X75373773Y-127742304D01*
X75397571Y-127748265D01*
X75420671Y-127756530D01*
X75442849Y-127767020D01*
X75463893Y-127779633D01*
X75483598Y-127794247D01*
X75501777Y-127810723D01*
X75518253Y-127828902D01*
X75532867Y-127848607D01*
X75545480Y-127869651D01*
X75555970Y-127891829D01*
X75564235Y-127914929D01*
X75570196Y-127938727D01*
X75573796Y-127962996D01*
X75575000Y-127987500D01*
X75575000Y-128912500D01*
X75573796Y-128937004D01*
X75570196Y-128961273D01*
X75564235Y-128985071D01*
X75555970Y-129008171D01*
X75545480Y-129030349D01*
X75532867Y-129051393D01*
X75518253Y-129071098D01*
X75501777Y-129089277D01*
X75483598Y-129105753D01*
X75463893Y-129120367D01*
X75442849Y-129132980D01*
X75420671Y-129143470D01*
X75397571Y-129151735D01*
X75373773Y-129157696D01*
X75349504Y-129161296D01*
X75325000Y-129162500D01*
X74075000Y-129162500D01*
X74050496Y-129161296D01*
X74026227Y-129157696D01*
X74002429Y-129151735D01*
X73979329Y-129143470D01*
X73957151Y-129132980D01*
X73936107Y-129120367D01*
X73916402Y-129105753D01*
X73898223Y-129089277D01*
X73881747Y-129071098D01*
X73867133Y-129051393D01*
X73854520Y-129030349D01*
X73844030Y-129008171D01*
X73835765Y-128985071D01*
X73829804Y-128961273D01*
X73826204Y-128937004D01*
X73825000Y-128912500D01*
X73825000Y-127987500D01*
X73826204Y-127962996D01*
X73829804Y-127938727D01*
X73835765Y-127914929D01*
X73844030Y-127891829D01*
X73854520Y-127869651D01*
X73867133Y-127848607D01*
X73881747Y-127828902D01*
X73898223Y-127810723D01*
X73916402Y-127794247D01*
X73936107Y-127779633D01*
X73957151Y-127767020D01*
X73979329Y-127756530D01*
X74002429Y-127748265D01*
X74026227Y-127742304D01*
X74050496Y-127738704D01*
X74075000Y-127737500D01*
X75325000Y-127737500D01*
X75349504Y-127738704D01*
X75349504Y-127738704D01*
G37*
D12*
X74700000Y-128450000D03*
D10*
G36*
X75349504Y-130713704D02*
X75373773Y-130717304D01*
X75397571Y-130723265D01*
X75420671Y-130731530D01*
X75442849Y-130742020D01*
X75463893Y-130754633D01*
X75483598Y-130769247D01*
X75501777Y-130785723D01*
X75518253Y-130803902D01*
X75532867Y-130823607D01*
X75545480Y-130844651D01*
X75555970Y-130866829D01*
X75564235Y-130889929D01*
X75570196Y-130913727D01*
X75573796Y-130937996D01*
X75575000Y-130962500D01*
X75575000Y-131887500D01*
X75573796Y-131912004D01*
X75570196Y-131936273D01*
X75564235Y-131960071D01*
X75555970Y-131983171D01*
X75545480Y-132005349D01*
X75532867Y-132026393D01*
X75518253Y-132046098D01*
X75501777Y-132064277D01*
X75483598Y-132080753D01*
X75463893Y-132095367D01*
X75442849Y-132107980D01*
X75420671Y-132118470D01*
X75397571Y-132126735D01*
X75373773Y-132132696D01*
X75349504Y-132136296D01*
X75325000Y-132137500D01*
X74075000Y-132137500D01*
X74050496Y-132136296D01*
X74026227Y-132132696D01*
X74002429Y-132126735D01*
X73979329Y-132118470D01*
X73957151Y-132107980D01*
X73936107Y-132095367D01*
X73916402Y-132080753D01*
X73898223Y-132064277D01*
X73881747Y-132046098D01*
X73867133Y-132026393D01*
X73854520Y-132005349D01*
X73844030Y-131983171D01*
X73835765Y-131960071D01*
X73829804Y-131936273D01*
X73826204Y-131912004D01*
X73825000Y-131887500D01*
X73825000Y-130962500D01*
X73826204Y-130937996D01*
X73829804Y-130913727D01*
X73835765Y-130889929D01*
X73844030Y-130866829D01*
X73854520Y-130844651D01*
X73867133Y-130823607D01*
X73881747Y-130803902D01*
X73898223Y-130785723D01*
X73916402Y-130769247D01*
X73936107Y-130754633D01*
X73957151Y-130742020D01*
X73979329Y-130731530D01*
X74002429Y-130723265D01*
X74026227Y-130717304D01*
X74050496Y-130713704D01*
X74075000Y-130712500D01*
X75325000Y-130712500D01*
X75349504Y-130713704D01*
X75349504Y-130713704D01*
G37*
D12*
X74700000Y-131425000D03*
G04 #@! TD*
M02*
